<svg width="20" height="20" viewBox="0 0 20 20" fill="none" xmlns="http://www.w3.org/2000/svg">
<path d="M10.0004 11.3363C8.22539 11.3363 6.77539 9.95234 6.77539 8.24034C6.77539 6.52834 8.22539 5.15234 10.0004 5.15234C11.7754 5.15234 13.2254 6.53634 13.2254 8.24834C13.2254 9.96035 11.7754 11.3363 10.0004 11.3363ZM10.0004 6.35234C8.91706 6.35234 8.02539 7.20034 8.02539 8.24834C8.02539 9.29634 8.90872 10.1443 10.0004 10.1443C11.0921 10.1443 11.9754 9.29634 11.9754 8.24834C11.9754 7.20034 11.0837 6.35234 10.0004 6.35234Z" fill="#6F6E6E"/>
<path d="M10.0004 18.208C8.76706 18.208 7.52539 17.76 6.55872 16.872C4.10039 14.6 1.38372 10.976 2.40872 6.664C3.33372 2.752 6.89206 1 10.0004 1C10.0004 1 10.0004 1 10.0087 1C13.1171 1 16.6754 2.752 17.6004 6.672C18.6171 10.984 15.9004 14.6 13.4421 16.872C12.4754 17.76 11.2337 18.208 10.0004 18.208ZM10.0004 2.2C7.57539 2.2 4.45872 3.44 3.63372 6.928C2.73372 10.696 5.20039 13.944 7.43372 16C8.87539 17.336 11.1337 17.336 12.5754 16C14.8004 13.944 17.2671 10.696 16.3837 6.928C15.5504 3.44 12.4254 2.2 10.0004 2.2Z" fill="#6F6E6E"/>
</svg>
