<svg width="24" height="24" viewBox="0 0 24 24" fill="none" xmlns="http://www.w3.org/2000/svg">
<path d="M12.0234 21.7949C11.9773 21.7949 11.9316 21.7858 11.8889 21.7682C11.8462 21.7505 11.8075 21.7246 11.7748 21.692C11.7422 21.6593 11.7163 21.6206 11.6986 21.5779C11.681 21.5352 11.6719 21.4895 11.6719 21.4434V20.6465C11.6719 20.5532 11.7089 20.4638 11.7748 20.3979C11.8408 20.332 11.9302 20.2949 12.0234 20.2949C12.1167 20.2949 12.2061 20.332 12.272 20.3979C12.338 20.4638 12.375 20.5532 12.375 20.6465V21.4434C12.375 21.4895 12.3659 21.5352 12.3482 21.5779C12.3306 21.6206 12.3047 21.6593 12.272 21.692C12.2394 21.7246 12.2006 21.7505 12.158 21.7682C12.1153 21.7858 12.0696 21.7949 12.0234 21.7949Z" fill="#058B48"/>
<path d="M12 21.9141C17.6825 21.9141 22.2891 17.3075 22.2891 11.625C22.2891 5.94251 17.6825 1.33594 12 1.33594C6.31751 1.33594 1.71094 5.94251 1.71094 11.625C1.71094 17.3075 6.31751 21.9141 12 21.9141Z" fill="#FDD402"/>
<path d="M4.52344 11.625C4.52344 6.41962 8.38917 2.11781 13.4062 1.43201C12.9402 1.36815 12.4704 1.33605 12 1.33594C6.3175 1.33594 1.71094 5.9425 1.71094 11.625C1.71094 17.3075 6.3175 21.9141 12 21.9141C12.4704 21.9139 12.9402 21.8818 13.4062 21.818C8.38917 21.1322 4.52344 16.8304 4.52344 11.625Z" fill="#FBBF13"/>
<path d="M17.318 13.6116C17.3946 13.5791 17.4785 13.5675 17.5611 13.578C17.6437 13.5886 17.722 13.6209 17.788 13.6717C17.854 13.7225 17.9053 13.7899 17.9366 13.8671C17.9679 13.9442 17.9782 14.0283 17.9663 14.1107C17.769 15.5087 17.0731 16.7883 16.007 17.7139C14.9408 18.6395 13.5761 19.1486 12.1643 19.1476H11.8362C10.424 19.1497 9.05874 18.6409 7.99235 17.7152C6.92596 16.7894 6.23042 15.5092 6.0341 14.1107C6.02222 14.0283 6.03247 13.9442 6.06379 13.8671C6.09512 13.7899 6.14639 13.7225 6.21235 13.6717C6.27832 13.6209 6.35661 13.5886 6.43919 13.578C6.52177 13.5674 6.60568 13.579 6.68232 13.6116C8.3649 14.325 10.1736 14.6932 12.0012 14.6945H12.0705C13.8741 14.6839 15.6576 14.3159 17.318 13.6116Z" fill="#74563A"/>
<path d="M10.8837 18.6538C9.93643 18.2388 9.11619 17.5798 8.50672 16.7442C7.89726 15.9086 7.52039 14.9262 7.41458 13.8974C7.14802 13.8021 6.90315 13.7053 6.68139 13.6113C6.60477 13.5789 6.52092 13.5674 6.43841 13.5781C6.3559 13.5887 6.27772 13.6211 6.21185 13.672C6.14599 13.7228 6.09483 13.7902 6.0636 13.8673C6.03238 13.9444 6.02222 14.0285 6.03415 14.1108C6.23132 15.5089 6.9271 16.7887 7.9933 17.7143C9.05951 18.6399 10.4243 19.149 11.8362 19.1479H12.1644C12.3462 19.1479 12.5258 19.1391 12.7034 19.1229C12.0754 19.0662 11.4609 18.9078 10.8837 18.6538Z" fill="#674B34"/>
<path d="M9 15.3521V19.6646C9 20.4603 9.31607 21.2233 9.87868 21.786C10.4413 22.3486 11.2044 22.6646 12 22.6646C12.7956 22.6646 13.5587 22.3486 14.1213 21.786C14.6839 21.2233 15 20.4603 15 19.6646V15.3521C13.0148 15.0076 10.9852 15.0076 9 15.3521Z" fill="#37B678"/>
<path d="M10.4062 19.6646V15.3521C11.1658 15.2204 11.9331 15.1389 12.7033 15.108C12.5196 15.1006 12.332 15.0961 12.1406 15.0943C11.0881 15.0859 10.037 15.1722 9 15.3521V19.6646C8.99993 20.1184 9.10282 20.5663 9.30093 20.9746C9.49904 21.3828 9.7872 21.7408 10.1437 22.0216C10.5002 22.3024 10.9158 22.4986 11.3591 22.5955C11.8025 22.6923 12.262 22.6874 12.7031 22.5809C12.0486 22.423 11.4662 22.0496 11.0496 21.5206C10.633 20.9916 10.4064 20.3379 10.4062 19.6646Z" fill="#00A653"/>
<path d="M12.3516 20.998H11.6953C11.366 20.9977 11.0502 20.8667 10.8174 20.6338C10.5845 20.4009 10.4535 20.0852 10.4531 19.7559C10.4531 19.6626 10.4902 19.5732 10.5561 19.5073C10.622 19.4413 10.7114 19.4043 10.8047 19.4043C10.8979 19.4043 10.9873 19.4413 11.0533 19.5073C11.1192 19.5732 11.1562 19.6626 11.1562 19.7559C11.1564 19.8988 11.2133 20.0358 11.3143 20.1369C11.4154 20.2379 11.5524 20.2948 11.6953 20.2949H12.3516C12.4945 20.2948 12.6315 20.2379 12.7326 20.1369C12.8336 20.0358 12.8905 19.8988 12.8906 19.7559V19.5684C12.8905 19.4254 12.8336 19.2884 12.7326 19.1874C12.6315 19.0863 12.4945 19.0295 12.3516 19.0293H11.6953C11.366 19.0289 11.0502 18.8979 10.8174 18.6651C10.5845 18.4322 10.4535 18.1164 10.4531 17.7871V17.5996C10.4535 17.2703 10.5845 16.9545 10.8174 16.7217C11.0502 16.4888 11.366 16.3578 11.6953 16.3574H12.3516C12.6809 16.3578 12.9966 16.4888 13.2295 16.7217C13.4624 16.9545 13.5934 17.2703 13.5938 17.5996C13.5938 17.6928 13.5567 17.7823 13.4908 17.8482C13.4248 17.9141 13.3354 17.9512 13.2422 17.9512C13.1489 17.9512 13.0595 17.9141 12.9936 17.8482C12.9277 17.7823 12.8906 17.6928 12.8906 17.5996C12.8905 17.4567 12.8336 17.3197 12.7326 17.2186C12.6315 17.1176 12.4945 17.0607 12.3516 17.0605H11.6953C11.5524 17.0607 11.4154 17.1176 11.3143 17.2186C11.2133 17.3197 11.1564 17.4567 11.1562 17.5996V17.7871C11.1564 17.93 11.2133 18.067 11.3143 18.1681C11.4154 18.2692 11.5524 18.326 11.6953 18.3262H12.3516C12.6809 18.3265 12.9966 18.4575 13.2295 18.6904C13.4624 18.9233 13.5934 19.239 13.5938 19.5684V19.7559C13.5934 20.0852 13.4624 20.4009 13.2295 20.6338C12.9966 20.8667 12.6809 20.9977 12.3516 20.998Z" fill="#058B48"/>
<path d="M12.0234 17.0605C11.9773 17.0606 11.9316 17.0515 11.8889 17.0338C11.8462 17.0161 11.8075 16.9902 11.7748 16.9576C11.7422 16.9249 11.7163 16.8862 11.6986 16.8435C11.681 16.8009 11.6719 16.7552 11.6719 16.709V15.9121C11.6719 15.8189 11.7089 15.7294 11.7748 15.6635C11.8408 15.5976 11.9302 15.5605 12.0234 15.5605C12.1167 15.5605 12.2061 15.5976 12.272 15.6635C12.338 15.7294 12.375 15.8189 12.375 15.9121V16.709C12.375 16.7552 12.3659 16.8009 12.3482 16.8435C12.3306 16.8862 12.3047 16.9249 12.272 16.9576C12.2394 16.9902 12.2006 17.0161 12.158 17.0338C12.1153 17.0515 12.0696 17.0606 12.0234 17.0605Z" fill="#058B48"/>
<path d="M16.5469 10.6855H15.8906C15.5613 10.6852 15.2455 10.5542 15.0127 10.3213C14.7798 10.0884 14.6488 9.77269 14.6484 9.44336C14.6484 9.35012 14.6855 9.2607 14.7514 9.19477C14.8173 9.12884 14.9068 9.0918 15 9.0918C15.0932 9.0918 15.1827 9.12884 15.2486 9.19477C15.3145 9.2607 15.3516 9.35012 15.3516 9.44336C15.3517 9.58628 15.4086 9.72329 15.5096 9.82435C15.6107 9.92541 15.7477 9.98226 15.8906 9.98242H16.5469C16.6898 9.98226 16.8268 9.92541 16.9279 9.82435C17.0289 9.72329 17.0858 9.58628 17.0859 9.44336V9.25586C17.0858 9.11294 17.0289 8.97593 16.9279 8.87487C16.8268 8.77381 16.6898 8.71696 16.5469 8.7168H15.8906C15.5613 8.71643 15.2455 8.58544 15.0127 8.35256C14.7798 8.11968 14.6488 7.80394 14.6484 7.47461V7.28711C14.6488 6.95777 14.7798 6.64203 15.0127 6.40916C15.2455 6.17628 15.5613 6.04529 15.8906 6.04492H16.5469C16.8762 6.04529 17.192 6.17628 17.4248 6.40916C17.6577 6.64203 17.7887 6.95777 17.7891 7.28711C17.7891 7.38035 17.752 7.46977 17.6861 7.5357C17.6202 7.60163 17.5307 7.63867 17.4375 7.63867C17.3443 7.63867 17.2548 7.60163 17.1889 7.5357C17.123 7.46977 17.0859 7.38035 17.0859 7.28711C17.0858 7.14419 17.0289 7.00718 16.9279 6.90612C16.8268 6.80506 16.6898 6.74821 16.5469 6.74805H15.8906C15.7477 6.74821 15.6107 6.80506 15.5096 6.90612C15.4086 7.00718 15.3517 7.14419 15.3516 7.28711V7.47461C15.3517 7.61753 15.4086 7.75454 15.5096 7.8556C15.6107 7.95666 15.7477 8.01351 15.8906 8.01367H16.5469C16.8762 8.01404 17.192 8.14503 17.4248 8.37791C17.6577 8.61078 17.7887 8.92652 17.7891 9.25586V9.44336C17.7887 9.77269 17.6577 10.0884 17.4248 10.3213C17.192 10.5542 16.8762 10.6852 16.5469 10.6855Z" fill="#74563A"/>
<path d="M16.2188 6.74805C16.1726 6.74805 16.1269 6.73896 16.0842 6.72129C16.0416 6.70363 16.0028 6.67773 15.9701 6.64508C15.9375 6.61244 15.9116 6.57368 15.8939 6.53103C15.8763 6.48837 15.8672 6.44265 15.8672 6.39648V5.59961C15.8672 5.50637 15.9042 5.41695 15.9702 5.35102C16.0361 5.28509 16.1255 5.24805 16.2188 5.24805C16.312 5.24805 16.4014 5.28509 16.4673 5.35102C16.5333 5.41695 16.5703 5.50637 16.5703 5.59961V6.39648C16.5703 6.44265 16.5612 6.48837 16.5436 6.53103C16.5259 6.57368 16.5 6.61244 16.4674 6.64508C16.4347 6.67773 16.3959 6.70363 16.3533 6.72129C16.3106 6.73896 16.2649 6.74805 16.2188 6.74805ZM16.2188 11.4824C16.1726 11.4824 16.1269 11.4733 16.0842 11.4557C16.0416 11.438 16.0028 11.4121 15.9701 11.3795C15.9375 11.3468 15.9116 11.3081 15.8939 11.2654C15.8763 11.2227 15.8672 11.177 15.8672 11.1309V10.334C15.8672 10.2407 15.9042 10.1513 15.9702 10.0854C16.0361 10.0195 16.1255 9.98242 16.2188 9.98242C16.312 9.98242 16.4014 10.0195 16.4673 10.0854C16.5333 10.1513 16.5703 10.2407 16.5703 10.334V11.1309C16.5703 11.177 16.5612 11.2227 16.5436 11.2654C16.5259 11.3081 16.5 11.3468 16.4674 11.3795C16.4347 11.4121 16.3959 11.438 16.3533 11.4557C16.3106 11.4733 16.2649 11.4824 16.2188 11.4824ZM8.10938 10.6855H7.45312C7.12379 10.6852 6.80805 10.5542 6.57517 10.3213C6.3423 10.0884 6.21131 9.77269 6.21094 9.44336C6.21094 9.35012 6.24798 9.2607 6.31391 9.19477C6.37984 9.12884 6.46926 9.0918 6.5625 9.0918C6.65574 9.0918 6.74516 9.12884 6.81109 9.19477C6.87702 9.2607 6.91406 9.35012 6.91406 9.44336C6.91423 9.58628 6.97108 9.72329 7.07213 9.82435C7.17319 9.92541 7.31021 9.98226 7.45312 9.98242H8.10938C8.25229 9.98226 8.38931 9.92541 8.49037 9.82435C8.59142 9.72329 8.64827 9.58628 8.64844 9.44336V9.25586C8.64827 9.11294 8.59142 8.97593 8.49037 8.87487C8.38931 8.77381 8.25229 8.71696 8.10938 8.7168H7.45312C7.12379 8.71643 6.80805 8.58544 6.57517 8.35256C6.3423 8.11969 6.21131 7.80394 6.21094 7.47461V7.28711C6.21131 6.95777 6.3423 6.64203 6.57517 6.40916C6.80805 6.17628 7.12379 6.04529 7.45312 6.04492H8.10938C8.43871 6.04529 8.75445 6.17628 8.98733 6.40916C9.2202 6.64203 9.35119 6.95777 9.35156 7.28711C9.35156 7.38035 9.31452 7.46977 9.24859 7.5357C9.18266 7.60163 9.09324 7.63867 9 7.63867C8.90676 7.63867 8.81734 7.60163 8.75141 7.5357C8.68548 7.46977 8.64844 7.38035 8.64844 7.28711C8.64827 7.14419 8.59142 7.00718 8.49037 6.90612C8.38931 6.80506 8.25229 6.74821 8.10938 6.74805H7.45312C7.31021 6.74821 7.17319 6.80506 7.07213 6.90612C6.97108 7.00718 6.91423 7.14419 6.91406 7.28711V7.47461C6.91423 7.61753 6.97108 7.75454 7.07213 7.8556C7.17319 7.95666 7.31021 8.01351 7.45312 8.01367H8.10938C8.43871 8.01404 8.75445 8.14503 8.98733 8.37791C9.2202 8.61078 9.35119 8.92652 9.35156 9.25586V9.44336C9.35119 9.77269 9.2202 10.0884 8.98733 10.3213C8.75445 10.5542 8.43871 10.6852 8.10938 10.6855Z" fill="#74563A"/>
<path d="M7.78125 6.74805C7.73508 6.74805 7.68936 6.73896 7.64671 6.72129C7.60405 6.70363 7.5653 6.67773 7.53265 6.64508C7.5 6.61244 7.47411 6.57368 7.45644 6.53103C7.43878 6.48837 7.42968 6.44265 7.42969 6.39648V5.59961C7.42969 5.50637 7.46673 5.41695 7.53266 5.35102C7.59859 5.28509 7.68801 5.24805 7.78125 5.24805C7.87449 5.24805 7.96391 5.28509 8.02984 5.35102C8.09577 5.41695 8.13281 5.50637 8.13281 5.59961V6.39648C8.13282 6.44265 8.12372 6.48837 8.10606 6.53103C8.08839 6.57368 8.0625 6.61244 8.02985 6.64508C7.9972 6.67773 7.95845 6.70363 7.91579 6.72129C7.87314 6.73896 7.82742 6.74805 7.78125 6.74805ZM7.78125 11.4824C7.73508 11.4824 7.68936 11.4733 7.64671 11.4557C7.60405 11.438 7.5653 11.4121 7.53265 11.3795C7.5 11.3468 7.47411 11.3081 7.45644 11.2654C7.43878 11.2227 7.42968 11.177 7.42969 11.1309V10.334C7.42969 10.2407 7.46673 10.1513 7.53266 10.0854C7.59859 10.0195 7.68801 9.98242 7.78125 9.98242C7.87449 9.98242 7.96391 10.0195 8.02984 10.0854C8.09577 10.1513 8.13281 10.2407 8.13281 10.334V11.1309C8.13282 11.177 8.12372 11.2227 8.10606 11.2654C8.08839 11.3081 8.0625 11.3468 8.02985 11.3795C7.9972 11.4121 7.95845 11.438 7.91579 11.4557C7.87314 11.4733 7.82742 11.4824 7.78125 11.4824Z" fill="#74563A"/>
</svg>
