<svg width="20" height="20" viewBox="0 0 20 20" fill="none" xmlns="http://www.w3.org/2000/svg">
<path d="M10.1331 8.69561C10.0498 8.68761 9.94981 8.68761 9.85814 8.69561C7.87481 8.63161 6.2998 7.07161 6.2998 5.15161C6.2998 3.19161 7.94981 1.59961 9.99981 1.59961C12.0415 1.59961 13.6998 3.19161 13.6998 5.15161C13.6915 7.07161 12.1165 8.63161 10.1331 8.69561Z" stroke="#6F6E6E" stroke-width="1.09" stroke-linecap="round" stroke-linejoin="round"/>
<path d="M5.9666 11.6488C3.94993 12.9448 3.94993 15.0568 5.9666 16.3448C8.25827 17.8168 12.0166 17.8168 14.3083 16.3448C16.3249 15.0488 16.3249 12.9368 14.3083 11.6488C12.0249 10.1848 8.2666 10.1848 5.9666 11.6488Z" stroke="#6F6E6E" stroke-width="1.09" stroke-linecap="round" stroke-linejoin="round"/>
</svg>
