<svg width="80" height="80" viewBox="0 0 80 80" fill="none" xmlns="http://www.w3.org/2000/svg">
<g id="add-photo-alternate">
<path id="Path" fill-rule="evenodd" clip-rule="evenodd" d="M63.3333 23.3337V33.3003C63.3333 33.3003 56.7 33.3337 56.6667 33.3003V23.3337H46.6667C46.6667 23.3337 46.7 16.7003 46.6667 16.667H56.6667V6.66699H63.3333V16.667H73.3333V23.3337H63.3333ZM53.3333 36.667V26.667H43.3333V16.667H16.6667C13 16.667 10 19.667 10 23.3337V63.3337C10 67.0003 13 70.0003 16.6667 70.0003H56.6667C60.3333 70.0003 63.3333 67.0003 63.3333 63.3337V36.667H53.3333ZM26.6667 50.0003L16.6667 63.3337H56.6667L43.3333 46.667L33.3333 60.0003L26.6667 50.0003Z" fill="#D06224"/>
</g>
</svg>
