<svg width="48" height="48" viewBox="0 0 48 48" fill="none" xmlns="http://www.w3.org/2000/svg">
<g id="vuesax/outline/close-circle">
<g id="vuesax/outline/close-circle_2">
<g id="close-circle">
<path id="Vector" d="M24 45.5C12.14 45.5 2.5 35.86 2.5 24C2.5 12.14 12.14 2.5 24 2.5C35.86 2.5 45.5 12.14 45.5 24C45.5 35.86 35.86 45.5 24 45.5ZM24 5.5C13.8 5.5 5.5 13.8 5.5 24C5.5 34.2 13.8 42.5 24 42.5C34.2 42.5 42.5 34.2 42.5 24C42.5 13.8 34.2 5.5 24 5.5Z" fill="#292D32"/>
<path id="Vector_2" d="M18.3402 31.1607C17.9602 31.1607 17.5802 31.0207 17.2802 30.7207C16.7002 30.1407 16.7002 29.1807 17.2802 28.6007L28.6002 17.2807C29.1802 16.7007 30.1402 16.7007 30.7202 17.2807C31.3002 17.8607 31.3002 18.8207 30.7202 19.4007L19.4002 30.7207C19.1202 31.0207 18.7202 31.1607 18.3402 31.1607Z" fill="#292D32"/>
<path id="Vector_3" d="M29.6602 31.1607C29.2802 31.1607 28.9002 31.0207 28.6002 30.7207L17.2802 19.4007C16.7002 18.8207 16.7002 17.8607 17.2802 17.2807C17.8602 16.7007 18.8202 16.7007 19.4002 17.2807L30.7202 28.6007C31.3002 29.1807 31.3002 30.1407 30.7202 30.7207C30.4202 31.0207 30.0402 31.1607 29.6602 31.1607Z" fill="#292D32"/>
</g>
</g>
</g>
</svg>
