<svg width="56" height="56" viewBox="0 0 56 56" fill="none" xmlns="http://www.w3.org/2000/svg">
<g id="Icon / Credit Card">
<path id="Vector" d="M49 11.375H7C6.30381 11.375 5.63613 11.6516 5.14384 12.1438C4.65156 12.6361 4.375 13.3038 4.375 14V42C4.375 42.6962 4.65156 43.3639 5.14384 43.8562C5.63613 44.3484 6.30381 44.625 7 44.625H49C49.6962 44.625 50.3639 44.3484 50.8562 43.8562C51.3484 43.3639 51.625 42.6962 51.625 42V14C51.625 13.3038 51.3484 12.6361 50.8562 12.1438C50.3639 11.6516 49.6962 11.375 49 11.375ZM7 13.125H49C49.2321 13.125 49.4546 13.2172 49.6187 13.3813C49.7828 13.5454 49.875 13.7679 49.875 14V20.3219H6.125V14C6.125 13.7679 6.21719 13.5454 6.38128 13.3813C6.54538 13.2172 6.76794 13.125 7 13.125ZM49 42.875H7C6.76794 42.875 6.54538 42.7828 6.38128 42.6187C6.21719 42.4546 6.125 42.2321 6.125 42V22.0719H49.875V42C49.875 42.2321 49.7828 42.4546 49.6187 42.6187C49.4546 42.7828 49.2321 42.875 49 42.875ZM44.625 36.75C44.625 36.9821 44.5328 37.2046 44.3687 37.3687C44.2046 37.5328 43.9821 37.625 43.75 37.625H36.75C36.5179 37.625 36.2954 37.5328 36.1313 37.3687C35.9672 37.2046 35.875 36.9821 35.875 36.75C35.875 36.5179 35.9672 36.2954 36.1313 36.1313C36.2954 35.9672 36.5179 35.875 36.75 35.875H43.75C43.9821 35.875 44.2046 35.9672 44.3687 36.1313C44.5328 36.2954 44.625 36.5179 44.625 36.75ZM30.625 36.75C30.625 36.9821 30.5328 37.2046 30.3687 37.3687C30.2046 37.5328 29.9821 37.625 29.75 37.625H26.25C26.0179 37.625 25.7954 37.5328 25.6313 37.3687C25.4672 37.2046 25.375 36.9821 25.375 36.75C25.375 36.5179 25.4672 36.2954 25.6313 36.1313C25.7954 35.9672 26.0179 35.875 26.25 35.875H29.75C29.9821 35.875 30.2046 35.9672 30.3687 36.1313C30.5328 36.2954 30.625 36.5179 30.625 36.75Z" fill="#6F6E6E"/>
</g>
</svg>
