<svg width="48" height="48" viewBox="0 0 48 48" fill="none" xmlns="http://www.w3.org/2000/svg">
<g id="Iconly/Light-Outline/Filter">
<g id="Group 10">
<path id="Fill 1" fill-rule="evenodd" clip-rule="evenodd" d="M20.1606 37.1855H7.55859C6.73059 37.1855 6.05859 36.5135 6.05859 35.6855C6.05859 34.8575 6.73059 34.1855 7.55859 34.1855H20.1606C20.9886 34.1855 21.6606 34.8575 21.6606 35.6855C21.6606 36.5135 20.9886 37.1855 20.1606 37.1855Z" fill="#D06224"/>
<path id="Fill 3" fill-rule="evenodd" clip-rule="evenodd" d="M38.3822 17.8008H25.7822C24.9542 17.8008 24.2822 17.1288 24.2822 16.3008C24.2822 15.4728 24.9542 14.8008 25.7822 14.8008H38.3822C39.2102 14.8008 39.8822 15.4728 39.8822 16.3008C39.8822 17.1288 39.2102 17.8008 38.3822 17.8008Z" fill="#D06224"/>
<g id="Group 7">
<mask id="mask0_444_24693" style="mask-type:luminance" maskUnits="userSpaceOnUse" x="6" y="10" width="13" height="13">
<path id="Clip 6" fill-rule="evenodd" clip-rule="evenodd" d="M6 10H18.4516V22.3832H6V10Z" fill="white"/>
</mask>
<g mask="url(#mask0_444_24693)">
<path id="Fill 5" fill-rule="evenodd" clip-rule="evenodd" d="M12.226 13C10.448 13 9 14.432 9 16.194C9 17.954 10.448 19.384 12.226 19.384C14.006 19.384 15.452 17.954 15.452 16.194C15.452 14.432 14.006 13 12.226 13ZM12.226 22.384C8.794 22.384 6 19.608 6 16.194C6 12.78 8.794 10 12.226 10C15.66 10 18.452 12.78 18.452 16.194C18.452 19.608 15.66 22.384 12.226 22.384Z" fill="#D06224"/>
</g>
</g>
<path id="Fill 8" fill-rule="evenodd" clip-rule="evenodd" d="M34.7759 32.416C32.9959 32.416 31.5479 33.848 31.5479 35.608C31.5479 37.37 32.9959 38.8 34.7759 38.8C36.5539 38.8 37.9999 37.37 37.9999 35.608C37.9999 33.848 36.5539 32.416 34.7759 32.416ZM34.7759 41.8C31.3419 41.8 28.5479 39.022 28.5479 35.608C28.5479 32.194 31.3419 29.416 34.7759 29.416C38.2078 29.416 40.9998 32.194 40.9998 35.608C40.9998 39.022 38.2078 41.8 34.7759 41.8Z" fill="#D06224"/>
</g>
</g>
</svg>
