<svg width="56" height="56" viewBox="0 0 56 56" fill="none" xmlns="http://www.w3.org/2000/svg">
<g id="Icon / Globe">
<path id="Vector" d="M54.25 28C54.25 13.503 42.497 1.75 28 1.75C13.8784 1.75 2.36512 12.9027 1.77712 26.88C1.77012 27.0515 1.76837 27.2256 1.76487 27.398C1.7605 27.5993 1.75 27.7987 1.75 28V28.0884C1.75 42.5373 13.503 54.25 28 54.25C42.497 54.25 54.25 42.5373 54.25 28.0884L54.2483 28.0455L54.25 28ZM33.2413 51.9321C32.7819 51.6828 32.3409 51.2741 32.1615 50.7176C31.8369 49.7096 32.088 48.9274 32.4608 48.0174C32.7582 47.2885 32.3584 46.4468 32.5561 45.6838C32.942 44.1989 33.4075 42.5898 33.264 40.9946C33.1747 40.0155 32.9578 39.9709 32.2333 39.4056C31.4694 38.8063 31.4694 37.9584 30.9584 37.2006C30.4955 36.512 31.7415 33.8957 31.3941 33.7365C31.0048 33.5571 30.1193 33.7916 29.8393 33.4198C29.5383 33.019 29.3282 32.5456 28.9144 32.235C28.6475 32.0346 27.4671 31.3644 27.1521 31.4116C25.5658 31.6487 23.8472 30.1018 22.8349 29.0929C22.1375 28.4008 21.847 27.6246 21.336 26.824C20.9038 26.1459 20.2493 26.0872 19.9281 25.2464C19.5912 24.3679 19.7916 23.2426 19.6893 22.3186C19.5781 21.3255 19.0846 21.0088 18.4678 20.2493C17.1483 18.6191 16.6626 16.1866 14.1592 16.1866C12.8144 16.1866 12.9097 19.1161 11.8265 18.7233C10.6015 18.2796 8.70625 20.3779 8.73338 20.0952C8.87687 18.6305 10.381 17.9183 10.528 17.4816C11.0084 16.0484 8.38162 16.3914 8.7185 15.1961C8.883 14.6081 10.5542 14.1803 10.2086 13.8294C10.1045 13.7226 8.82613 12.8258 8.88913 12.7811C9.12625 12.6149 10.157 13.1416 9.933 12.4574C9.85775 12.2299 9.73612 12.0208 9.62063 11.8099C10.1519 11.2066 10.7126 10.6298 11.3006 10.0817C12.1879 10.0091 13.1084 10.0642 13.4418 10.129C15.5557 10.5455 16.2908 11.6156 18.4048 10.8237C19.4215 10.444 23.1691 11.1029 23.7064 12.1686C23.9986 12.7514 25.0871 11.816 25.5115 11.753C25.9665 11.6848 26.9946 12.3856 27.3079 11.956C28.133 10.8264 26.7794 10.3574 28.378 11.2271C29.4499 11.8108 31.5446 9.24438 30.8814 12.2605C30.4028 14.4349 28.644 14.483 27.3542 15.8996C26.0846 17.2944 29.8664 17.6741 29.9635 18.9341C30.2435 22.5619 32.1781 18.6384 31.6601 17.3486C30.6582 14.8505 32.8003 15.5365 33.663 17.1237C34.1416 18.0049 34.5056 17.2629 35.0919 16.9558C35.567 16.7081 35.6939 18.0495 35.7962 18.2831C36.1331 19.0592 37.24 19.2911 37.0527 20.2904C36.8445 21.392 36.0614 21.0613 35.2957 21.2476C34.4409 21.455 35.434 22.1742 35.3097 22.4368C35.175 22.7238 34.1442 22.8428 33.8695 23.0055C33.061 23.4815 33.5554 24.4099 32.9227 24.9086C32.4888 25.2516 32.0513 25.0285 31.9673 25.6707C31.8684 26.4276 30.4736 26.6709 30.6548 27.3945C30.7046 27.5931 31.1063 29.0771 30.8534 29.1559C30.737 29.1935 29.8174 27.8652 29.5662 27.7323C29.0693 27.4689 26.81 27.6841 26.5195 29.1795C26.3314 30.1464 27.8871 31.6732 28.2835 30.3415C28.7744 28.7026 29.008 31.2961 28.8899 31.3976C29.1244 31.6024 30.4964 31.0608 30.0895 32.0101C29.9171 32.4118 30.2584 33.4591 30.8674 33.1362C31.122 33.0015 31.7783 33.4075 31.8929 33.1896C32.0576 32.9387 32.2803 32.731 32.5421 32.5841C33.1555 32.2254 34.0734 32.5622 34.7454 32.6016C35.1558 32.6252 38.5192 34.4601 38.5376 34.8285C38.6111 36.2066 41.1539 36.0272 41.5441 36.5199C42.5933 37.8551 42.2704 37.177 41.5047 38.8876C41.1189 39.7486 41.4549 40.8047 40.5204 41.4286C40.0706 41.7279 39.522 41.5783 39.1221 42.0017C38.7616 42.3841 38.9034 42.8409 38.6846 43.2827C38.4212 43.8086 34.8819 46.9893 34.6483 47.7584C34.5319 48.1443 33.4757 48.4802 34.3665 48.8504C34.8845 49.0026 33.2194 50.5768 34.02 51.2286C34.2151 51.387 34.3429 51.5209 34.4391 51.6408C34.0392 51.7475 33.6429 51.8446 33.2413 51.9321ZM31.1448 3.70738C31.1106 3.83425 31.1623 3.98387 31.3819 4.13C31.8771 4.45812 31.2401 5.187 30.5568 4.71712C29.8751 4.24725 28.3421 4.928 28.448 5.28062C28.5521 5.63325 29.0255 5.77325 29.757 5.49237C30.4867 5.21062 30.7878 5.53437 30.9102 5.86862C30.9942 6.09525 30.9102 6.22125 30.8866 6.52663C30.8647 6.832 30.0151 6.62025 29.309 6.66838C28.6011 6.71562 27.8477 6.52662 27.8696 6.12675C27.8932 5.72775 27.1162 4.99887 26.6525 4.69437C26.1896 4.38987 26.8555 3.73188 27.4697 4.2245C28.0814 4.718 28.1059 4.13087 28.8129 3.94362C29.2145 3.83687 29.0535 3.67675 28.917 3.5245C29.6695 3.55075 30.4115 3.61375 31.1448 3.70738ZM34.2221 11.4677C34.7515 11.6112 35.6711 12.2806 35.6711 12.5974C35.6711 12.915 35.2537 13.3123 35.0691 13.2667C33.7365 12.9421 32.613 11.627 31.9944 10.9069C30.9146 9.65125 30.9829 10.7275 29.2722 10.1841C28.8347 10.0441 28.1409 8.687 28.6003 8.01762C29.0596 7.34825 29.5899 7.24237 30.0134 7.42C30.4369 7.595 31.6741 6.85563 31.9585 7.73675C32.2402 8.61788 33.0181 9.74225 33.726 10.0433C34.4347 10.3425 33.691 11.3243 34.2221 11.4677ZM34.6465 15.5566C34.8582 15.9792 33.3734 15.0631 33.0199 14.6405C32.6681 14.2188 32.1361 13.2659 32.5623 12.8433C32.9858 12.4215 33.936 13.7226 34.4356 14.007C35.4235 14.5714 34.4347 15.1349 34.6465 15.5566ZM27.1268 9.156C27.2291 9.01512 27.4461 9.36775 27.6395 9.72038C27.8329 10.073 27.566 10.57 27.1268 10.4948C26.6875 10.4213 26.8809 9.50075 27.1268 9.156ZM27.1268 5.6105C27.1268 5.6105 27.5406 6.62025 27.1268 6.45575C26.7129 6.29125 26.6928 5.86863 27.1268 5.6105ZM27.2108 8.80425C27.0926 8.52338 27.0655 7.36925 27.3525 7.01925C27.776 6.503 28.4603 7.51275 28 7.91175C27.5406 8.31163 27.328 9.08688 27.2108 8.80425ZM21.8934 10.0424C21.1243 9.98725 21.1076 9.32225 21.0009 8.96963C20.8941 8.617 20.2571 9.639 19.6131 8.96963C18.9691 8.30025 19.7636 7.42 19.6219 6.89062C19.4801 6.36212 21.1409 6.89062 21.3894 6.89062C21.6379 6.89062 22.309 7.98263 22.4849 7.96425C22.6625 7.94675 23.6162 8.82787 23.6162 8.47525C23.6162 8.1235 23.7615 7.52325 24.43 7.45325C25.4555 7.34737 24.5359 8.58112 24.5 9.0615C24.4659 9.54187 25.2796 10.3775 25.578 10.7301C25.879 11.0827 24.8194 11.3304 24.6418 11.1178C24.4659 10.906 24.0056 11.1178 23.6162 11.3995C23.2286 11.6812 22.1672 11.0119 21.6729 10.8001C21.1776 10.5893 22.6625 10.0966 21.8934 10.0424ZM24.6418 4.48263C25.3251 4.718 25.7136 4.92888 26.0496 4.48263C26.3743 4.05213 26.6219 5.4215 26.3865 5.79688C26.1502 6.174 25.7031 6.08038 25.6314 5.79688C25.5614 5.51688 23.9584 4.24725 24.6418 4.48263ZM25.6314 8.73425C25.3969 8.428 25.3732 8.07625 25.6314 7.81813C25.8912 7.56 25.8072 7.25462 26.2692 7.161C26.4967 7.11375 26.5274 7.4655 26.5274 7.7945C26.5274 8.1235 26.8109 8.54612 26.5274 9.0615C26.2447 9.57687 25.8676 9.03875 25.6314 8.73425ZM27.5607 3.51137C27.5502 3.57613 27.5074 3.61462 27.3997 3.60413C27.3257 3.59158 27.2553 3.56322 27.1932 3.521C27.3166 3.51663 27.4374 3.51313 27.5607 3.51137ZM22.2154 4.50625C22.757 4.50625 22.687 4.872 23.135 5.13538C23.583 5.39788 23.3468 3.77737 23.653 4.38812C23.9592 4.998 24.8684 5.84413 24.4309 6.00775C24.0546 6.15038 22.4761 6.75938 22.3344 6.65438C22.1926 6.54938 22.0045 6.10313 21.6265 6.00775C21.2485 5.91412 20.8486 5.02162 20.5888 5.04525C20.4899 5.054 20.4811 4.88425 20.5459 4.6585C21.0003 4.51219 21.459 4.37942 21.9214 4.26038C21.9721 4.39862 22.0491 4.50625 22.2154 4.50625ZM34.0445 30.7781C33.4801 31.3609 32.508 30.3721 31.8369 30.4071C31.1657 30.4421 30.8289 29.7378 30.2461 29.8086C29.6616 29.8778 30.4054 29.0675 31.2183 29.4919C32.0294 29.9145 34.5047 30.3012 34.0445 30.7781ZM45.3582 10.7109C45.1938 10.9209 45.0065 11.0679 44.8271 11.2227C44.2977 11.6813 43.3081 11.6462 43.1664 11.963C43.0246 12.2797 42.6711 13.2659 41.4339 13.2703C40.1966 13.2738 40.5501 15.1349 40.4443 15.666C40.3384 16.1971 40.0566 16.8254 39.7023 16.3669C39.3488 15.9093 39.207 16.0842 38.1133 14.7455C37.0195 13.4067 37.4395 12.6674 37.7939 12.2798C38.1474 11.893 38.2891 10.976 37.7939 11.1169C37.2986 11.2577 37.016 10.9401 37.1219 10.5017C37.2277 10.0634 37.758 9.74313 37.1219 9.275C36.4857 8.80775 36.8384 7.13562 36.344 5.60962C35.8488 4.08275 35.1768 5.16337 34.0812 5.222C32.9858 5.28062 32.8081 4.45812 33.3034 4.08187C37.8732 5.09245 42.0571 7.39317 45.3582 10.7109Z" fill="#6F6E6E"/>
</g>
</svg>
