<svg width="114" height="48" viewBox="0 0 114 48" fill="none" xmlns="http://www.w3.org/2000/svg">
<rect width="114" height="48" rx="24" fill="#FAE0A5"/>
<path d="M78.1702 25.1053C78.071 25.0912 77.9435 25.0912 77.8302 25.1053C75.3368 25.0203 73.3535 22.9803 73.3535 20.4728C73.3535 17.9087 75.4218 15.8262 78.0002 15.8262C80.5643 15.8262 82.6468 17.9087 82.6468 20.4728C82.6327 22.9803 80.6635 25.0203 78.1702 25.1053Z" stroke="#D06224" stroke-width="1.5" stroke-linecap="round" stroke-linejoin="round"/>
<path d="M87.5483 34.4559C85.0267 36.7651 81.6833 38.1676 78 38.1676C74.3167 38.1676 70.9733 36.7651 68.4517 34.4559C68.5933 33.1243 69.4433 31.8209 70.9592 30.8009C74.8408 28.2226 81.1875 28.2226 85.0408 30.8009C86.5567 31.8209 87.4067 33.1243 87.5483 34.4559Z" stroke="#D06224" stroke-width="1.5" stroke-linecap="round" stroke-linejoin="round"/>
<path d="M78.0002 38.1673C85.8242 38.1673 92.1668 31.8247 92.1668 24.0007C92.1668 16.1766 85.8242 9.83398 78.0002 9.83398C70.1761 9.83398 63.8335 16.1766 63.8335 24.0007C63.8335 31.8247 70.1761 38.1673 78.0002 38.1673Z" stroke="#D06224" stroke-width="1.5" stroke-linecap="round" stroke-linejoin="round"/>
<path d="M32.1575 29.8425L25.349 23.034C24.8837 22.5687 24.8837 21.8143 25.349 21.349C25.8143 20.8837 26.5687 20.8837 27.034 21.349L33 27.315L38.966 21.349C39.4313 20.8837 40.1857 20.8837 40.651 21.349C41.1163 21.8143 41.1163 22.5687 40.651 23.034L33.8425 29.8425C33.3772 30.3078 32.6228 30.3078 32.1575 29.8425Z" fill="#D06224"/>
</svg>
