<svg width="114" height="48" viewBox="0 0 114 48" fill="none" xmlns="http://www.w3.org/2000/svg">
<rect width="114" height="48" rx="24" fill="#FAE0A5"/>
<path d="M78.1699 25.1053C78.0708 25.0912 77.9433 25.0912 77.8299 25.1053C75.3366 25.0203 73.3533 22.9803 73.3533 20.4728C73.3533 17.9087 75.4216 15.8262 77.9999 15.8262C80.5641 15.8262 82.6466 17.9087 82.6466 20.4728C82.6324 22.9803 80.6633 25.0203 78.1699 25.1053Z" stroke="#B58520" stroke-width="1.5" stroke-linecap="round" stroke-linejoin="round"/>
<path d="M87.5483 34.4559C85.0267 36.7651 81.6833 38.1676 78 38.1676C74.3167 38.1676 70.9733 36.7651 68.4517 34.4559C68.5933 33.1243 69.4433 31.8209 70.9592 30.8009C74.8408 28.2226 81.1875 28.2226 85.0408 30.8009C86.5567 31.8209 87.4067 33.1243 87.5483 34.4559Z" stroke="#B58520" stroke-width="1.5" stroke-linecap="round" stroke-linejoin="round"/>
<path d="M77.9999 38.1673C85.824 38.1673 92.1666 31.8247 92.1666 24.0007C92.1666 16.1766 85.824 9.83398 77.9999 9.83398C70.1759 9.83398 63.8333 16.1766 63.8333 24.0007C63.8333 31.8247 70.1759 38.1673 77.9999 38.1673Z" stroke="#B58520" stroke-width="1.5" stroke-linecap="round" stroke-linejoin="round"/>
<path d="M32.1575 29.8425L25.349 23.034C24.8837 22.5687 24.8837 21.8143 25.349 21.349C25.8143 20.8837 26.5687 20.8837 27.034 21.349L33 27.315L38.966 21.349C39.4313 20.8837 40.1857 20.8837 40.651 21.349C41.1163 21.8143 41.1163 22.5687 40.651 23.034L33.8425 29.8425C33.3772 30.3078 32.6228 30.3078 32.1575 29.8425Z" fill="#B58520"/>
</svg>
