<svg width="24" height="25" viewBox="0 0 24 25" fill="none" xmlns="http://www.w3.org/2000/svg">
<path d="M17.9184 14.6774C17.6594 14.9284 17.5404 15.2914 17.5994 15.6474L18.4884 20.5674C18.5634 20.9844 18.3874 21.4064 18.0384 21.6474C17.6964 21.8974 17.2414 21.9274 16.8684 21.7274L12.4394 19.4174C12.2854 19.3354 12.1144 19.2914 11.9394 19.2864H11.6684C11.5744 19.3004 11.4824 19.3304 11.3984 19.3764L6.96839 21.6974C6.74939 21.8074 6.50139 21.8464 6.25839 21.8074C5.66639 21.6954 5.27139 21.1314 5.36839 20.5364L6.25839 15.6164C6.31739 15.2574 6.19839 14.8924 5.93939 14.6374L2.32839 11.1374C2.02639 10.8444 1.92139 10.4044 2.05939 10.0074C2.19339 9.61142 2.53539 9.32242 2.94839 9.25742L7.91839 8.53642C8.29639 8.49742 8.62839 8.26742 8.79839 7.92742L10.9884 3.43742C11.0404 3.33742 11.1074 3.24542 11.1884 3.16742L11.2784 3.09742C11.3254 3.04542 11.3794 3.00242 11.4394 2.96742L11.5484 2.92742L11.7184 2.85742H12.1394C12.5154 2.89642 12.8464 3.12142 13.0194 3.45742L15.2384 7.92742C15.3984 8.25442 15.7094 8.48142 16.0684 8.53642L21.0384 9.25742C21.4584 9.31742 21.8094 9.60742 21.9484 10.0074C22.0794 10.4084 21.9664 10.8484 21.6584 11.1374L17.9184 14.6774Z" fill="#130F26"/>
</svg>
