<svg width="24" height="25" viewBox="0 0 24 25" fill="none" xmlns="http://www.w3.org/2000/svg">
<path d="M17.9189 14.7731C17.6599 15.0241 17.5409 15.3871 17.5999 15.7431L18.4889 20.6631C18.5639 21.0801 18.3879 21.5021 18.0389 21.7431C17.6969 21.9931 17.2419 22.0231 16.8689 21.8231L12.4399 19.5131C12.2859 19.4311 12.1149 19.3871 11.9399 19.3821H11.6689C11.5749 19.3961 11.4829 19.4261 11.3989 19.4721L6.96888 21.7931C6.74988 21.9031 6.50188 21.9421 6.25888 21.9031C5.66688 21.7911 5.27188 21.2271 5.36888 20.6321L6.25888 15.7121C6.31788 15.3531 6.19888 14.9881 5.93988 14.7331L2.32888 11.2331C2.02688 10.9401 1.92188 10.5001 2.05988 10.1031C2.19388 9.70713 2.53588 9.41813 2.94888 9.35313L7.91888 8.63212C8.29688 8.59312 8.62888 8.36313 8.79888 8.02313L10.9889 3.53312C11.0409 3.43312 11.1079 3.34113 11.1889 3.26313L11.2789 3.19312C11.3259 3.14112 11.3799 3.09812 11.4399 3.06312L11.5489 3.02313L11.7189 2.95312H12.1399C12.5159 2.99213 12.8469 3.21713 13.0199 3.55313L15.2389 8.02313C15.3989 8.35013 15.7099 8.57713 16.0689 8.63212L21.0389 9.35313C21.4589 9.41313 21.8099 9.70312 21.9489 10.1031C22.0799 10.5041 21.9669 10.9441 21.6589 11.2331L17.9189 14.7731Z" fill="#130F26"/>
</svg>
