<svg width="24" height="25" viewBox="0 0 24 25" fill="none" xmlns="http://www.w3.org/2000/svg">
<path d="M17.9184 14.777C17.6594 15.028 17.5404 15.391 17.5994 15.747L18.4884 20.667C18.5634 21.084 18.3874 21.506 18.0384 21.747C17.6964 21.997 17.2414 22.027 16.8684 21.827L12.4394 19.517C12.2854 19.435 12.1144 19.391 11.9394 19.386H11.6684C11.5744 19.4 11.4824 19.43 11.3984 19.476L6.96839 21.797C6.74939 21.907 6.50139 21.946 6.25839 21.907C5.66639 21.795 5.27139 21.231 5.36839 20.636L6.25839 15.716C6.31739 15.357 6.19839 14.992 5.93939 14.737L2.32839 11.237C2.02639 10.944 1.92139 10.504 2.05939 10.107C2.19339 9.71103 2.53539 9.42203 2.94839 9.35703L7.91839 8.63603C8.29639 8.59703 8.62839 8.36703 8.79839 8.02703L10.9884 3.53703C11.0404 3.43703 11.1074 3.34503 11.1884 3.26703L11.2784 3.19703C11.3254 3.14503 11.3794 3.10203 11.4394 3.06703L11.5484 3.02703L11.7184 2.95703H12.1394C12.5154 2.99603 12.8464 3.22103 13.0194 3.55703L15.2384 8.02703C15.3984 8.35403 15.7094 8.58103 16.0684 8.63603L21.0384 9.35703C21.4584 9.41703 21.8094 9.70703 21.9484 10.107C22.0794 10.508 21.9664 10.948 21.6584 11.237L17.9184 14.777Z" fill="#130F26"/>
</svg>
