<svg width="24" height="25" viewBox="0 0 24 25" fill="none" xmlns="http://www.w3.org/2000/svg">
<path d="M17.9189 14.7721C17.6599 15.0231 17.5409 15.3861 17.5999 15.7421L18.4889 20.6621C18.5639 21.0791 18.3879 21.5012 18.0389 21.7421C17.6969 21.9921 17.2419 22.0222 16.8689 21.8221L12.4399 19.5121C12.2859 19.4301 12.1149 19.3861 11.9399 19.3811H11.6689C11.5749 19.3951 11.4829 19.4251 11.3989 19.4711L6.96888 21.7921C6.74988 21.9021 6.50188 21.9411 6.25888 21.9021C5.66688 21.7901 5.27188 21.2261 5.36888 20.6311L6.25888 15.7111C6.31788 15.3521 6.19888 14.9871 5.93988 14.7321L2.32888 11.2321C2.02688 10.9391 1.92188 10.4991 2.05988 10.1021C2.19388 9.70615 2.53588 9.41715 2.94888 9.35215L7.91888 8.63115C8.29688 8.59215 8.62888 8.36215 8.79888 8.02215L10.9889 3.53215C11.0409 3.43215 11.1079 3.34015 11.1889 3.26215L11.2789 3.19215C11.3259 3.14015 11.3799 3.09715 11.4399 3.06215L11.5489 3.02215L11.7189 2.95215H12.1399C12.5159 2.99115 12.8469 3.21615 13.0199 3.55215L15.2389 8.02215C15.3989 8.34915 15.7099 8.57615 16.0689 8.63115L21.0389 9.35215C21.4589 9.41215 21.8099 9.70215 21.9489 10.1021C22.0799 10.5031 21.9669 10.9431 21.6589 11.2321L17.9189 14.7721Z" fill="#130F26"/>
</svg>
