<svg width="24" height="25" viewBox="0 0 24 25" fill="none" xmlns="http://www.w3.org/2000/svg">
<path d="M17.9184 14.7243C17.6594 14.9753 17.5404 15.3383 17.5994 15.6943L18.4884 20.6143C18.5634 21.0313 18.3874 21.4533 18.0384 21.6943C17.6964 21.9443 17.2414 21.9743 16.8684 21.7743L12.4394 19.4643C12.2854 19.3823 12.1144 19.3383 11.9394 19.3333H11.6684C11.5744 19.3473 11.4824 19.3773 11.3984 19.4233L6.96839 21.7443C6.74939 21.8543 6.50139 21.8933 6.25839 21.8543C5.66639 21.7423 5.27139 21.1783 5.36839 20.5833L6.25839 15.6633C6.31739 15.3043 6.19839 14.9393 5.93939 14.6843L2.32839 11.1843C2.02639 10.8913 1.92139 10.4513 2.05939 10.0543C2.19339 9.6583 2.53539 9.3693 2.94839 9.3043L7.91839 8.5833C8.29639 8.5443 8.62839 8.3143 8.79839 7.9743L10.9884 3.4843C11.0404 3.3843 11.1074 3.2923 11.1884 3.2143L11.2784 3.1443C11.3254 3.0923 11.3794 3.0493 11.4394 3.0143L11.5484 2.9743L11.7184 2.9043H12.1394C12.5154 2.9433 12.8464 3.1683 13.0194 3.5043L15.2384 7.9743C15.3984 8.3013 15.7094 8.5283 16.0684 8.5833L21.0384 9.3043C21.4584 9.3643 21.8094 9.6543 21.9484 10.0543C22.0794 10.4553 21.9664 10.8953 21.6584 11.1843L17.9184 14.7243Z" fill="#130F26"/>
</svg>
