<svg width="80" height="80" viewBox="0 0 80 80" fill="none" xmlns="http://www.w3.org/2000/svg">
<g id="Icon / Mail">
<g id="mail email e-mail letter">
<path id="Vector" d="M70 32.5C69.337 32.5 68.7011 32.7634 68.2322 33.2322C67.7634 33.7011 67.5 34.337 67.5 35V55C67.5 55.663 67.2366 56.2989 66.7678 56.7678C66.2989 57.2366 65.663 57.5 65 57.5H15C14.337 57.5 13.7011 57.2366 13.2322 56.7678C12.7634 56.2989 12.5 55.663 12.5 55V35C12.5 34.337 12.2366 33.7011 11.7678 33.2322C11.2989 32.7634 10.663 32.5 10 32.5C9.33696 32.5 8.70107 32.7634 8.23223 33.2322C7.76339 33.7011 7.5 34.337 7.5 35V55C7.50175 56.9885 8.29308 58.8948 9.7 60.3C11.1052 61.7069 13.0115 62.4982 15 62.5H65C66.9885 62.4982 68.8948 61.7069 70.3 60.3C71.7069 58.8948 72.4983 56.9885 72.5 55V35C72.5 34.337 72.2366 33.7011 71.7678 33.2322C71.2989 32.7634 70.663 32.5 70 32.5Z" fill="black"/>
<path id="Vector_2" d="M38.4998 47C38.9325 47.3246 39.4589 47.5 39.9998 47.5C40.5407 47.5 41.067 47.3246 41.4998 47L71.0248 24.85C71.4854 24.5027 71.8117 24.0067 71.9484 23.4463C72.0851 22.8859 72.0237 22.2954 71.7748 21.775C71.4025 21.0058 70.9039 20.3044 70.2998 19.7C68.8946 18.2931 66.9882 17.5018 64.9998 17.5H14.9998C13.0113 17.5018 11.105 18.2931 9.69978 19.7C9.09567 20.3044 8.5971 21.0058 8.22478 21.775C7.97582 22.2954 7.91449 22.8859 8.05118 23.4463C8.18788 24.0067 8.51418 24.5027 8.97478 24.85L38.4998 47ZM14.9998 22.5H64.9998C65.2317 22.4635 65.4679 22.4635 65.6998 22.5L39.9998 41.875L14.2998 22.5C14.5317 22.4635 14.7679 22.4635 14.9998 22.5Z" fill="black"/>
</g>
</g>
</svg>
