<svg width="24" height="25" viewBox="0 0 24 25" fill="none" xmlns="http://www.w3.org/2000/svg">
<path d="M12.0234 22.6562C11.9773 22.6563 11.9316 22.6472 11.8889 22.6295C11.8462 22.6118 11.8075 22.5859 11.7748 22.5533C11.7422 22.5206 11.7163 22.4819 11.6986 22.4392C11.681 22.3966 11.6719 22.3509 11.6719 22.3047V21.5078C11.6719 21.4146 11.7089 21.3252 11.7748 21.2592C11.8408 21.1933 11.9302 21.1562 12.0234 21.1562C12.1167 21.1562 12.2061 21.1933 12.272 21.2592C12.338 21.3252 12.375 21.4146 12.375 21.5078V22.3047C12.375 22.3509 12.3659 22.3966 12.3482 22.4392C12.3306 22.4819 12.3047 22.5206 12.272 22.5533C12.2394 22.5859 12.2006 22.6118 12.158 22.6295C12.1153 22.6472 12.0696 22.6563 12.0234 22.6562V22.6562Z" fill="#058B48"/>
<path d="M12 22.7754C17.6825 22.7754 22.2891 18.1688 22.2891 12.4863C22.2891 6.80384 17.6825 2.19727 12 2.19727C6.31751 2.19727 1.71094 6.80384 1.71094 12.4863C1.71094 18.1688 6.31751 22.7754 12 22.7754Z" fill="#FDD402"/>
<path d="M4.52344 12.4863C4.52344 7.28095 8.38917 2.97914 13.4062 2.29334C12.9402 2.22948 12.4704 2.19738 12 2.19727C6.3175 2.19727 1.71094 6.80383 1.71094 12.4863C1.71094 18.1688 6.3175 22.7754 12 22.7754C12.4704 22.7753 12.9402 22.7432 13.4062 22.6793C8.38917 21.9935 4.52344 17.6917 4.52344 12.4863Z" fill="#FBBF13"/>
<path d="M17.318 14.473C17.3946 14.4404 17.4785 14.4288 17.5611 14.4394C17.6437 14.4499 17.722 14.4822 17.788 14.533C17.854 14.5838 17.9053 14.6513 17.9366 14.7284C17.9679 14.8056 17.9782 14.8896 17.9663 14.9721C17.769 16.3701 17.0731 17.6497 16.007 18.5752C14.9408 19.5008 13.5761 20.0099 12.1643 20.0089H11.8362C10.424 20.011 9.05874 19.5022 7.99235 18.5765C6.92596 17.6507 6.23042 16.3705 6.0341 14.972C6.02222 14.8896 6.03247 14.8055 6.06379 14.7284C6.09512 14.6513 6.14639 14.5838 6.21235 14.5331C6.27832 14.4823 6.35661 14.4499 6.43919 14.4393C6.52177 14.4288 6.60568 14.4404 6.68232 14.4729C8.3649 15.1863 10.1736 15.5545 12.0012 15.5558H12.0705C13.8741 15.5452 15.6576 15.1772 17.318 14.473V14.473Z" fill="#74563A"/>
<path d="M10.8833 19.5152C9.93594 19.1001 9.1157 18.4411 8.50623 17.6055C7.89677 16.7699 7.5199 15.7875 7.41409 14.7587C7.14753 14.6634 6.90266 14.5666 6.6809 14.4726C6.60428 14.4402 6.52043 14.4288 6.43792 14.4394C6.35542 14.4501 6.27723 14.4825 6.21137 14.5333C6.14551 14.5841 6.09434 14.6515 6.06312 14.7287C6.03189 14.8058 6.02173 14.8898 6.03367 14.9721C6.23083 16.3702 6.92661 17.65 7.99282 18.5756C9.05902 19.5012 10.4238 20.0104 11.8358 20.0092H12.1639C12.3457 20.0092 12.5254 20.0004 12.7029 19.9843C12.075 19.9275 11.4604 19.7691 10.8833 19.5152V19.5152Z" fill="#674B34"/>
<path d="M9 16.2135V20.526C9 21.3216 9.31607 22.0847 9.87868 22.6473C10.4413 23.2099 11.2044 23.526 12 23.526C12.7956 23.526 13.5587 23.2099 14.1213 22.6473C14.6839 22.0847 15 21.3216 15 20.526V16.2135C13.0148 15.869 10.9852 15.869 9 16.2135V16.2135Z" fill="#37B678"/>
<path d="M10.4062 20.526V16.2134C11.1658 16.0818 11.9331 16.0002 12.7033 15.9693C12.5196 15.962 12.332 15.9574 12.1406 15.9556C11.0881 15.9472 10.037 16.0335 9 16.2134V20.526C8.99993 20.9797 9.10282 21.4276 9.30093 21.8359C9.49904 22.2442 9.7872 22.6022 10.1437 22.8829C10.5002 23.1637 10.9158 23.3599 11.3591 23.4568C11.8025 23.5537 12.262 23.5487 12.7031 23.4423C12.0486 23.2843 11.4662 22.9109 11.0496 22.3819C10.633 21.853 10.4064 21.1993 10.4062 20.526V20.526Z" fill="#00A653"/>
<path d="M12.3516 21.8594H11.6953C11.366 21.859 11.0502 21.728 10.8174 21.4951C10.5845 21.2623 10.4535 20.9465 10.4531 20.6172C10.4531 20.5239 10.4902 20.4345 10.5561 20.3686C10.622 20.3027 10.7114 20.2656 10.8047 20.2656C10.8979 20.2656 10.9873 20.3027 11.0533 20.3686C11.1192 20.4345 11.1562 20.5239 11.1562 20.6172C11.1564 20.7601 11.2133 20.8971 11.3143 20.9982C11.4154 21.0992 11.5524 21.1561 11.6953 21.1562H12.3516C12.4945 21.1561 12.6315 21.0992 12.7326 20.9982C12.8336 20.8971 12.8905 20.7601 12.8906 20.6172V20.4297C12.8905 20.2868 12.8336 20.1498 12.7326 20.0487C12.6315 19.9476 12.4945 19.8908 12.3516 19.8906H11.6953C11.366 19.8903 11.0502 19.7593 10.8174 19.5264C10.5845 19.2935 10.4535 18.9778 10.4531 18.6484V18.4609C10.4535 18.1316 10.5845 17.8159 10.8174 17.583C11.0502 17.3501 11.366 17.2191 11.6953 17.2188H12.3516C12.6809 17.2191 12.9966 17.3501 13.2295 17.583C13.4624 17.8159 13.5934 18.1316 13.5938 18.4609C13.5937 18.5542 13.5567 18.6436 13.4908 18.7095C13.4248 18.7755 13.3354 18.8125 13.2422 18.8125C13.1489 18.8125 13.0595 18.7755 12.9936 18.7095C12.9277 18.6436 12.8906 18.5542 12.8906 18.4609C12.8905 18.318 12.8336 18.181 12.7326 18.0799C12.6315 17.9789 12.4945 17.922 12.3516 17.9219H11.6953C11.5524 17.922 11.4154 17.9789 11.3143 18.0799C11.2133 18.181 11.1564 18.318 11.1562 18.4609V18.6484C11.1564 18.7914 11.2133 18.9284 11.3143 19.0294C11.4154 19.1305 11.5524 19.1873 11.6953 19.1875H12.3516C12.6809 19.1879 12.9966 19.3189 13.2295 19.5517C13.4624 19.7846 13.5934 20.1004 13.5938 20.4297V20.6172C13.5934 20.9465 13.4624 21.2623 13.2295 21.4951C12.9966 21.728 12.6809 21.859 12.3516 21.8594V21.8594Z" fill="#058B48"/>
<path d="M12.0234 17.9219C11.9773 17.9219 11.9316 17.9128 11.8889 17.8951C11.8462 17.8775 11.8075 17.8516 11.7748 17.8189C11.7422 17.7863 11.7163 17.7475 11.6986 17.7049C11.681 17.6622 11.6719 17.6165 11.6719 17.5703V16.7734C11.6719 16.6802 11.7089 16.5908 11.7748 16.5248C11.8408 16.4589 11.9302 16.4219 12.0234 16.4219C12.1167 16.4219 12.2061 16.4589 12.272 16.5248C12.338 16.5908 12.375 16.6802 12.375 16.7734V17.5703C12.375 17.6165 12.3659 17.6622 12.3482 17.7049C12.3306 17.7475 12.3047 17.7863 12.272 17.8189C12.2394 17.8516 12.2006 17.8775 12.158 17.8951C12.1153 17.9128 12.0696 17.9219 12.0234 17.9219V17.9219Z" fill="#058B48"/>
<path d="M16.5469 11.5469H15.8906C15.5613 11.5465 15.2455 11.4155 15.0127 11.1826C14.7798 10.9498 14.6488 10.634 14.6484 10.3047C14.6484 10.2114 14.6855 10.122 14.7514 10.0561C14.8173 9.99016 14.9068 9.95312 15 9.95312C15.0932 9.95312 15.1827 9.99016 15.2486 10.0561C15.3145 10.122 15.3516 10.2114 15.3516 10.3047C15.3517 10.4476 15.4086 10.5846 15.5096 10.6857C15.6107 10.7867 15.7477 10.8436 15.8906 10.8438H16.5469C16.6898 10.8436 16.8268 10.7867 16.9279 10.6857C17.0289 10.5846 17.0858 10.4476 17.0859 10.3047V10.1172C17.0858 9.97427 17.0289 9.83725 16.9279 9.7362C16.8268 9.63514 16.6898 9.57829 16.5469 9.57812H15.8906C15.5613 9.57776 15.2455 9.44676 15.0127 9.21389C14.7798 8.98101 14.6488 8.66527 14.6484 8.33594V8.14844C14.6488 7.8191 14.7798 7.50336 15.0127 7.27049C15.2455 7.03761 15.5613 6.90662 15.8906 6.90625H16.5469C16.8762 6.90662 17.192 7.03761 17.4248 7.27049C17.6577 7.50336 17.7887 7.8191 17.7891 8.14844C17.7891 8.24168 17.752 8.3311 17.6861 8.39703C17.6202 8.46296 17.5307 8.5 17.4375 8.5C17.3443 8.5 17.2548 8.46296 17.1889 8.39703C17.123 8.3311 17.0859 8.24168 17.0859 8.14844C17.0858 8.00552 17.0289 7.8685 16.9279 7.76745C16.8268 7.66639 16.6898 7.60954 16.5469 7.60938H15.8906C15.7477 7.60954 15.6107 7.66639 15.5096 7.76745C15.4086 7.8685 15.3517 8.00552 15.3516 8.14844V8.33594C15.3517 8.47885 15.4086 8.61587 15.5096 8.71693C15.6107 8.81799 15.7477 8.87483 15.8906 8.875H16.5469C16.8762 8.87537 17.192 9.00636 17.4248 9.23924C17.6577 9.47211 17.7887 9.78785 17.7891 10.1172V10.3047C17.7887 10.634 17.6577 10.9498 17.4248 11.1826C17.192 11.4155 16.8762 11.5465 16.5469 11.5469Z" fill="#74563A"/>
<path d="M16.2188 7.60938C16.1726 7.60938 16.1269 7.60029 16.0842 7.58262C16.0416 7.56495 16.0028 7.53906 15.9701 7.50641C15.9375 7.47377 15.9116 7.43501 15.8939 7.39235C15.8763 7.3497 15.8672 7.30398 15.8672 7.25781V6.46094C15.8672 6.3677 15.9042 6.27828 15.9702 6.21235C16.0361 6.14641 16.1255 6.10938 16.2188 6.10938C16.312 6.10938 16.4014 6.14641 16.4673 6.21235C16.5333 6.27828 16.5703 6.3677 16.5703 6.46094V7.25781C16.5703 7.30398 16.5612 7.3497 16.5436 7.39235C16.5259 7.43501 16.5 7.47377 16.4674 7.50641C16.4347 7.53906 16.3959 7.56495 16.3533 7.58262C16.3106 7.60029 16.2649 7.60938 16.2188 7.60938V7.60938ZM16.2188 12.3438C16.1726 12.3438 16.1269 12.3347 16.0842 12.317C16.0416 12.2993 16.0028 12.2734 15.9701 12.2408C15.9375 12.2081 15.9116 12.1694 15.8939 12.1267C15.8763 12.0841 15.8672 12.0384 15.8672 11.9922V11.1953C15.8672 11.1021 15.9042 11.0127 15.9702 10.9467C16.0361 10.8808 16.1255 10.8438 16.2188 10.8438C16.312 10.8438 16.4014 10.8808 16.4673 10.9467C16.5333 11.0127 16.5703 11.1021 16.5703 11.1953V11.9922C16.5703 12.0384 16.5612 12.0841 16.5436 12.1267C16.5259 12.1694 16.5 12.2081 16.4674 12.2408C16.4347 12.2734 16.3959 12.2993 16.3533 12.317C16.3106 12.3347 16.2649 12.3438 16.2188 12.3438V12.3438ZM8.10938 11.5469H7.45312C7.12379 11.5465 6.80805 11.4155 6.57517 11.1826C6.3423 10.9498 6.21131 10.634 6.21094 10.3047C6.21094 10.2114 6.24798 10.122 6.31391 10.0561C6.37984 9.99016 6.46926 9.95313 6.5625 9.95313C6.65574 9.95313 6.74516 9.99016 6.81109 10.0561C6.87702 10.122 6.91406 10.2114 6.91406 10.3047C6.91423 10.4476 6.97108 10.5846 7.07213 10.6857C7.17319 10.7867 7.31021 10.8436 7.45312 10.8438H8.10938C8.25229 10.8436 8.38931 10.7867 8.49037 10.6857C8.59142 10.5846 8.64827 10.4476 8.64844 10.3047V10.1172C8.64827 9.97427 8.59142 9.83725 8.49037 9.7362C8.38931 9.63514 8.25229 9.57829 8.10938 9.57813H7.45312C7.12379 9.57776 6.80805 9.44676 6.57517 9.21389C6.3423 8.98101 6.21131 8.66527 6.21094 8.33594V8.14844C6.21131 7.8191 6.3423 7.50336 6.57517 7.27049C6.80805 7.03761 7.12379 6.90662 7.45312 6.90625H8.10938C8.43871 6.90662 8.75445 7.03761 8.98733 7.27049C9.2202 7.50336 9.35119 7.8191 9.35156 8.14844C9.35156 8.24168 9.31452 8.3311 9.24859 8.39703C9.18266 8.46296 9.09324 8.5 9 8.5C8.90676 8.5 8.81734 8.46296 8.75141 8.39703C8.68548 8.3311 8.64844 8.24168 8.64844 8.14844C8.64827 8.00552 8.59142 7.8685 8.49037 7.76745C8.38931 7.66639 8.25229 7.60954 8.10938 7.60938H7.45312C7.31021 7.60954 7.17319 7.66639 7.07213 7.76745C6.97108 7.8685 6.91423 8.00552 6.91406 8.14844V8.33594C6.91423 8.47886 6.97108 8.61587 7.07213 8.71693C7.17319 8.81799 7.31021 8.87483 7.45312 8.875H8.10938C8.43871 8.87537 8.75445 9.00636 8.98733 9.23924C9.2202 9.47211 9.35119 9.78785 9.35156 10.1172V10.3047C9.35119 10.634 9.2202 10.9498 8.98733 11.1826C8.75445 11.4155 8.43871 11.5465 8.10938 11.5469V11.5469Z" fill="#74563A"/>
<path d="M7.78125 7.60938C7.73508 7.60938 7.68936 7.60029 7.64671 7.58262C7.60405 7.56495 7.5653 7.53906 7.53265 7.50641C7.5 7.47377 7.47411 7.43501 7.45644 7.39235C7.43878 7.3497 7.42968 7.30398 7.42969 7.25781V6.46094C7.42969 6.3677 7.46673 6.27828 7.53266 6.21235C7.59859 6.14641 7.68801 6.10938 7.78125 6.10938C7.87449 6.10938 7.96391 6.14641 8.02984 6.21235C8.09577 6.27828 8.13281 6.3677 8.13281 6.46094V7.25781C8.13282 7.30398 8.12372 7.3497 8.10606 7.39235C8.08839 7.43501 8.0625 7.47377 8.02985 7.50641C7.9972 7.53906 7.95845 7.56495 7.91579 7.58262C7.87314 7.60029 7.82742 7.60938 7.78125 7.60938ZM7.78125 12.3438C7.73508 12.3438 7.68936 12.3347 7.64671 12.317C7.60405 12.2993 7.5653 12.2734 7.53265 12.2408C7.5 12.2081 7.47411 12.1694 7.45644 12.1267C7.43878 12.0841 7.42968 12.0384 7.42969 11.9922V11.1953C7.42969 11.1021 7.46673 11.0127 7.53266 10.9467C7.59859 10.8808 7.68801 10.8438 7.78125 10.8438C7.87449 10.8438 7.96391 10.8808 8.02984 10.9467C8.09577 11.0127 8.13281 11.1021 8.13281 11.1953V11.9922C8.13282 12.0384 8.12372 12.0841 8.10606 12.1267C8.08839 12.1694 8.0625 12.2081 8.02985 12.2408C7.9972 12.2734 7.95845 12.2993 7.91579 12.317C7.87314 12.3347 7.82742 12.3438 7.78125 12.3438Z" fill="#74563A"/>
</svg>
