<svg width="24" height="25" viewBox="0 0 24 25" fill="none" xmlns="http://www.w3.org/2000/svg">
<path d="M12.0234 22.752C11.9773 22.752 11.9316 22.7429 11.8889 22.7252C11.8462 22.7075 11.8075 22.6816 11.7748 22.649C11.7422 22.6163 11.7163 22.5776 11.6986 22.5349C11.681 22.4923 11.6719 22.4466 11.6719 22.4004V21.6035C11.6719 21.5103 11.7089 21.4209 11.7748 21.3549C11.8408 21.289 11.9302 21.252 12.0234 21.252C12.1167 21.252 12.2061 21.289 12.272 21.3549C12.338 21.4209 12.375 21.5103 12.375 21.6035V22.4004C12.375 22.4466 12.3659 22.4923 12.3482 22.5349C12.3306 22.5776 12.3047 22.6163 12.272 22.649C12.2394 22.6816 12.2006 22.7075 12.158 22.7252C12.1153 22.7429 12.0696 22.752 12.0234 22.752V22.752Z" fill="#058B48"/>
<path d="M12 22.8711C17.6825 22.8711 22.2891 18.2645 22.2891 12.582C22.2891 6.89954 17.6825 2.29297 12 2.29297C6.31751 2.29297 1.71094 6.89954 1.71094 12.582C1.71094 18.2645 6.31751 22.8711 12 22.8711Z" fill="#FDD402"/>
<path d="M4.52344 12.582C4.52344 7.37665 8.38917 3.07484 13.4062 2.38904C12.9402 2.32518 12.4704 2.29308 12 2.29297C6.3175 2.29297 1.71094 6.89954 1.71094 12.582C1.71094 18.2645 6.3175 22.8711 12 22.8711C12.4704 22.871 12.9402 22.8389 13.4062 22.775C8.38917 22.0892 4.52344 17.7874 4.52344 12.582Z" fill="#FBBF13"/>
<path d="M17.318 14.5687C17.3946 14.5361 17.4785 14.5245 17.5611 14.5351C17.6437 14.5456 17.722 14.578 17.788 14.6287C17.854 14.6795 17.9053 14.747 17.9366 14.8241C17.9679 14.9013 17.9782 14.9853 17.9663 15.0678C17.769 16.4658 17.0731 17.7454 16.007 18.6709C14.9408 19.5965 13.5761 20.1056 12.1643 20.1046H11.8362C10.424 20.1067 9.05874 19.5979 7.99235 18.6722C6.92596 17.7464 6.23042 16.4662 6.0341 15.0677C6.02222 14.9853 6.03247 14.9013 6.06379 14.8241C6.09512 14.747 6.14639 14.6795 6.21235 14.6288C6.27832 14.578 6.35661 14.5456 6.43919 14.535C6.52177 14.5245 6.60568 14.5361 6.68232 14.5686C8.3649 15.282 10.1736 15.6502 12.0012 15.6515H12.0705C13.8741 15.6409 15.6576 15.2729 17.318 14.5687V14.5687Z" fill="#74563A"/>
<path d="M10.8833 19.6109C9.93594 19.1958 9.1157 18.5368 8.50623 17.7012C7.89677 16.8656 7.5199 15.8832 7.41409 14.8544C7.14753 14.7591 6.90266 14.6623 6.6809 14.5683C6.60428 14.5359 6.52043 14.5245 6.43792 14.5351C6.35542 14.5458 6.27723 14.5782 6.21137 14.629C6.14551 14.6798 6.09434 14.7472 6.06312 14.8244C6.03189 14.9015 6.02173 14.9855 6.03367 15.0678C6.23083 16.4659 6.92661 17.7457 7.99282 18.6713C9.05902 19.5969 10.4238 20.1061 11.8358 20.1049H12.1639C12.3457 20.1049 12.5254 20.0962 12.7029 20.08C12.075 20.0232 11.4604 19.8648 10.8833 19.6109V19.6109Z" fill="#674B34"/>
<path d="M9 16.3092V20.6217C9 21.4173 9.31607 22.1804 9.87868 22.743C10.4413 23.3056 11.2044 23.6217 12 23.6217C12.7956 23.6217 13.5587 23.3056 14.1213 22.743C14.6839 22.1804 15 21.4173 15 20.6217V16.3092C13.0148 15.9647 10.9852 15.9647 9 16.3092V16.3092Z" fill="#37B678"/>
<path d="M10.4062 20.6217V16.3092C11.1658 16.1775 11.9331 16.0959 12.7033 16.065C12.5196 16.0577 12.332 16.0531 12.1406 16.0513C11.0881 16.0429 10.037 16.1292 9 16.3092V20.6217C8.99993 21.0755 9.10282 21.5233 9.30093 21.9316C9.49904 22.3399 9.7872 22.6979 10.1437 22.9786C10.5002 23.2594 10.9158 23.4556 11.3591 23.5525C11.8025 23.6494 12.262 23.6444 12.7031 23.538C12.0486 23.3801 11.4662 23.0066 11.0496 22.4776C10.633 21.9487 10.4064 21.295 10.4062 20.6217V20.6217Z" fill="#00A653"/>
<path d="M12.3516 21.9551H11.6953C11.366 21.9547 11.0502 21.8237 10.8174 21.5908C10.5845 21.358 10.4535 21.0422 10.4531 20.7129C10.4531 20.6197 10.4902 20.5302 10.5561 20.4643C10.622 20.3984 10.7114 20.3613 10.8047 20.3613C10.8979 20.3613 10.9873 20.3984 11.0533 20.4643C11.1192 20.5302 11.1562 20.6197 11.1562 20.7129C11.1564 20.8558 11.2133 20.9928 11.3143 21.0939C11.4154 21.1949 11.5524 21.2518 11.6953 21.252H12.3516C12.4945 21.2518 12.6315 21.1949 12.7326 21.0939C12.8336 20.9928 12.8905 20.8558 12.8906 20.7129V20.5254C12.8905 20.3825 12.8336 20.2455 12.7326 20.1444C12.6315 20.0433 12.4945 19.9865 12.3516 19.9863H11.6953C11.366 19.986 11.0502 19.855 10.8174 19.6221C10.5845 19.3892 10.4535 19.0735 10.4531 18.7441V18.5566C10.4535 18.2273 10.5845 17.9116 10.8174 17.6787C11.0502 17.4458 11.366 17.3148 11.6953 17.3145H12.3516C12.6809 17.3148 12.9966 17.4458 13.2295 17.6787C13.4624 17.9116 13.5934 18.2273 13.5938 18.5566C13.5937 18.6499 13.5567 18.7393 13.4908 18.8052C13.4248 18.8712 13.3354 18.9082 13.2422 18.9082C13.1489 18.9082 13.0595 18.8712 12.9936 18.8052C12.9277 18.7393 12.8906 18.6499 12.8906 18.5566C12.8905 18.4137 12.8336 18.2767 12.7326 18.1756C12.6315 18.0746 12.4945 18.0177 12.3516 18.0176H11.6953C11.5524 18.0177 11.4154 18.0746 11.3143 18.1756C11.2133 18.2767 11.1564 18.4137 11.1562 18.5566V18.7441C11.1564 18.8871 11.2133 19.0241 11.3143 19.1251C11.4154 19.2262 11.5524 19.283 11.6953 19.2832H12.3516C12.6809 19.2836 12.9966 19.4146 13.2295 19.6474C13.4624 19.8803 13.5934 20.1961 13.5938 20.5254V20.7129C13.5934 21.0422 13.4624 21.358 13.2295 21.5908C12.9966 21.8237 12.6809 21.9547 12.3516 21.9551V21.9551Z" fill="#058B48"/>
<path d="M12.0234 18.0176C11.9773 18.0176 11.9316 18.0085 11.8889 17.9908C11.8462 17.9732 11.8075 17.9473 11.7748 17.9146C11.7422 17.882 11.7163 17.8432 11.6986 17.8006C11.681 17.7579 11.6719 17.7122 11.6719 17.666V16.8691C11.6719 16.7759 11.7089 16.6865 11.7748 16.6205C11.8408 16.5546 11.9302 16.5176 12.0234 16.5176C12.1167 16.5176 12.2061 16.5546 12.272 16.6205C12.338 16.6865 12.375 16.7759 12.375 16.8691V17.666C12.375 17.7122 12.3659 17.7579 12.3482 17.8006C12.3306 17.8432 12.3047 17.882 12.272 17.9146C12.2394 17.9473 12.2006 17.9732 12.158 17.9908C12.1153 18.0085 12.0696 18.0176 12.0234 18.0176V18.0176Z" fill="#058B48"/>
<path d="M16.5469 11.6426H15.8906C15.5613 11.6422 15.2455 11.5112 15.0127 11.2783C14.7798 11.0455 14.6488 10.7297 14.6484 10.4004C14.6484 10.3072 14.6855 10.2177 14.7514 10.1518C14.8173 10.0859 14.9068 10.0488 15 10.0488C15.0932 10.0488 15.1827 10.0859 15.2486 10.1518C15.3145 10.2177 15.3516 10.3072 15.3516 10.4004C15.3517 10.5433 15.4086 10.6803 15.5096 10.7814C15.6107 10.8824 15.7477 10.9393 15.8906 10.9395H16.5469C16.6898 10.9393 16.8268 10.8824 16.9279 10.7814C17.0289 10.6803 17.0858 10.5433 17.0859 10.4004V10.2129C17.0858 10.07 17.0289 9.93296 16.9279 9.8319C16.8268 9.73084 16.6898 9.67399 16.5469 9.67383H15.8906C15.5613 9.67346 15.2455 9.54247 15.0127 9.30959C14.7798 9.07672 14.6488 8.76098 14.6484 8.43164V8.24414C14.6488 7.91481 14.7798 7.59907 15.0127 7.36619C15.2455 7.13331 15.5613 7.00232 15.8906 7.00195H16.5469C16.8762 7.00232 17.192 7.13331 17.4248 7.36619C17.6577 7.59907 17.7887 7.91481 17.7891 8.24414C17.7891 8.33738 17.752 8.4268 17.6861 8.49273C17.6202 8.55866 17.5307 8.5957 17.4375 8.5957C17.3443 8.5957 17.2548 8.55866 17.1889 8.49273C17.123 8.4268 17.0859 8.33738 17.0859 8.24414C17.0858 8.10122 17.0289 7.96421 16.9279 7.86315C16.8268 7.76209 16.6898 7.70524 16.5469 7.70508H15.8906C15.7477 7.70524 15.6107 7.76209 15.5096 7.86315C15.4086 7.96421 15.3517 8.10122 15.3516 8.24414V8.43164C15.3517 8.57456 15.4086 8.71157 15.5096 8.81263C15.6107 8.91369 15.7477 8.97054 15.8906 8.9707H16.5469C16.8762 8.97107 17.192 9.10206 17.4248 9.33494C17.6577 9.56782 17.7887 9.88356 17.7891 10.2129V10.4004C17.7887 10.7297 17.6577 11.0455 17.4248 11.2783C17.192 11.5112 16.8762 11.6422 16.5469 11.6426Z" fill="#74563A"/>
<path d="M16.2188 7.70508C16.1726 7.70508 16.1269 7.69599 16.0842 7.67832C16.0416 7.66066 16.0028 7.63476 15.9701 7.60212C15.9375 7.56947 15.9116 7.53071 15.8939 7.48806C15.8763 7.4454 15.8672 7.39968 15.8672 7.35352V6.55664C15.8672 6.4634 15.9042 6.37398 15.9702 6.30805C16.0361 6.24212 16.1255 6.20508 16.2188 6.20508C16.312 6.20508 16.4014 6.24212 16.4673 6.30805C16.5333 6.37398 16.5703 6.4634 16.5703 6.55664V7.35352C16.5703 7.39968 16.5612 7.4454 16.5436 7.48806C16.5259 7.53071 16.5 7.56947 16.4674 7.60212C16.4347 7.63476 16.3959 7.66066 16.3533 7.67832C16.3106 7.69599 16.2649 7.70508 16.2188 7.70508V7.70508ZM16.2188 12.4395C16.1726 12.4395 16.1269 12.4304 16.0842 12.4127C16.0416 12.395 16.0028 12.3691 15.9701 12.3365C15.9375 12.3038 15.9116 12.2651 15.8939 12.2224C15.8763 12.1798 15.8672 12.1341 15.8672 12.0879V11.291C15.8672 11.1978 15.9042 11.1084 15.9702 11.0424C16.0361 10.9765 16.1255 10.9395 16.2188 10.9395C16.312 10.9395 16.4014 10.9765 16.4673 11.0424C16.5333 11.1084 16.5703 11.1978 16.5703 11.291V12.0879C16.5703 12.1341 16.5612 12.1798 16.5436 12.2224C16.5259 12.2651 16.5 12.3038 16.4674 12.3365C16.4347 12.3691 16.3959 12.395 16.3533 12.4127C16.3106 12.4304 16.2649 12.4395 16.2188 12.4395V12.4395ZM8.10938 11.6426H7.45312C7.12379 11.6422 6.80805 11.5112 6.57517 11.2783C6.3423 11.0455 6.21131 10.7297 6.21094 10.4004C6.21094 10.3072 6.24798 10.2177 6.31391 10.1518C6.37984 10.0859 6.46926 10.0488 6.5625 10.0488C6.65574 10.0488 6.74516 10.0859 6.81109 10.1518C6.87702 10.2177 6.91406 10.3072 6.91406 10.4004C6.91423 10.5433 6.97108 10.6803 7.07213 10.7814C7.17319 10.8824 7.31021 10.9393 7.45312 10.9395H8.10938C8.25229 10.9393 8.38931 10.8824 8.49037 10.7814C8.59142 10.6803 8.64827 10.5433 8.64844 10.4004V10.2129C8.64827 10.07 8.59142 9.93296 8.49037 9.8319C8.38931 9.73084 8.25229 9.67399 8.10938 9.67383H7.45312C7.12379 9.67346 6.80805 9.54247 6.57517 9.30959C6.3423 9.07672 6.21131 8.76098 6.21094 8.43164V8.24414C6.21131 7.91481 6.3423 7.59907 6.57517 7.36619C6.80805 7.13332 7.12379 7.00232 7.45312 7.00195H8.10938C8.43871 7.00232 8.75445 7.13332 8.98733 7.36619C9.2202 7.59907 9.35119 7.91481 9.35156 8.24414C9.35156 8.33738 9.31452 8.4268 9.24859 8.49273C9.18266 8.55866 9.09324 8.5957 9 8.5957C8.90676 8.5957 8.81734 8.55866 8.75141 8.49273C8.68548 8.4268 8.64844 8.33738 8.64844 8.24414C8.64827 8.10122 8.59142 7.96421 8.49037 7.86315C8.38931 7.76209 8.25229 7.70524 8.10938 7.70508H7.45312C7.31021 7.70524 7.17319 7.76209 7.07213 7.86315C6.97108 7.96421 6.91423 8.10122 6.91406 8.24414V8.43164C6.91423 8.57456 6.97108 8.71157 7.07213 8.81263C7.17319 8.91369 7.31021 8.97054 7.45312 8.9707H8.10938C8.43871 8.97107 8.75445 9.10207 8.98733 9.33494C9.2202 9.56782 9.35119 9.88356 9.35156 10.2129V10.4004C9.35119 10.7297 9.2202 11.0455 8.98733 11.2783C8.75445 11.5112 8.43871 11.6422 8.10938 11.6426V11.6426Z" fill="#74563A"/>
<path d="M7.78125 7.70508C7.73508 7.70508 7.68936 7.69599 7.64671 7.67832C7.60405 7.66066 7.5653 7.63476 7.53265 7.60212C7.5 7.56947 7.47411 7.53071 7.45644 7.48806C7.43878 7.4454 7.42968 7.39968 7.42969 7.35352V6.55664C7.42969 6.4634 7.46673 6.37398 7.53266 6.30805C7.59859 6.24212 7.68801 6.20508 7.78125 6.20508C7.87449 6.20508 7.96391 6.24212 8.02984 6.30805C8.09577 6.37398 8.13281 6.4634 8.13281 6.55664V7.35352C8.13282 7.39968 8.12372 7.4454 8.10606 7.48806C8.08839 7.53071 8.0625 7.56947 8.02985 7.60212C7.9972 7.63476 7.95845 7.66066 7.91579 7.67832C7.87314 7.69599 7.82742 7.70508 7.78125 7.70508ZM7.78125 12.4395C7.73508 12.4395 7.68936 12.4304 7.64671 12.4127C7.60405 12.395 7.5653 12.3691 7.53265 12.3365C7.5 12.3038 7.47411 12.2651 7.45644 12.2224C7.43878 12.1798 7.42968 12.1341 7.42969 12.0879V11.291C7.42969 11.1978 7.46673 11.1084 7.53266 11.0424C7.59859 10.9765 7.68801 10.9395 7.78125 10.9395C7.87449 10.9395 7.96391 10.9765 8.02984 11.0424C8.09577 11.1084 8.13281 11.1978 8.13281 11.291V12.0879C8.13282 12.1341 8.12372 12.1798 8.10606 12.2224C8.08839 12.2651 8.0625 12.3038 8.02985 12.3365C7.9972 12.3691 7.95845 12.395 7.91579 12.4127C7.87314 12.4304 7.82742 12.4395 7.78125 12.4395Z" fill="#74563A"/>
</svg>
