<svg xmlns="http://www.w3.org/2000/svg" data-name="Layer 1" viewBox="0 0 512 512" id="money-mouth-face"><circle cx="256" cy="248" r="219.5" fill="#fdd402"></circle><path fill="#74563a" d="M384.5,283.5a124.90978,124.90978,0,0,1-125,125h-7a124.84973,124.84973,0,0,1-125-125,291.23618,291.23618,0,0,0,128.52,30h1.48A291.16582,291.16582,0,0,0,384.5,283.5Z"></path><path fill="#37b678" d="M192,338.1362v85.72748C192,456.79983,220.65381,483.5,256,483.5s64-26.70017,64-59.63632V338.1362a401.30465,401.30465,0,0,0-128,0Z"></path><path fill="#2c2b2d" d="M416.51465,87.48535a227.006,227.006,0,0,0-336.749,303.60352,227.82257,227.82257,0,0,0,124.84765,78.05151,71.32873,71.32873,0,0,0,102.77344,0A227.04379,227.04379,0,0,0,483,248,225.51427,225.51427,0,0,0,416.51465,87.48535ZM312.5,337.5v82a56.5,56.5,0,0,1-113,0V392.99719c.00024-.01391,0-.02771,0-.04162V337.5a7.5,7.5,0,0,0-15,0v41.81592a117.03491,117.03491,0,0,1-48.88672-83.74951A299.63912,299.63912,0,0,0,256.01953,321h1.51953a299.80441,299.80441,0,0,0,118.84668-25.43555A117.49444,117.49444,0,0,1,327.5,379.32422V337.5a7.5,7.5,0,0,0-15,0Zm8.18262,112.4314A71.059,71.059,0,0,0,327.5,419.5V397.23962A132.27516,132.27516,0,0,0,392,283.5a7.49986,7.49986,0,0,0-10.81836-6.72559A284.528,284.528,0,0,1,257.5,306h-1.48047a284.51988,284.51988,0,0,1-125.19922-29.22559A7.50042,7.50042,0,0,0,120,283.5a132.22863,132.22863,0,0,0,64.5,113.73047V419.5a71.059,71.059,0,0,0,6.81738,30.4314C104.90332,422.17749,44,340.16821,44,248,44,131.10254,139.10254,36,256,36s212,95.10254,212,212C468,340.16833,407.09668,422.17749,320.68262,449.9314ZM249.5,363.95605h14a11.51341,11.51341,0,0,1,11.5,11.5,7.5,7.5,0,0,0,15,0,26.52546,26.52546,0,0,0-26-26.4873v-9.5127a7.5,7.5,0,0,0-15,0v9.5127a26.52563,26.52563,0,0,0-26,26.4873v4a26.52981,26.52981,0,0,0,26.5,26.5h14a11.51341,11.51341,0,0,1,11.5,11.5v4a11.51341,11.51341,0,0,1-11.5,11.5h-14a11.51341,11.51341,0,0,1-11.5-11.5,7.5,7.5,0,0,0-15,0,26.52565,26.52565,0,0,0,26,26.48731v9.51269a7.5,7.5,0,0,0,15,0v-9.51269a26.52548,26.52548,0,0,0,26-26.48731v-4a26.52982,26.52982,0,0,0-26.5-26.5h-14a11.51341,11.51341,0,0,1-11.5-11.5v-4A11.51341,11.51341,0,0,1,249.5,363.95605Zm89.5-220h14a11.51341,11.51341,0,0,1,11.5,11.5,7.5,7.5,0,0,0,15,0,26.52546,26.52546,0,0,0-26-26.4873v-9.5127a7.5,7.5,0,0,0-15,0v9.5127a26.52546,26.52546,0,0,0-26,26.4873v4a26.52981,26.52981,0,0,0,26.5,26.5h14a11.51341,11.51341,0,0,1,11.5,11.5v4a11.51341,11.51341,0,0,1-11.5,11.5H339a11.51341,11.51341,0,0,1-11.5-11.5,7.5,7.5,0,0,0-15,0,26.52548,26.52548,0,0,0,26,26.48731v9.51269a7.5,7.5,0,0,0,15,0v-9.51269a26.52548,26.52548,0,0,0,26-26.48731v-4a26.52982,26.52982,0,0,0-26.5-26.5H339a11.51341,11.51341,0,0,1-11.5-11.5v-4A11.51341,11.51341,0,0,1,339,143.95605Zm-180,0h14a11.51341,11.51341,0,0,1,11.5,11.5,7.5,7.5,0,0,0,15,0,26.52563,26.52563,0,0,0-26-26.4873v-9.5127a7.5,7.5,0,0,0-15,0v9.5127a26.52563,26.52563,0,0,0-26,26.4873v4a26.52981,26.52981,0,0,0,26.5,26.5h14a11.51341,11.51341,0,0,1,11.5,11.5v4a11.51341,11.51341,0,0,1-11.5,11.5H159a11.51341,11.51341,0,0,1-11.5-11.5,7.5,7.5,0,0,0-15,0,26.52565,26.52565,0,0,0,26,26.48731v9.51269a7.5,7.5,0,0,0,15,0v-9.51269a26.52565,26.52565,0,0,0,26-26.48731v-4a26.52982,26.52982,0,0,0-26.5-26.5H159a11.51341,11.51341,0,0,1-11.5-11.5v-4A11.51341,11.51341,0,0,1,159,143.95605Z"></path></svg>