<svg width="24" height="25" viewBox="0 0 24 25" fill="none" xmlns="http://www.w3.org/2000/svg">
<path d="M12.0234 22.7012C11.9773 22.7012 11.9316 22.6921 11.8889 22.6744C11.8462 22.6568 11.8075 22.6309 11.7748 22.5982C11.7422 22.5656 11.7163 22.5268 11.6986 22.4842C11.681 22.4415 11.6719 22.3958 11.6719 22.3496V21.5527C11.6719 21.4595 11.7089 21.3701 11.7748 21.3041C11.8408 21.2382 11.9302 21.2012 12.0234 21.2012C12.1167 21.2012 12.2061 21.2382 12.272 21.3041C12.338 21.3701 12.375 21.4595 12.375 21.5527V22.3496C12.375 22.3958 12.3659 22.4415 12.3482 22.4842C12.3306 22.5268 12.3047 22.5656 12.272 22.5982C12.2394 22.6309 12.2006 22.6568 12.158 22.6744C12.1153 22.6921 12.0696 22.7012 12.0234 22.7012V22.7012Z" fill="#058B48"/>
<path d="M12 22.8203C17.6825 22.8203 22.2891 18.2137 22.2891 12.5312C22.2891 6.84876 17.6825 2.24219 12 2.24219C6.31751 2.24219 1.71094 6.84876 1.71094 12.5312C1.71094 18.2137 6.31751 22.8203 12 22.8203Z" fill="#FDD402"/>
<path d="M4.52344 12.5312C4.52344 7.32587 8.38917 3.02406 13.4062 2.33826C12.9402 2.2744 12.4704 2.2423 12 2.24219C6.3175 2.24219 1.71094 6.84875 1.71094 12.5312C1.71094 18.2137 6.3175 22.8203 12 22.8203C12.4704 22.8202 12.9402 22.7881 13.4062 22.7242C8.38917 22.0384 4.52344 17.7366 4.52344 12.5312Z" fill="#FBBF13"/>
<path d="M17.318 14.5179C17.3946 14.4853 17.4785 14.4737 17.5611 14.4843C17.6437 14.4948 17.722 14.5272 17.788 14.578C17.854 14.6288 17.9053 14.6962 17.9366 14.7733C17.9679 14.8505 17.9782 14.9346 17.9663 15.017C17.769 16.415 17.0731 17.6946 16.007 18.6202C14.9408 19.5457 13.5761 20.0549 12.1643 20.0539H11.8362C10.424 20.0559 9.05874 19.5472 7.99235 18.6214C6.92596 17.6957 6.23042 16.4154 6.0341 15.017C6.02222 14.9346 6.03247 14.8505 6.06379 14.7733C6.09512 14.6962 6.14639 14.6288 6.21235 14.578C6.27832 14.5272 6.35661 14.4948 6.43919 14.4843C6.52177 14.4737 6.60568 14.4853 6.68232 14.5178C8.3649 15.2312 10.1736 15.5995 12.0012 15.6007H12.0705C13.8741 15.5901 15.6576 15.2221 17.318 14.5179V14.5179Z" fill="#74563A"/>
<path d="M10.8837 19.5601C9.93643 19.145 9.11619 18.486 8.50672 17.6504C7.89726 16.8148 7.52039 15.8325 7.41458 14.8036C7.14802 14.7084 6.90315 14.6116 6.68139 14.5176C6.60477 14.4851 6.52092 14.4737 6.43841 14.4843C6.3559 14.495 6.27772 14.5274 6.21185 14.5782C6.14599 14.629 6.09483 14.6965 6.0636 14.7736C6.03238 14.8507 6.02222 14.9347 6.03415 15.017C6.23132 16.4151 6.9271 17.6949 7.9933 18.6205C9.05951 19.5462 10.4243 20.0553 11.8362 20.0541H12.1644C12.3462 20.0541 12.5258 20.0454 12.7034 20.0292C12.0754 19.9724 11.4609 19.814 10.8837 19.5601V19.5601Z" fill="#674B34"/>
<path d="M9 16.2584V20.5709C9 21.3665 9.31607 22.1296 9.87868 22.6922C10.4413 23.2548 11.2044 23.5709 12 23.5709C12.7956 23.5709 13.5587 23.2548 14.1213 22.6922C14.6839 22.1296 15 21.3665 15 20.5709V16.2584C13.0148 15.9139 10.9852 15.9139 9 16.2584V16.2584Z" fill="#37B678"/>
<path d="M10.4062 20.5709V16.2584C11.1658 16.1267 11.9331 16.0451 12.7033 16.0143C12.5196 16.0069 12.332 16.0023 12.1406 16.0006C11.0881 15.9922 10.037 16.0784 9 16.2584V20.5709C8.99993 21.0247 9.10282 21.4726 9.30093 21.8808C9.49904 22.2891 9.7872 22.6471 10.1437 22.9279C10.5002 23.2086 10.9158 23.4048 11.3591 23.5017C11.8025 23.5986 12.262 23.5936 12.7031 23.4872C12.0486 23.3293 11.4662 22.9558 11.0496 22.4269C10.633 21.8979 10.4064 21.2442 10.4062 20.5709V20.5709Z" fill="#00A653"/>
<path d="M12.3516 21.9043H11.6953C11.366 21.9039 11.0502 21.7729 10.8174 21.5401C10.5845 21.3072 10.4535 20.9914 10.4531 20.6621C10.4531 20.5689 10.4902 20.4794 10.5561 20.4135C10.622 20.3476 10.7114 20.3105 10.8047 20.3105C10.8979 20.3105 10.9873 20.3476 11.0533 20.4135C11.1192 20.4794 11.1562 20.5689 11.1562 20.6621C11.1564 20.805 11.2133 20.942 11.3143 21.0431C11.4154 21.1442 11.5524 21.201 11.6953 21.2012H12.3516C12.4945 21.201 12.6315 21.1442 12.7326 21.0431C12.8336 20.942 12.8905 20.805 12.8906 20.6621V20.4746C12.8905 20.3317 12.8336 20.1947 12.7326 20.0936C12.6315 19.9926 12.4945 19.9357 12.3516 19.9355H11.6953C11.366 19.9352 11.0502 19.8042 10.8174 19.5713C10.5845 19.3384 10.4535 19.0227 10.4531 18.6934V18.5059C10.4535 18.1765 10.5845 17.8608 10.8174 17.6279C11.0502 17.395 11.366 17.264 11.6953 17.2637H12.3516C12.6809 17.264 12.9966 17.395 13.2295 17.6279C13.4624 17.8608 13.5934 18.1765 13.5938 18.5059C13.5937 18.5991 13.5567 18.6885 13.4908 18.7545C13.4248 18.8204 13.3354 18.8574 13.2422 18.8574C13.1489 18.8574 13.0595 18.8204 12.9936 18.7545C12.9277 18.6885 12.8906 18.5991 12.8906 18.5059C12.8905 18.3629 12.8336 18.2259 12.7326 18.1249C12.6315 18.0238 12.4945 17.967 12.3516 17.9668H11.6953C11.5524 17.967 11.4154 18.0238 11.3143 18.1249C11.2133 18.2259 11.1564 18.3629 11.1562 18.5059V18.6934C11.1564 18.8363 11.2133 18.9733 11.3143 19.0744C11.4154 19.1754 11.5524 19.2323 11.6953 19.2324H12.3516C12.6809 19.2328 12.9966 19.3638 13.2295 19.5967C13.4624 19.8295 13.5934 20.1453 13.5938 20.4746V20.6621C13.5934 20.9914 13.4624 21.3072 13.2295 21.5401C12.9966 21.7729 12.6809 21.9039 12.3516 21.9043V21.9043Z" fill="#058B48"/>
<path d="M12.0234 17.9668C11.9773 17.9668 11.9316 17.9577 11.8889 17.94C11.8462 17.9224 11.8075 17.8965 11.7748 17.8638C11.7422 17.8312 11.7163 17.7924 11.6986 17.7498C11.681 17.7071 11.6719 17.6614 11.6719 17.6152V16.8184C11.6719 16.7251 11.7089 16.6357 11.7748 16.5698C11.8408 16.5038 11.9302 16.4668 12.0234 16.4668C12.1167 16.4668 12.2061 16.5038 12.272 16.5698C12.338 16.6357 12.375 16.7251 12.375 16.8184V17.6152C12.375 17.6614 12.3659 17.7071 12.3482 17.7498C12.3306 17.7924 12.3047 17.8312 12.272 17.8638C12.2394 17.8965 12.2006 17.9224 12.158 17.94C12.1153 17.9577 12.0696 17.9668 12.0234 17.9668V17.9668Z" fill="#058B48"/>
<path d="M16.5469 11.5918H15.8906C15.5613 11.5914 15.2455 11.4604 15.0127 11.2276C14.7798 10.9947 14.6488 10.6789 14.6484 10.3496C14.6484 10.2564 14.6855 10.1669 14.7514 10.101C14.8173 10.0351 14.9068 9.99805 15 9.99805C15.0932 9.99805 15.1827 10.0351 15.2486 10.101C15.3145 10.1669 15.3516 10.2564 15.3516 10.3496C15.3517 10.4925 15.4086 10.6295 15.5096 10.7306C15.6107 10.8317 15.7477 10.8885 15.8906 10.8887H16.5469C16.6898 10.8885 16.8268 10.8317 16.9279 10.7306C17.0289 10.6295 17.0858 10.4925 17.0859 10.3496V10.1621C17.0858 10.0192 17.0289 9.88218 16.9279 9.78112C16.8268 9.68006 16.6898 9.62321 16.5469 9.62305H15.8906C15.5613 9.62268 15.2455 9.49169 15.0127 9.25881C14.7798 9.02593 14.6488 8.71019 14.6484 8.38086V8.19336C14.6488 7.86402 14.7798 7.54828 15.0127 7.31541C15.2455 7.08253 15.5613 6.95154 15.8906 6.95117H16.5469C16.8762 6.95154 17.192 7.08253 17.4248 7.31541C17.6577 7.54828 17.7887 7.86402 17.7891 8.19336C17.7891 8.2866 17.752 8.37602 17.6861 8.44195C17.6202 8.50788 17.5307 8.54492 17.4375 8.54492C17.3443 8.54492 17.2548 8.50788 17.1889 8.44195C17.123 8.37602 17.0859 8.2866 17.0859 8.19336C17.0858 8.05044 17.0289 7.91343 16.9279 7.81237C16.8268 7.71131 16.6898 7.65446 16.5469 7.6543H15.8906C15.7477 7.65446 15.6107 7.71131 15.5096 7.81237C15.4086 7.91343 15.3517 8.05044 15.3516 8.19336V8.38086C15.3517 8.52378 15.4086 8.66079 15.5096 8.76185C15.6107 8.86291 15.7477 8.91976 15.8906 8.91992H16.5469C16.8762 8.92029 17.192 9.05128 17.4248 9.28416C17.6577 9.51703 17.7887 9.83277 17.7891 10.1621V10.3496C17.7887 10.6789 17.6577 10.9947 17.4248 11.2276C17.192 11.4604 16.8762 11.5914 16.5469 11.5918Z" fill="#74563A"/>
<path d="M16.2188 7.6543C16.1726 7.6543 16.1269 7.64521 16.0842 7.62754C16.0416 7.60988 16.0028 7.58398 15.9701 7.55133C15.9375 7.51869 15.9116 7.47993 15.8939 7.43728C15.8763 7.39462 15.8672 7.3489 15.8672 7.30273V6.50586C15.8672 6.41262 15.9042 6.3232 15.9702 6.25727C16.0361 6.19134 16.1255 6.1543 16.2188 6.1543C16.312 6.1543 16.4014 6.19134 16.4673 6.25727C16.5333 6.3232 16.5703 6.41262 16.5703 6.50586V7.30273C16.5703 7.3489 16.5612 7.39462 16.5436 7.43728C16.5259 7.47993 16.5 7.51869 16.4674 7.55133C16.4347 7.58398 16.3959 7.60988 16.3533 7.62754C16.3106 7.64521 16.2649 7.6543 16.2188 7.6543V7.6543ZM16.2188 12.3887C16.1726 12.3887 16.1269 12.3796 16.0842 12.3619C16.0416 12.3443 16.0028 12.3184 15.9701 12.2857C15.9375 12.2531 15.9116 12.2143 15.8939 12.1717C15.8763 12.129 15.8672 12.0833 15.8672 12.0371V11.2402C15.8672 11.147 15.9042 11.0576 15.9702 10.9916C16.0361 10.9257 16.1255 10.8887 16.2188 10.8887C16.312 10.8887 16.4014 10.9257 16.4673 10.9916C16.5333 11.0576 16.5703 11.147 16.5703 11.2402V12.0371C16.5703 12.0833 16.5612 12.129 16.5436 12.1717C16.5259 12.2143 16.5 12.2531 16.4674 12.2857C16.4347 12.3184 16.3959 12.3443 16.3533 12.3619C16.3106 12.3796 16.2649 12.3887 16.2188 12.3887V12.3887ZM8.10938 11.5918H7.45312C7.12379 11.5914 6.80805 11.4604 6.57517 11.2276C6.3423 10.9947 6.21131 10.6789 6.21094 10.3496C6.21094 10.2564 6.24798 10.1669 6.31391 10.101C6.37984 10.0351 6.46926 9.99805 6.5625 9.99805C6.65574 9.99805 6.74516 10.0351 6.81109 10.101C6.87702 10.1669 6.91406 10.2564 6.91406 10.3496C6.91423 10.4925 6.97108 10.6295 7.07213 10.7306C7.17319 10.8317 7.31021 10.8885 7.45312 10.8887H8.10938C8.25229 10.8885 8.38931 10.8317 8.49037 10.7306C8.59142 10.6295 8.64827 10.4925 8.64844 10.3496V10.1621C8.64827 10.0192 8.59142 9.88218 8.49037 9.78112C8.38931 9.68006 8.25229 9.62321 8.10938 9.62305H7.45312C7.12379 9.62268 6.80805 9.49169 6.57517 9.25881C6.3423 9.02594 6.21131 8.71019 6.21094 8.38086V8.19336C6.21131 7.86402 6.3423 7.54828 6.57517 7.31541C6.80805 7.08253 7.12379 6.95154 7.45312 6.95117H8.10938C8.43871 6.95154 8.75445 7.08253 8.98733 7.31541C9.2202 7.54828 9.35119 7.86402 9.35156 8.19336C9.35156 8.2866 9.31452 8.37602 9.24859 8.44195C9.18266 8.50788 9.09324 8.54492 9 8.54492C8.90676 8.54492 8.81734 8.50788 8.75141 8.44195C8.68548 8.37602 8.64844 8.2866 8.64844 8.19336C8.64827 8.05044 8.59142 7.91343 8.49037 7.81237C8.38931 7.71131 8.25229 7.65446 8.10938 7.6543H7.45312C7.31021 7.65446 7.17319 7.71131 7.07213 7.81237C6.97108 7.91343 6.91423 8.05044 6.91406 8.19336V8.38086C6.91423 8.52378 6.97108 8.66079 7.07213 8.76185C7.17319 8.86291 7.31021 8.91976 7.45312 8.91992H8.10938C8.43871 8.92029 8.75445 9.05128 8.98733 9.28416C9.2202 9.51703 9.35119 9.83277 9.35156 10.1621V10.3496C9.35119 10.6789 9.2202 10.9947 8.98733 11.2276C8.75445 11.4604 8.43871 11.5914 8.10938 11.5918V11.5918Z" fill="#74563A"/>
<path d="M7.78125 7.6543C7.73508 7.6543 7.68936 7.64521 7.64671 7.62754C7.60405 7.60988 7.5653 7.58398 7.53265 7.55133C7.5 7.51869 7.47411 7.47993 7.45644 7.43728C7.43878 7.39462 7.42968 7.3489 7.42969 7.30273V6.50586C7.42969 6.41262 7.46673 6.3232 7.53266 6.25727C7.59859 6.19134 7.68801 6.1543 7.78125 6.1543C7.87449 6.1543 7.96391 6.19134 8.02984 6.25727C8.09577 6.3232 8.13281 6.41262 8.13281 6.50586V7.30273C8.13282 7.3489 8.12372 7.39462 8.10606 7.43728C8.08839 7.47993 8.0625 7.51869 8.02985 7.55133C7.9972 7.58398 7.95845 7.60988 7.91579 7.62754C7.87314 7.64521 7.82742 7.6543 7.78125 7.6543ZM7.78125 12.3887C7.73508 12.3887 7.68936 12.3796 7.64671 12.3619C7.60405 12.3443 7.5653 12.3184 7.53265 12.2857C7.5 12.2531 7.47411 12.2143 7.45644 12.1717C7.43878 12.129 7.42968 12.0833 7.42969 12.0371V11.2402C7.42969 11.147 7.46673 11.0576 7.53266 10.9916C7.59859 10.9257 7.68801 10.8887 7.78125 10.8887C7.87449 10.8887 7.96391 10.9257 8.02984 10.9916C8.09577 11.0576 8.13281 11.147 8.13281 11.2402V12.0371C8.13282 12.0833 8.12372 12.129 8.10606 12.1717C8.08839 12.2143 8.0625 12.2531 8.02985 12.2857C7.9972 12.3184 7.95845 12.3443 7.91579 12.3619C7.87314 12.3796 7.82742 12.3887 7.78125 12.3887Z" fill="#74563A"/>
</svg>
