<svg width="24" height="25" viewBox="0 0 24 25" fill="none" xmlns="http://www.w3.org/2000/svg">
<path d="M12.0234 22.7471C11.9773 22.7471 11.9316 22.738 11.8889 22.7203C11.8462 22.7026 11.8075 22.6768 11.7748 22.6441C11.7422 22.6115 11.7163 22.5727 11.6986 22.53C11.681 22.4874 11.6719 22.4417 11.6719 22.3955V21.5986C11.6719 21.5054 11.7089 21.416 11.7748 21.35C11.8408 21.2841 11.9302 21.2471 12.0234 21.2471C12.1167 21.2471 12.2061 21.2841 12.272 21.35C12.338 21.416 12.375 21.5054 12.375 21.5986V22.3955C12.375 22.4417 12.3659 22.4874 12.3482 22.53C12.3306 22.5727 12.3047 22.6115 12.272 22.6441C12.2394 22.6768 12.2006 22.7026 12.158 22.7203C12.1153 22.738 12.0696 22.7471 12.0234 22.7471Z" fill="#058B48"/>
<path d="M12 22.8662C17.6825 22.8662 22.2891 18.2596 22.2891 12.5771C22.2891 6.89466 17.6825 2.28809 12 2.28809C6.31751 2.28809 1.71094 6.89466 1.71094 12.5771C1.71094 18.2596 6.31751 22.8662 12 22.8662Z" fill="#FDD402"/>
<path d="M4.52344 12.5771C4.52344 7.37177 8.38917 3.06996 13.4062 2.38416C12.9402 2.3203 12.4704 2.2882 12 2.28809C6.3175 2.28809 1.71094 6.89465 1.71094 12.5771C1.71094 18.2596 6.3175 22.8662 12 22.8662C12.4704 22.8661 12.9402 22.834 13.4062 22.7701C8.38917 22.0843 4.52344 17.7825 4.52344 12.5771Z" fill="#FBBF13"/>
<path d="M17.318 14.5647C17.3946 14.5322 17.4785 14.5206 17.5611 14.5312C17.6437 14.5417 17.722 14.574 17.788 14.6248C17.854 14.6756 17.9053 14.7431 17.9366 14.8202C17.9679 14.8974 17.9782 14.9814 17.9663 15.0639C17.769 16.4619 17.0731 17.7415 16.007 18.667C14.9408 19.5926 13.5761 20.1017 12.1643 20.1007H11.8362C10.424 20.1028 9.05874 19.594 7.99235 18.6683C6.92596 17.7425 6.23042 16.4623 6.0341 15.0638C6.02222 14.9814 6.03247 14.8973 6.06379 14.8202C6.09512 14.7431 6.14639 14.6756 6.21235 14.6248C6.27832 14.5741 6.35661 14.5417 6.43919 14.5311C6.52177 14.5206 6.60568 14.5322 6.68232 14.5647C8.3649 15.2781 10.1736 15.6463 12.0012 15.6476H12.0705C13.8741 15.637 15.6576 15.269 17.318 14.5647Z" fill="#74563A"/>
<path d="M10.8837 19.6069C9.93643 19.1919 9.11619 18.5329 8.50672 17.6973C7.89726 16.8617 7.52039 15.8793 7.41458 14.8505C7.14802 14.7552 6.90315 14.6584 6.68139 14.5644C6.60477 14.532 6.52092 14.5206 6.43841 14.5312C6.3559 14.5419 6.27772 14.5743 6.21185 14.6251C6.14599 14.6759 6.09483 14.7433 6.0636 14.8204C6.03238 14.8976 6.02222 14.9816 6.03415 15.0639C6.23132 16.462 6.9271 17.7418 7.9933 18.6674C9.05951 19.593 10.4243 20.1022 11.8362 20.101H12.1644C12.3462 20.101 12.5258 20.0922 12.7034 20.0761C12.0754 20.0193 11.4609 19.8609 10.8837 19.6069Z" fill="#674B34"/>
<path d="M9 16.3033V20.6158C9 21.4115 9.31607 22.1745 9.87868 22.7371C10.4413 23.2997 11.2044 23.6158 12 23.6158C12.7956 23.6158 13.5587 23.2997 14.1213 22.7371C14.6839 22.1745 15 21.4115 15 20.6158V16.3033C13.0148 15.9588 10.9852 15.9588 9 16.3033Z" fill="#37B678"/>
<path d="M10.4062 20.6158V16.3033C11.1658 16.1716 11.9331 16.0901 12.7033 16.0592C12.5196 16.0518 12.332 16.0472 12.1406 16.0455C11.0881 16.0371 10.037 16.1234 9 16.3033V20.6158C8.99993 21.0696 9.10282 21.5175 9.30093 21.9258C9.49904 22.334 9.7872 22.692 10.1437 22.9728C10.5002 23.2535 10.9158 23.4497 11.3591 23.5466C11.8025 23.6435 12.262 23.6385 12.7031 23.5321C12.0486 23.3742 11.4662 23.0007 11.0496 22.4718C10.633 21.9428 10.4064 21.2891 10.4062 20.6158Z" fill="#00A653"/>
<path d="M12.3516 21.9502H11.6953C11.366 21.9498 11.0502 21.8188 10.8174 21.586C10.5845 21.3531 10.4535 21.0373 10.4531 20.708C10.4531 20.6148 10.4902 20.5253 10.5561 20.4594C10.622 20.3935 10.7114 20.3564 10.8047 20.3564C10.8979 20.3564 10.9873 20.3935 11.0533 20.4594C11.1192 20.5253 11.1562 20.6148 11.1562 20.708C11.1564 20.8509 11.2133 20.9879 11.3143 21.089C11.4154 21.1901 11.5524 21.2469 11.6953 21.2471H12.3516C12.4945 21.2469 12.6315 21.1901 12.7326 21.089C12.8336 20.9879 12.8905 20.8509 12.8906 20.708V20.5205C12.8905 20.3776 12.8336 20.2406 12.7326 20.1395C12.6315 20.0385 12.4945 19.9816 12.3516 19.9814H11.6953C11.366 19.9811 11.0502 19.8501 10.8174 19.6172C10.5845 19.3843 10.4535 19.0686 10.4531 18.7393V18.5518C10.4535 18.2224 10.5845 17.9067 10.8174 17.6738C11.0502 17.4409 11.366 17.3099 11.6953 17.3096H12.3516C12.6809 17.3099 12.9966 17.4409 13.2295 17.6738C13.4624 17.9067 13.5934 18.2224 13.5938 18.5518C13.5938 18.645 13.5567 18.7344 13.4908 18.8003C13.4248 18.8663 13.3354 18.9033 13.2422 18.9033C13.1489 18.9033 13.0595 18.8663 12.9936 18.8003C12.9277 18.7344 12.8906 18.645 12.8906 18.5518C12.8905 18.4088 12.8336 18.2718 12.7326 18.1708C12.6315 18.0697 12.4945 18.0129 12.3516 18.0127H11.6953C11.5524 18.0129 11.4154 18.0697 11.3143 18.1708C11.2133 18.2718 11.1564 18.4088 11.1562 18.5518V18.7393C11.1564 18.8822 11.2133 19.0192 11.3143 19.1202C11.4154 19.2213 11.5524 19.2782 11.6953 19.2783H12.3516C12.6809 19.2787 12.9966 19.4097 13.2295 19.6426C13.4624 19.8754 13.5934 20.1912 13.5938 20.5205V20.708C13.5934 21.0373 13.4624 21.3531 13.2295 21.586C12.9966 21.8188 12.6809 21.9498 12.3516 21.9502Z" fill="#058B48"/>
<path d="M12.0234 18.0127C11.9773 18.0127 11.9316 18.0036 11.8889 17.9859C11.8462 17.9683 11.8075 17.9424 11.7748 17.9097C11.7422 17.8771 11.7163 17.8383 11.6986 17.7957C11.681 17.753 11.6719 17.7073 11.6719 17.6611V16.8643C11.6719 16.771 11.7089 16.6816 11.7748 16.6157C11.8408 16.5497 11.9302 16.5127 12.0234 16.5127C12.1167 16.5127 12.2061 16.5497 12.272 16.6157C12.338 16.6816 12.375 16.771 12.375 16.8643V17.6611C12.375 17.7073 12.3659 17.753 12.3482 17.7957C12.3306 17.8383 12.3047 17.8771 12.272 17.9097C12.2394 17.9424 12.2006 17.9683 12.158 17.9859C12.1153 18.0036 12.0696 18.0127 12.0234 18.0127Z" fill="#058B48"/>
<path d="M16.5469 11.6377H15.8906C15.5613 11.6373 15.2455 11.5063 15.0127 11.2735C14.7798 11.0406 14.6488 10.7248 14.6484 10.3955C14.6484 10.3023 14.6855 10.2128 14.7514 10.1469C14.8173 10.081 14.9068 10.0439 15 10.0439C15.0932 10.0439 15.1827 10.081 15.2486 10.1469C15.3145 10.2128 15.3516 10.3023 15.3516 10.3955C15.3517 10.5384 15.4086 10.6754 15.5096 10.7765C15.6107 10.8776 15.7477 10.9344 15.8906 10.9346H16.5469C16.6898 10.9344 16.8268 10.8776 16.9279 10.7765C17.0289 10.6754 17.0858 10.5384 17.0859 10.3955V10.208C17.0858 10.0651 17.0289 9.92807 16.9279 9.82702C16.8268 9.72596 16.6898 9.66911 16.5469 9.66895H15.8906C15.5613 9.66858 15.2455 9.53758 15.0127 9.30471C14.7798 9.07183 14.6488 8.75609 14.6484 8.42676V8.23926C14.6488 7.90992 14.7798 7.59418 15.0127 7.36131C15.2455 7.12843 15.5613 6.99744 15.8906 6.99707H16.5469C16.8762 6.99744 17.192 7.12843 17.4248 7.36131C17.6577 7.59418 17.7887 7.90992 17.7891 8.23926C17.7891 8.3325 17.752 8.42192 17.6861 8.48785C17.6202 8.55378 17.5307 8.59082 17.4375 8.59082C17.3443 8.59082 17.2548 8.55378 17.1889 8.48785C17.123 8.42192 17.0859 8.3325 17.0859 8.23926C17.0858 8.09634 17.0289 7.95932 16.9279 7.85827C16.8268 7.75721 16.6898 7.70036 16.5469 7.7002H15.8906C15.7477 7.70036 15.6107 7.75721 15.5096 7.85827C15.4086 7.95932 15.3517 8.09634 15.3516 8.23926V8.42676C15.3517 8.56967 15.4086 8.70669 15.5096 8.80775C15.6107 8.90881 15.7477 8.96565 15.8906 8.96582H16.5469C16.8762 8.96619 17.192 9.09718 17.4248 9.33006C17.6577 9.56293 17.7887 9.87867 17.7891 10.208V10.3955C17.7887 10.7248 17.6577 11.0406 17.4248 11.2735C17.192 11.5063 16.8762 11.6373 16.5469 11.6377Z" fill="#74563A"/>
<path d="M16.2188 7.7002C16.1726 7.7002 16.1269 7.69111 16.0842 7.67344C16.0416 7.65578 16.0028 7.62988 15.9701 7.59723C15.9375 7.56459 15.9116 7.52583 15.8939 7.48317C15.8763 7.44052 15.8672 7.3948 15.8672 7.34863V6.55176C15.8672 6.45852 15.9042 6.3691 15.9702 6.30317C16.0361 6.23723 16.1255 6.2002 16.2188 6.2002C16.312 6.2002 16.4014 6.23723 16.4673 6.30317C16.5333 6.3691 16.5703 6.45852 16.5703 6.55176V7.34863C16.5703 7.3948 16.5612 7.44052 16.5436 7.48317C16.5259 7.52583 16.5 7.56459 16.4674 7.59723C16.4347 7.62988 16.3959 7.65578 16.3533 7.67344C16.3106 7.69111 16.2649 7.7002 16.2188 7.7002ZM16.2188 12.4346C16.1726 12.4346 16.1269 12.4255 16.0842 12.4078C16.0416 12.3902 16.0028 12.3643 15.9701 12.3316C15.9375 12.299 15.9116 12.2602 15.8939 12.2175C15.8763 12.1749 15.8672 12.1292 15.8672 12.083V11.2861C15.8672 11.1929 15.9042 11.1035 15.9702 11.0375C16.0361 10.9716 16.1255 10.9346 16.2188 10.9346C16.312 10.9346 16.4014 10.9716 16.4673 11.0375C16.5333 11.1035 16.5703 11.1929 16.5703 11.2861V12.083C16.5703 12.1292 16.5612 12.1749 16.5436 12.2175C16.5259 12.2602 16.5 12.299 16.4674 12.3316C16.4347 12.3643 16.3959 12.3902 16.3533 12.4078C16.3106 12.4255 16.2649 12.4346 16.2188 12.4346ZM8.10938 11.6377H7.45312C7.12379 11.6373 6.80805 11.5063 6.57517 11.2735C6.3423 11.0406 6.21131 10.7248 6.21094 10.3955C6.21094 10.3023 6.24798 10.2128 6.31391 10.1469C6.37984 10.081 6.46926 10.0439 6.5625 10.0439C6.65574 10.0439 6.74516 10.081 6.81109 10.1469C6.87702 10.2128 6.91406 10.3023 6.91406 10.3955C6.91423 10.5384 6.97108 10.6754 7.07213 10.7765C7.17319 10.8776 7.31021 10.9344 7.45312 10.9346H8.10938C8.25229 10.9344 8.38931 10.8776 8.49037 10.7765C8.59142 10.6754 8.64827 10.5384 8.64844 10.3955V10.208C8.64827 10.0651 8.59142 9.92808 8.49037 9.82702C8.38931 9.72596 8.25229 9.66911 8.10938 9.66895H7.45312C7.12379 9.66858 6.80805 9.53758 6.57517 9.30471C6.3423 9.07183 6.21131 8.75609 6.21094 8.42676V8.23926C6.21131 7.90992 6.3423 7.59418 6.57517 7.36131C6.80805 7.12843 7.12379 6.99744 7.45312 6.99707H8.10938C8.43871 6.99744 8.75445 7.12843 8.98733 7.36131C9.2202 7.59418 9.35119 7.90992 9.35156 8.23926C9.35156 8.3325 9.31452 8.42192 9.24859 8.48785C9.18266 8.55378 9.09324 8.59082 9 8.59082C8.90676 8.59082 8.81734 8.55378 8.75141 8.48785C8.68548 8.42192 8.64844 8.3325 8.64844 8.23926C8.64827 8.09634 8.59142 7.95932 8.49037 7.85827C8.38931 7.75721 8.25229 7.70036 8.10938 7.7002H7.45312C7.31021 7.70036 7.17319 7.75721 7.07213 7.85827C6.97108 7.95932 6.91423 8.09634 6.91406 8.23926V8.42676C6.91423 8.56968 6.97108 8.70669 7.07213 8.80775C7.17319 8.90881 7.31021 8.96565 7.45312 8.96582H8.10938C8.43871 8.96619 8.75445 9.09718 8.98733 9.33006C9.2202 9.56293 9.35119 9.87867 9.35156 10.208V10.3955C9.35119 10.7248 9.2202 11.0406 8.98733 11.2735C8.75445 11.5063 8.43871 11.6373 8.10938 11.6377Z" fill="#74563A"/>
<path d="M7.78125 7.7002C7.73508 7.7002 7.68936 7.69111 7.64671 7.67344C7.60405 7.65578 7.5653 7.62988 7.53265 7.59723C7.5 7.56459 7.47411 7.52583 7.45644 7.48317C7.43878 7.44052 7.42968 7.3948 7.42969 7.34863V6.55176C7.42969 6.45852 7.46673 6.3691 7.53266 6.30317C7.59859 6.23723 7.68801 6.2002 7.78125 6.2002C7.87449 6.2002 7.96391 6.23723 8.02984 6.30317C8.09577 6.3691 8.13281 6.45852 8.13281 6.55176V7.34863C8.13282 7.3948 8.12372 7.44052 8.10606 7.48317C8.08839 7.52583 8.0625 7.56459 8.02985 7.59723C7.9972 7.62988 7.95845 7.65578 7.91579 7.67344C7.87314 7.69111 7.82742 7.7002 7.78125 7.7002ZM7.78125 12.4346C7.73508 12.4346 7.68936 12.4255 7.64671 12.4078C7.60405 12.3902 7.5653 12.3643 7.53265 12.3316C7.5 12.299 7.47411 12.2602 7.45644 12.2175C7.43878 12.1749 7.42968 12.1292 7.42969 12.083V11.2861C7.42969 11.1929 7.46673 11.1035 7.53266 11.0375C7.59859 10.9716 7.68801 10.9346 7.78125 10.9346C7.87449 10.9346 7.96391 10.9716 8.02984 11.0375C8.09577 11.1035 8.13281 11.1929 8.13281 11.2861V12.083C8.13282 12.1292 8.12372 12.1749 8.10606 12.2175C8.08839 12.2602 8.0625 12.299 8.02985 12.3316C7.9972 12.3643 7.95845 12.3902 7.91579 12.4078C7.87314 12.4255 7.82742 12.4346 7.78125 12.4346Z" fill="#74563A"/>
</svg>
