<svg width="24" height="25" viewBox="0 0 24 25" fill="none" xmlns="http://www.w3.org/2000/svg">
<path d="M12.0234 22.6992C11.9773 22.6992 11.9316 22.6901 11.8889 22.6725C11.8462 22.6548 11.8075 22.6289 11.7748 22.5963C11.7422 22.5636 11.7163 22.5249 11.6986 22.4822C11.681 22.4395 11.6719 22.3938 11.6719 22.3477V21.5508C11.6719 21.4575 11.7089 21.3681 11.7748 21.3022C11.8408 21.2363 11.9302 21.1992 12.0234 21.1992C12.1167 21.1992 12.2061 21.2363 12.272 21.3022C12.338 21.3681 12.375 21.4575 12.375 21.5508V22.3477C12.375 22.3938 12.3659 22.4395 12.3482 22.4822C12.3306 22.5249 12.3047 22.5636 12.272 22.5963C12.2394 22.6289 12.2006 22.6548 12.158 22.6725C12.1153 22.6901 12.0696 22.6992 12.0234 22.6992V22.6992Z" fill="#058B48"/>
<path d="M12 22.8184C17.6825 22.8184 22.2891 18.2118 22.2891 12.5293C22.2891 6.8468 17.6825 2.24023 12 2.24023C6.31751 2.24023 1.71094 6.8468 1.71094 12.5293C1.71094 18.2118 6.31751 22.8184 12 22.8184Z" fill="#FDD402"/>
<path d="M4.52344 12.5293C4.52344 7.32392 8.38917 3.02211 13.4062 2.33631C12.9402 2.27245 12.4704 2.24035 12 2.24023C6.3175 2.24023 1.71094 6.8468 1.71094 12.5293C1.71094 18.2118 6.3175 22.8184 12 22.8184C12.4704 22.8182 12.9402 22.7861 13.4062 22.7223C8.38917 22.0365 4.52344 17.7347 4.52344 12.5293Z" fill="#FBBF13"/>
<path d="M17.318 14.5159C17.3946 14.4834 17.4785 14.4718 17.5611 14.4823C17.6437 14.4929 17.722 14.5252 17.788 14.576C17.854 14.6268 17.9053 14.6942 17.9366 14.7714C17.9679 14.8485 17.9782 14.9326 17.9663 15.015C17.769 16.413 17.0731 17.6926 16.007 18.6182C14.9408 19.5438 13.5761 20.0529 12.1643 20.0519H11.8362C10.424 20.054 9.05874 19.5452 7.99235 18.6195C6.92596 17.6937 6.23042 16.4135 6.0341 15.015C6.02222 14.9326 6.03247 14.8485 6.06379 14.7714C6.09512 14.6942 6.14639 14.6268 6.21235 14.576C6.27832 14.5252 6.35661 14.4929 6.43919 14.4823C6.52177 14.4717 6.60568 14.4833 6.68232 14.5159C8.3649 15.2293 10.1736 15.5975 12.0012 15.5988H12.0705C13.8741 15.5882 15.6576 15.2201 17.318 14.5159V14.5159Z" fill="#74563A"/>
<path d="M10.8833 19.5581C9.93594 19.1431 9.1157 18.4841 8.50623 17.6485C7.89677 16.8129 7.5199 15.8305 7.41409 14.8017C7.14753 14.7064 6.90266 14.6096 6.6809 14.5156C6.60428 14.4832 6.52043 14.4717 6.43792 14.4824C6.35542 14.493 6.27723 14.5254 6.21137 14.5763C6.14551 14.6271 6.09434 14.6945 6.06312 14.7716C6.03189 14.8487 6.02173 14.9328 6.03367 15.0151C6.23083 16.4132 6.92661 17.6929 7.99282 18.6186C9.05902 19.5442 10.4238 20.0533 11.8358 20.0522H12.1639C12.3457 20.0522 12.5254 20.0434 12.7029 20.0272C12.075 19.9705 11.4604 19.812 10.8833 19.5581V19.5581Z" fill="#674B34"/>
<path d="M9 16.2564V20.5689C9 21.3646 9.31607 22.1276 9.87868 22.6902C10.4413 23.2529 11.2044 23.5689 12 23.5689C12.7956 23.5689 13.5587 23.2529 14.1213 22.6902C14.6839 22.1276 15 21.3646 15 20.5689V16.2564C13.0148 15.9119 10.9852 15.9119 9 16.2564V16.2564Z" fill="#37B678"/>
<path d="M10.4062 20.5689V16.2564C11.1658 16.1247 11.9331 16.0432 12.7033 16.0123C12.5196 16.0049 12.332 16.0004 12.1406 15.9986C11.0881 15.9902 10.037 16.0765 9 16.2564V20.5689C8.99993 21.0227 9.10282 21.4706 9.30093 21.8789C9.49904 22.2871 9.7872 22.6451 10.1437 22.9259C10.5002 23.2067 10.9158 23.4029 11.3591 23.4998C11.8025 23.5966 12.262 23.5917 12.7031 23.4852C12.0486 23.3273 11.4662 22.9539 11.0496 22.4249C10.633 21.8959 10.4064 21.2422 10.4062 20.5689V20.5689Z" fill="#00A653"/>
<path d="M12.3516 21.9023H11.6953C11.366 21.902 11.0502 21.771 10.8174 21.5381C10.5845 21.3052 10.4535 20.9895 10.4531 20.6602C10.4531 20.5669 10.4902 20.4775 10.5561 20.4116C10.622 20.3456 10.7114 20.3086 10.8047 20.3086C10.8979 20.3086 10.9873 20.3456 11.0533 20.4116C11.1192 20.4775 11.1562 20.5669 11.1562 20.6602C11.1564 20.8031 11.2133 20.9401 11.3143 21.0411C11.4154 21.1422 11.5524 21.1991 11.6953 21.1992H12.3516C12.4945 21.1991 12.6315 21.1422 12.7326 21.0411C12.8336 20.9401 12.8905 20.8031 12.8906 20.6602V20.4727C12.8905 20.3297 12.8336 20.1927 12.7326 20.0917C12.6315 19.9906 12.4945 19.9338 12.3516 19.9336H11.6953C11.366 19.9332 11.0502 19.8022 10.8174 19.5694C10.5845 19.3365 10.4535 19.0207 10.4531 18.6914V18.5039C10.4535 18.1746 10.5845 17.8588 10.8174 17.626C11.0502 17.3931 11.366 17.2621 11.6953 17.2617H12.3516C12.6809 17.2621 12.9966 17.3931 13.2295 17.626C13.4624 17.8588 13.5934 18.1746 13.5938 18.5039C13.5937 18.5971 13.5567 18.6866 13.4908 18.7525C13.4248 18.8184 13.3354 18.8555 13.2422 18.8555C13.1489 18.8555 13.0595 18.8184 12.9936 18.7525C12.9277 18.6866 12.8906 18.5971 12.8906 18.5039C12.8905 18.361 12.8336 18.224 12.7326 18.1229C12.6315 18.0219 12.4945 17.965 12.3516 17.9648H11.6953C11.5524 17.965 11.4154 18.0219 11.3143 18.1229C11.2133 18.224 11.1564 18.361 11.1562 18.5039V18.6914C11.1564 18.8343 11.2133 18.9713 11.3143 19.0724C11.4154 19.1735 11.5524 19.2303 11.6953 19.2305H12.3516C12.6809 19.2308 12.9966 19.3618 13.2295 19.5947C13.4624 19.8276 13.5934 20.1433 13.5938 20.4727V20.6602C13.5934 20.9895 13.4624 21.3052 13.2295 21.5381C12.9966 21.771 12.6809 21.902 12.3516 21.9023V21.9023Z" fill="#058B48"/>
<path d="M12.0234 17.9648C11.9773 17.9648 11.9316 17.9558 11.8889 17.9381C11.8462 17.9204 11.8075 17.8945 11.7748 17.8619C11.7422 17.8292 11.7163 17.7905 11.6986 17.7478C11.681 17.7052 11.6719 17.6595 11.6719 17.6133V16.8164C11.6719 16.7232 11.7089 16.6337 11.7748 16.5678C11.8408 16.5019 11.9302 16.4648 12.0234 16.4648C12.1167 16.4648 12.2061 16.5019 12.272 16.5678C12.338 16.6337 12.375 16.7232 12.375 16.8164V17.6133C12.375 17.6595 12.3659 17.7052 12.3482 17.7478C12.3306 17.7905 12.3047 17.8292 12.272 17.8619C12.2394 17.8945 12.2006 17.9204 12.158 17.9381C12.1153 17.9558 12.0696 17.9648 12.0234 17.9648V17.9648Z" fill="#058B48"/>
<path d="M16.5469 11.5898H15.8906C15.5613 11.5895 15.2455 11.4585 15.0127 11.2256C14.7798 10.9927 14.6488 10.677 14.6484 10.3477C14.6484 10.2544 14.6855 10.165 14.7514 10.0991C14.8173 10.0331 14.9068 9.99609 15 9.99609C15.0932 9.99609 15.1827 10.0331 15.2486 10.0991C15.3145 10.165 15.3516 10.2544 15.3516 10.3477C15.3517 10.4906 15.4086 10.6276 15.5096 10.7286C15.6107 10.8297 15.7477 10.8866 15.8906 10.8867H16.5469C16.6898 10.8866 16.8268 10.8297 16.9279 10.7286C17.0289 10.6276 17.0858 10.4906 17.0859 10.3477V10.1602C17.0858 10.0172 17.0289 9.88022 16.9279 9.77917C16.8268 9.67811 16.6898 9.62126 16.5469 9.62109H15.8906C15.5613 9.62072 15.2455 9.48973 15.0127 9.25686C14.7798 9.02398 14.6488 8.70824 14.6484 8.37891V8.19141C14.6488 7.86207 14.7798 7.54633 15.0127 7.31346C15.2455 7.08058 15.5613 6.94959 15.8906 6.94922H16.5469C16.8762 6.94959 17.192 7.08058 17.4248 7.31346C17.6577 7.54633 17.7887 7.86207 17.7891 8.19141C17.7891 8.28465 17.752 8.37407 17.6861 8.44C17.6202 8.50593 17.5307 8.54297 17.4375 8.54297C17.3443 8.54297 17.2548 8.50593 17.1889 8.44C17.123 8.37407 17.0859 8.28465 17.0859 8.19141C17.0858 8.04849 17.0289 7.91147 16.9279 7.81042C16.8268 7.70936 16.6898 7.65251 16.5469 7.65234H15.8906C15.7477 7.65251 15.6107 7.70936 15.5096 7.81042C15.4086 7.91147 15.3517 8.04849 15.3516 8.19141V8.37891C15.3517 8.52182 15.4086 8.65884 15.5096 8.7599C15.6107 8.86096 15.7477 8.9178 15.8906 8.91797H16.5469C16.8762 8.91834 17.192 9.04933 17.4248 9.28221C17.6577 9.51508 17.7887 9.83082 17.7891 10.1602V10.3477C17.7887 10.677 17.6577 10.9927 17.4248 11.2256C17.192 11.4585 16.8762 11.5895 16.5469 11.5898Z" fill="#74563A"/>
<path d="M16.2188 7.65234C16.1726 7.65235 16.1269 7.64326 16.0842 7.62559C16.0416 7.60792 16.0028 7.58203 15.9701 7.54938C15.9375 7.51674 15.9116 7.47798 15.8939 7.43532C15.8763 7.39267 15.8672 7.34695 15.8672 7.30078V6.50391C15.8672 6.41067 15.9042 6.32124 15.9702 6.25531C16.0361 6.18938 16.1255 6.15234 16.2188 6.15234C16.312 6.15234 16.4014 6.18938 16.4673 6.25531C16.5333 6.32124 16.5703 6.41067 16.5703 6.50391V7.30078C16.5703 7.34695 16.5612 7.39267 16.5436 7.43532C16.5259 7.47798 16.5 7.51674 16.4674 7.54938C16.4347 7.58203 16.3959 7.60792 16.3533 7.62559C16.3106 7.64326 16.2649 7.65235 16.2188 7.65234V7.65234ZM16.2188 12.3867C16.1726 12.3867 16.1269 12.3776 16.0842 12.36C16.0416 12.3423 16.0028 12.3164 15.9701 12.2838C15.9375 12.2511 15.9116 12.2124 15.8939 12.1697C15.8763 12.127 15.8672 12.0813 15.8672 12.0352V11.2383C15.8672 11.145 15.9042 11.0556 15.9702 10.9897C16.0361 10.9238 16.1255 10.8867 16.2188 10.8867C16.312 10.8867 16.4014 10.9238 16.4673 10.9897C16.5333 11.0556 16.5703 11.145 16.5703 11.2383V12.0352C16.5703 12.0813 16.5612 12.127 16.5436 12.1697C16.5259 12.2124 16.5 12.2511 16.4674 12.2838C16.4347 12.3164 16.3959 12.3423 16.3533 12.36C16.3106 12.3776 16.2649 12.3867 16.2188 12.3867V12.3867ZM8.10938 11.5898H7.45312C7.12379 11.5895 6.80805 11.4585 6.57517 11.2256C6.3423 10.9927 6.21131 10.677 6.21094 10.3477C6.21094 10.2544 6.24798 10.165 6.31391 10.0991C6.37984 10.0331 6.46926 9.99609 6.5625 9.99609C6.65574 9.99609 6.74516 10.0331 6.81109 10.0991C6.87702 10.165 6.91406 10.2544 6.91406 10.3477C6.91423 10.4906 6.97108 10.6276 7.07213 10.7286C7.17319 10.8297 7.31021 10.8866 7.45312 10.8867H8.10938C8.25229 10.8866 8.38931 10.8297 8.49037 10.7286C8.59142 10.6276 8.64827 10.4906 8.64844 10.3477V10.1602C8.64827 10.0172 8.59142 9.88022 8.49037 9.77917C8.38931 9.67811 8.25229 9.62126 8.10938 9.62109H7.45312C7.12379 9.62072 6.80805 9.48973 6.57517 9.25686C6.3423 9.02398 6.21131 8.70824 6.21094 8.37891V8.19141C6.21131 7.86207 6.3423 7.54633 6.57517 7.31346C6.80805 7.08058 7.12379 6.94959 7.45312 6.94922H8.10938C8.43871 6.94959 8.75445 7.08058 8.98733 7.31346C9.2202 7.54633 9.35119 7.86207 9.35156 8.19141C9.35156 8.28465 9.31452 8.37407 9.24859 8.44C9.18266 8.50593 9.09324 8.54297 9 8.54297C8.90676 8.54297 8.81734 8.50593 8.75141 8.44C8.68548 8.37407 8.64844 8.28465 8.64844 8.19141C8.64827 8.04849 8.59142 7.91147 8.49037 7.81042C8.38931 7.70936 8.25229 7.65251 8.10938 7.65234H7.45312C7.31021 7.65251 7.17319 7.70936 7.07213 7.81042C6.97108 7.91147 6.91423 8.04849 6.91406 8.19141V8.37891C6.91423 8.52182 6.97108 8.65884 7.07213 8.7599C7.17319 8.86096 7.31021 8.9178 7.45312 8.91797H8.10938C8.43871 8.91834 8.75445 9.04933 8.98733 9.28221C9.2202 9.51508 9.35119 9.83082 9.35156 10.1602V10.3477C9.35119 10.677 9.2202 10.9927 8.98733 11.2256C8.75445 11.4585 8.43871 11.5895 8.10938 11.5898V11.5898Z" fill="#74563A"/>
<path d="M7.78125 7.65234C7.73508 7.65235 7.68936 7.64326 7.64671 7.62559C7.60405 7.60792 7.5653 7.58203 7.53265 7.54938C7.5 7.51674 7.47411 7.47798 7.45644 7.43532C7.43878 7.39267 7.42968 7.34695 7.42969 7.30078V6.50391C7.42969 6.41067 7.46673 6.32124 7.53266 6.25531C7.59859 6.18938 7.68801 6.15234 7.78125 6.15234C7.87449 6.15234 7.96391 6.18938 8.02984 6.25531C8.09577 6.32124 8.13281 6.41067 8.13281 6.50391V7.30078C8.13282 7.34695 8.12372 7.39267 8.10606 7.43532C8.08839 7.47798 8.0625 7.51674 8.02985 7.54938C7.9972 7.58203 7.95845 7.60792 7.91579 7.62559C7.87314 7.64326 7.82742 7.65235 7.78125 7.65234ZM7.78125 12.3867C7.73508 12.3867 7.68936 12.3776 7.64671 12.36C7.60405 12.3423 7.5653 12.3164 7.53265 12.2838C7.5 12.2511 7.47411 12.2124 7.45644 12.1697C7.43878 12.127 7.42968 12.0813 7.42969 12.0352V11.2383C7.42969 11.145 7.46673 11.0556 7.53266 10.9897C7.59859 10.9238 7.68801 10.8867 7.78125 10.8867C7.87449 10.8867 7.96391 10.9238 8.02984 10.9897C8.09577 11.0556 8.13281 11.145 8.13281 11.2383V12.0352C8.13282 12.0813 8.12372 12.127 8.10606 12.1697C8.08839 12.2124 8.0625 12.2511 8.02985 12.2838C7.9972 12.3164 7.95845 12.3423 7.91579 12.36C7.87314 12.3776 7.82742 12.3867 7.78125 12.3867Z" fill="#74563A"/>
</svg>
