<svg width="24" height="25" viewBox="0 0 24 25" fill="none" xmlns="http://www.w3.org/2000/svg">
<path d="M12.0234 22.6523C11.9773 22.6523 11.9316 22.6433 11.8889 22.6256C11.8462 22.6079 11.8075 22.582 11.7748 22.5494C11.7422 22.5167 11.7163 22.478 11.6986 22.4353C11.681 22.3927 11.6719 22.347 11.6719 22.3008V21.5039C11.6719 21.4107 11.7089 21.3212 11.7748 21.2553C11.8408 21.1894 11.9302 21.1523 12.0234 21.1523C12.1167 21.1523 12.2061 21.1894 12.272 21.2553C12.338 21.3212 12.375 21.4107 12.375 21.5039V22.3008C12.375 22.347 12.3659 22.3927 12.3482 22.4353C12.3306 22.478 12.3047 22.5167 12.272 22.5494C12.2394 22.582 12.2006 22.6079 12.158 22.6256C12.1153 22.6433 12.0696 22.6523 12.0234 22.6523V22.6523Z" fill="#058B48"/>
<path d="M12 22.7715C17.6825 22.7715 22.2891 18.1649 22.2891 12.4824C22.2891 6.79993 17.6825 2.19336 12 2.19336C6.31751 2.19336 1.71094 6.79993 1.71094 12.4824C1.71094 18.1649 6.31751 22.7715 12 22.7715Z" fill="#FDD402"/>
<path d="M4.52344 12.4824C4.52344 7.27704 8.38917 2.97523 13.4062 2.28943C12.9402 2.22557 12.4704 2.19347 12 2.19336C6.3175 2.19336 1.71094 6.79993 1.71094 12.4824C1.71094 18.1649 6.3175 22.7715 12 22.7715C12.4704 22.7714 12.9402 22.7393 13.4062 22.6754C8.38917 21.9896 4.52344 17.6878 4.52344 12.4824Z" fill="#FBBF13"/>
<path d="M17.318 14.469C17.3946 14.4365 17.4785 14.4249 17.5611 14.4354C17.6437 14.446 17.722 14.4783 17.788 14.5291C17.854 14.5799 17.9053 14.6474 17.9366 14.7245C17.9679 14.8016 17.9782 14.8857 17.9663 14.9682C17.769 16.3662 17.0731 17.6458 16.007 18.5713C14.9408 19.4969 13.5761 20.006 12.1643 20.005H11.8362C10.424 20.0071 9.05874 19.4983 7.99235 18.5726C6.92596 17.6468 6.23042 16.3666 6.0341 14.9681C6.02222 14.8857 6.03247 14.8016 6.06379 14.7245C6.09512 14.6474 6.14639 14.5799 6.21235 14.5291C6.27832 14.4784 6.35661 14.446 6.43919 14.4354C6.52177 14.4249 6.60568 14.4365 6.68232 14.469C8.3649 15.1824 10.1736 15.5506 12.0012 15.5519H12.0705C13.8741 15.5413 15.6576 15.1733 17.318 14.469V14.469Z" fill="#74563A"/>
<path d="M10.8837 19.5112C9.93643 19.0962 9.11619 18.4372 8.50672 17.6016C7.89726 16.766 7.52039 15.7836 7.41458 14.7548C7.14802 14.6595 6.90315 14.5627 6.68139 14.4687C6.60477 14.4363 6.52092 14.4248 6.43841 14.4355C6.3559 14.4462 6.27772 14.4786 6.21185 14.5294C6.14599 14.5802 6.09483 14.6476 6.0636 14.7247C6.03238 14.8019 6.02222 14.8859 6.03415 14.9682C6.23132 16.3663 6.9271 17.6461 7.9933 18.5717C9.05951 19.4973 10.4243 20.0065 11.8362 20.0053H12.1644C12.3462 20.0053 12.5258 19.9965 12.7034 19.9803C12.0754 19.9236 11.4609 19.7652 10.8837 19.5112V19.5112Z" fill="#674B34"/>
<path d="M9 16.2095V20.5221C9 21.3177 9.31607 22.0808 9.87868 22.6434C10.4413 23.206 11.2044 23.5221 12 23.5221C12.7956 23.5221 13.5587 23.206 14.1213 22.6434C14.6839 22.0808 15 21.3177 15 20.5221V16.2095C13.0148 15.865 10.9852 15.865 9 16.2095V16.2095Z" fill="#37B678"/>
<path d="M10.4062 20.522V16.2095C11.1658 16.0779 11.9331 15.9963 12.7033 15.9654C12.5196 15.9581 12.332 15.9535 12.1406 15.9517C11.0881 15.9433 10.037 16.0296 9 16.2095V20.522C8.99993 20.9758 9.10282 21.4237 9.30093 21.832C9.49904 22.2403 9.7872 22.5983 10.1437 22.879C10.5002 23.1598 10.9158 23.356 11.3591 23.4529C11.8025 23.5498 12.262 23.5448 12.7031 23.4384C12.0486 23.2804 11.4662 22.907 11.0496 22.378C10.633 21.8491 10.4064 21.1954 10.4062 20.522V20.522Z" fill="#00A653"/>
<path d="M12.3516 21.8555H11.6953C11.366 21.8551 11.0502 21.7241 10.8174 21.4912C10.5845 21.2584 10.4535 20.9426 10.4531 20.6133C10.4531 20.52 10.4902 20.4306 10.5561 20.3647C10.622 20.2988 10.7114 20.2617 10.8047 20.2617C10.8979 20.2617 10.9873 20.2988 11.0533 20.3647C11.1192 20.4306 11.1562 20.52 11.1562 20.6133C11.1564 20.7562 11.2133 20.8932 11.3143 20.9943C11.4154 21.0953 11.5524 21.1522 11.6953 21.1523H12.3516C12.4945 21.1522 12.6315 21.0953 12.7326 20.9943C12.8336 20.8932 12.8905 20.7562 12.8906 20.6133V20.4258C12.8905 20.2829 12.8336 20.1458 12.7326 20.0448C12.6315 19.9437 12.4945 19.8869 12.3516 19.8867H11.6953C11.366 19.8863 11.0502 19.7554 10.8174 19.5225C10.5845 19.2896 10.4535 18.9739 10.4531 18.6445V18.457C10.4535 18.1277 10.5845 17.812 10.8174 17.5791C11.0502 17.3462 11.366 17.2152 11.6953 17.2148H12.3516C12.6809 17.2152 12.9966 17.3462 13.2295 17.5791C13.4624 17.812 13.5934 18.1277 13.5938 18.457C13.5937 18.5503 13.5567 18.6397 13.4908 18.7056C13.4248 18.7716 13.3354 18.8086 13.2422 18.8086C13.1489 18.8086 13.0595 18.7716 12.9936 18.7056C12.9277 18.6397 12.8906 18.5503 12.8906 18.457C12.8905 18.3141 12.8336 18.1771 12.7326 18.076C12.6315 17.975 12.4945 17.9181 12.3516 17.918H11.6953C11.5524 17.9181 11.4154 17.975 11.3143 18.076C11.2133 18.1771 11.1564 18.3141 11.1562 18.457V18.6445C11.1564 18.7874 11.2133 18.9245 11.3143 19.0255C11.4154 19.1266 11.5524 19.1834 11.6953 19.1836H12.3516C12.6809 19.184 12.9966 19.315 13.2295 19.5478C13.4624 19.7807 13.5934 20.0964 13.5938 20.4258V20.6133C13.5934 20.9426 13.4624 21.2584 13.2295 21.4912C12.9966 21.7241 12.6809 21.8551 12.3516 21.8555V21.8555Z" fill="#058B48"/>
<path d="M12.0234 17.918C11.9773 17.918 11.9316 17.9089 11.8889 17.8912C11.8462 17.8735 11.8075 17.8477 11.7748 17.815C11.7422 17.7824 11.7163 17.7436 11.6986 17.7009C11.681 17.6583 11.6719 17.6126 11.6719 17.5664V16.7695C11.6719 16.6763 11.7089 16.5869 11.7748 16.5209C11.8408 16.455 11.9302 16.418 12.0234 16.418C12.1167 16.418 12.2061 16.455 12.272 16.5209C12.338 16.5869 12.375 16.6763 12.375 16.7695V17.5664C12.375 17.6126 12.3659 17.6583 12.3482 17.7009C12.3306 17.7436 12.3047 17.7824 12.272 17.815C12.2394 17.8477 12.2006 17.8735 12.158 17.8912C12.1153 17.9089 12.0696 17.918 12.0234 17.918V17.918Z" fill="#058B48"/>
<path d="M16.5469 11.543H15.8906C15.5613 11.5426 15.2455 11.4116 15.0127 11.1787C14.7798 10.9459 14.6488 10.6301 14.6484 10.3008C14.6484 10.2075 14.6855 10.1181 14.7514 10.0522C14.8173 9.98626 14.9068 9.94922 15 9.94922C15.0932 9.94922 15.1827 9.98626 15.2486 10.0522C15.3145 10.1181 15.3516 10.2075 15.3516 10.3008C15.3517 10.4437 15.4086 10.5807 15.5096 10.6818C15.6107 10.7828 15.7477 10.8397 15.8906 10.8398H16.5469C16.6898 10.8397 16.8268 10.7828 16.9279 10.6818C17.0289 10.5807 17.0858 10.4437 17.0859 10.3008V10.1133C17.0858 9.97036 17.0289 9.83335 16.9279 9.73229C16.8268 9.63123 16.6898 9.57439 16.5469 9.57422H15.8906C15.5613 9.57385 15.2455 9.44286 15.0127 9.20998C14.7798 8.97711 14.6488 8.66137 14.6484 8.33203V8.14453C14.6488 7.8152 14.7798 7.49946 15.0127 7.26658C15.2455 7.03371 15.5613 6.90271 15.8906 6.90234H16.5469C16.8762 6.90271 17.192 7.03371 17.4248 7.26658C17.6577 7.49946 17.7887 7.8152 17.7891 8.14453C17.7891 8.23777 17.752 8.32719 17.6861 8.39312C17.6202 8.45905 17.5307 8.49609 17.4375 8.49609C17.3443 8.49609 17.2548 8.45905 17.1889 8.39312C17.123 8.32719 17.0859 8.23777 17.0859 8.14453C17.0858 8.00161 17.0289 7.8646 16.9279 7.76354C16.8268 7.66248 16.6898 7.60564 16.5469 7.60547H15.8906C15.7477 7.60564 15.6107 7.66248 15.5096 7.76354C15.4086 7.8646 15.3517 8.00161 15.3516 8.14453V8.33203C15.3517 8.47495 15.4086 8.61196 15.5096 8.71302C15.6107 8.81408 15.7477 8.87093 15.8906 8.87109H16.5469C16.8762 8.87146 17.192 9.00246 17.4248 9.23533C17.6577 9.46821 17.7887 9.78395 17.7891 10.1133V10.3008C17.7887 10.6301 17.6577 10.9459 17.4248 11.1787C17.192 11.4116 16.8762 11.5426 16.5469 11.543Z" fill="#74563A"/>
<path d="M16.2188 7.60547C16.1726 7.60547 16.1269 7.59638 16.0842 7.57871C16.0416 7.56105 16.0028 7.53515 15.9701 7.50251C15.9375 7.46986 15.9116 7.4311 15.8939 7.38845C15.8763 7.34579 15.8672 7.30008 15.8672 7.25391V6.45703C15.8672 6.36379 15.9042 6.27437 15.9702 6.20844C16.0361 6.14251 16.1255 6.10547 16.2188 6.10547C16.312 6.10547 16.4014 6.14251 16.4673 6.20844C16.5333 6.27437 16.5703 6.36379 16.5703 6.45703V7.25391C16.5703 7.30008 16.5612 7.34579 16.5436 7.38845C16.5259 7.4311 16.5 7.46986 16.4674 7.50251C16.4347 7.53515 16.3959 7.56105 16.3533 7.57871C16.3106 7.59638 16.2649 7.60547 16.2188 7.60547V7.60547ZM16.2188 12.3398C16.1726 12.3398 16.1269 12.3308 16.0842 12.3131C16.0416 12.2954 16.0028 12.2695 15.9701 12.2369C15.9375 12.2042 15.9116 12.1655 15.8939 12.1228C15.8763 12.0802 15.8672 12.0345 15.8672 11.9883V11.1914C15.8672 11.0982 15.9042 11.0087 15.9702 10.9428C16.0361 10.8769 16.1255 10.8398 16.2188 10.8398C16.312 10.8398 16.4014 10.8769 16.4673 10.9428C16.5333 11.0087 16.5703 11.0982 16.5703 11.1914V11.9883C16.5703 12.0345 16.5612 12.0802 16.5436 12.1228C16.5259 12.1655 16.5 12.2042 16.4674 12.2369C16.4347 12.2695 16.3959 12.2954 16.3533 12.3131C16.3106 12.3308 16.2649 12.3398 16.2188 12.3398V12.3398ZM8.10938 11.543H7.45312C7.12379 11.5426 6.80805 11.4116 6.57517 11.1787C6.3423 10.9459 6.21131 10.6301 6.21094 10.3008C6.21094 10.2075 6.24798 10.1181 6.31391 10.0522C6.37984 9.98626 6.46926 9.94922 6.5625 9.94922C6.65574 9.94922 6.74516 9.98626 6.81109 10.0522C6.87702 10.1181 6.91406 10.2075 6.91406 10.3008C6.91423 10.4437 6.97108 10.5807 7.07213 10.6818C7.17319 10.7828 7.31021 10.8397 7.45312 10.8398H8.10938C8.25229 10.8397 8.38931 10.7828 8.49037 10.6818C8.59142 10.5807 8.64827 10.4437 8.64844 10.3008V10.1133C8.64827 9.97036 8.59142 9.83335 8.49037 9.73229C8.38931 9.63123 8.25229 9.57439 8.10938 9.57422H7.45312C7.12379 9.57385 6.80805 9.44286 6.57517 9.20998C6.3423 8.97711 6.21131 8.66137 6.21094 8.33203V8.14453C6.21131 7.8152 6.3423 7.49946 6.57517 7.26658C6.80805 7.03371 7.12379 6.90271 7.45312 6.90234H8.10938C8.43871 6.90271 8.75445 7.03371 8.98733 7.26658C9.2202 7.49946 9.35119 7.8152 9.35156 8.14453C9.35156 8.23777 9.31452 8.32719 9.24859 8.39312C9.18266 8.45905 9.09324 8.49609 9 8.49609C8.90676 8.49609 8.81734 8.45905 8.75141 8.39312C8.68548 8.32719 8.64844 8.23777 8.64844 8.14453C8.64827 8.00161 8.59142 7.8646 8.49037 7.76354C8.38931 7.66248 8.25229 7.60564 8.10938 7.60547H7.45312C7.31021 7.60564 7.17319 7.66248 7.07213 7.76354C6.97108 7.8646 6.91423 8.00161 6.91406 8.14453V8.33203C6.91423 8.47495 6.97108 8.61196 7.07213 8.71302C7.17319 8.81408 7.31021 8.87093 7.45312 8.87109H8.10938C8.43871 8.87146 8.75445 9.00246 8.98733 9.23533C9.2202 9.46821 9.35119 9.78395 9.35156 10.1133V10.3008C9.35119 10.6301 9.2202 10.9459 8.98733 11.1787C8.75445 11.4116 8.43871 11.5426 8.10938 11.543V11.543Z" fill="#74563A"/>
<path d="M7.78125 7.60547C7.73508 7.60547 7.68936 7.59638 7.64671 7.57871C7.60405 7.56105 7.5653 7.53515 7.53265 7.50251C7.5 7.46986 7.47411 7.4311 7.45644 7.38845C7.43878 7.34579 7.42968 7.30008 7.42969 7.25391V6.45703C7.42969 6.36379 7.46673 6.27437 7.53266 6.20844C7.59859 6.14251 7.68801 6.10547 7.78125 6.10547C7.87449 6.10547 7.96391 6.14251 8.02984 6.20844C8.09577 6.27437 8.13281 6.36379 8.13281 6.45703V7.25391C8.13282 7.30008 8.12372 7.34579 8.10606 7.38845C8.08839 7.4311 8.0625 7.46986 8.02985 7.50251C7.9972 7.53515 7.95845 7.56105 7.91579 7.57871C7.87314 7.59638 7.82742 7.60547 7.78125 7.60547ZM7.78125 12.3398C7.73508 12.3398 7.68936 12.3308 7.64671 12.3131C7.60405 12.2954 7.5653 12.2695 7.53265 12.2369C7.5 12.2042 7.47411 12.1655 7.45644 12.1228C7.43878 12.0802 7.42968 12.0345 7.42969 11.9883V11.1914C7.42969 11.0982 7.46673 11.0087 7.53266 10.9428C7.59859 10.8769 7.68801 10.8398 7.78125 10.8398C7.87449 10.8398 7.96391 10.8769 8.02984 10.9428C8.09577 11.0087 8.13281 11.0982 8.13281 11.1914V11.9883C8.13282 12.0345 8.12372 12.0802 8.10606 12.1228C8.08839 12.1655 8.0625 12.2042 8.02985 12.2369C7.9972 12.2695 7.95845 12.2954 7.91579 12.3131C7.87314 12.3308 7.82742 12.3398 7.78125 12.3398Z" fill="#74563A"/>
</svg>
