<svg width="50" height="50" viewBox="0 0 50 50" fill="none" xmlns="http://www.w3.org/2000/svg">
<g id="Icon / Pin">
<path id="Vector" d="M25.0002 24.479C26.0071 24.479 26.8665 24.1231 27.5783 23.4113C28.2901 22.6995 28.646 21.8401 28.646 20.8332C28.646 19.8262 28.2901 18.9669 27.5783 18.255C26.8665 17.5432 26.0071 17.1873 25.0002 17.1873C23.9932 17.1873 23.1338 17.5432 22.422 18.255C21.7102 18.9669 21.3543 19.8262 21.3543 20.8332C21.3543 21.8401 21.7102 22.6995 22.422 23.4113C23.1338 24.1231 23.9932 24.479 25.0002 24.479ZM25.0522 45.2082C24.8092 45.2082 24.5835 45.1734 24.3752 45.104C24.1668 45.0346 23.9759 44.9304 23.8022 44.7915C18.6286 40.2429 14.7571 36.0241 12.1877 32.1353C9.61822 28.2464 8.3335 24.6179 8.3335 21.2498C8.3335 16.0415 10.0088 11.8922 13.3595 8.80192C16.7102 5.71164 20.5904 4.1665 25.0002 4.1665C29.4099 4.1665 33.2901 5.71164 36.6408 8.80192C39.9915 11.8922 41.6668 16.0415 41.6668 21.2498C41.6668 24.6179 40.3821 28.2464 37.8127 32.1353C35.2432 36.0241 31.3717 40.2429 26.1981 44.7915C26.0245 44.9304 25.8422 45.0346 25.6512 45.104C25.4602 45.1734 25.2606 45.2082 25.0522 45.2082Z" fill="#D06224"/>
</g>
</svg>
