<svg width="32" height="32" viewBox="0 0 32 32" fill="none" xmlns="http://www.w3.org/2000/svg">
<g id="Icons/ social">
<path id="Vector" d="M7.97791 3.42871C5.45785 3.42871 3.42871 5.45785 3.42871 7.97791V23.7938C3.42871 26.3139 5.45785 28.343 7.97791 28.343H16.55V18.6031H13.9745V15.0964H16.55V12.1005C16.55 9.74668 18.0717 7.58551 21.5772 7.58551C22.9965 7.58551 24.0461 7.72177 24.0461 7.72177L23.9635 10.9965C23.9635 10.9965 22.8931 10.9863 21.7251 10.9863C20.461 10.9863 20.2583 11.5688 20.2583 12.5357V15.0964H24.064L23.8981 18.6031H20.2583V28.343H23.7938C26.3139 28.343 28.343 26.3139 28.343 23.7938V7.97794C28.343 5.45788 26.3139 3.42874 23.7938 3.42874H7.97789L7.97791 3.42871Z" fill="black"/>
</g>
</svg>
