<svg width="24" height="25" viewBox="0 0 24 25" fill="none" xmlns="http://www.w3.org/2000/svg">
<path d="M20.0013 13.846C20.0013 12.5687 18.9525 11.5312 17.6592 11.5312C15.8139 11.4539 13.9261 11.4198 12.0001 11.4238C10.0741 11.4198 8.1856 11.4539 6.34037 11.5312C5.0477 11.5312 3.99887 12.5687 3.99887 13.846C3.92096 14.8584 3.88745 15.8715 3.8903 16.8833C3.88745 17.8958 3.92101 18.9083 3.99887 19.9207C3.99887 21.1985 5.0477 22.236 6.34037 22.236C8.18565 22.3129 10.0741 22.3469 12.0001 22.3435C13.9261 22.3469 15.8139 22.3129 17.6592 22.236C18.9525 22.236 20.0013 21.1985 20.0013 19.9207C20.0791 18.9083 20.1128 17.8958 20.1093 16.8833C20.1128 15.8715 20.0791 14.8583 20.0013 13.846ZM7.40171 20.3675H6.29377V14.2342H5.14721V13.1928H8.54837V14.2342H7.40176V20.3675H7.40171ZM11.3435 20.3675H10.3595V19.7837C10.1787 19.9992 9.99001 20.1628 9.79327 20.2753C9.59715 20.388 9.40674 20.4442 9.22196 20.4442C8.99452 20.4442 8.82348 20.3657 8.70807 20.2084C8.59271 20.0503 8.53468 19.8138 8.53468 19.4995V15.075H9.51873V19.1322C9.51873 19.2578 9.53973 19.3488 9.5807 19.4045C9.62218 19.4608 9.6887 19.4893 9.7808 19.4893C9.8536 19.4893 9.94506 19.4517 10.0554 19.3778C10.1656 19.3034 10.2674 19.2084 10.3595 19.093V15.075H11.3435V20.3675ZM15.1313 19.2715C15.1313 19.6477 15.0545 19.9355 14.901 20.1356C14.7464 20.3351 14.5235 20.4352 14.232 20.4352C14.0398 20.4352 13.8681 20.3966 13.7175 20.3186C13.5668 20.2413 13.4264 20.1224 13.2974 19.961V20.3675H12.3037V13.1929H13.2974V15.503C13.4298 15.3411 13.5702 15.2189 13.7197 15.1347C13.8686 15.0507 14.0199 15.0085 14.1722 15.0085C14.4838 15.0085 14.7219 15.1216 14.8851 15.3474C15.0494 15.5735 15.1313 15.9028 15.1313 16.3348V19.2715ZM18.7689 17.8458H16.8867V18.844C16.8867 19.1225 16.9191 19.3153 16.9844 19.4232C17.0487 19.5313 17.1595 19.5846 17.3164 19.5846C17.479 19.5846 17.5932 19.5392 17.6587 19.4476C17.7235 19.3567 17.7559 19.1555 17.7559 18.844V18.476H18.7689V18.874C18.7689 19.4163 18.6455 19.8245 18.3988 20.0996C18.1521 20.3736 17.7843 20.5111 17.2937 20.5111C16.8537 20.5111 16.5069 20.3656 16.2534 20.0747C16.001 19.7836 15.8737 19.3834 15.8737 18.874V16.4983C15.8737 16.0384 16.0129 15.6643 16.2909 15.3751C16.5689 15.0858 16.9282 14.9412 17.3681 14.9412C17.8188 14.9412 18.164 15.0754 18.4061 15.3426C18.6477 15.611 18.7689 15.9958 18.7689 16.4983V17.8458H18.7689ZM12.4941 9.67114C12.3781 9.51308 12.3212 9.27716 12.3212 8.96225V4.53842H13.3047V8.59559C13.3047 8.72122 13.3252 8.81159 13.3666 8.86789C13.4081 8.92358 13.4746 8.95203 13.5668 8.95203C13.6395 8.95203 13.731 8.91505 13.8413 8.84061C13.9522 8.76617 14.0533 8.6712 14.1455 8.5558V4.53842H15.1295V9.83084H14.1455V9.2465C13.9641 9.46194 13.7754 9.62567 13.5793 9.73878C13.3831 9.85077 13.1927 9.90762 13.0085 9.90762C12.7806 9.90762 12.6095 9.82864 12.4941 9.67114ZM8.62904 8.49214C8.62904 8.94177 8.75865 9.29989 9.01674 9.56539C9.27479 9.83202 9.61927 9.96444 10.0496 9.96444C10.497 9.96444 10.8477 9.83595 11.1031 9.57786C11.3583 9.31981 11.4856 8.96506 11.4856 8.51145V5.77822C11.4856 5.37463 11.3554 5.0443 11.0956 4.7885C10.8353 4.5327 10.5022 4.40422 10.0946 4.40422C9.64721 4.40422 9.29134 4.52586 9.02645 4.76919C8.76155 5.01195 8.62904 5.3382 8.62904 5.74808V8.49214ZM9.64154 5.70833C9.64154 5.59236 9.6796 5.49917 9.75409 5.42806C9.8297 5.357 9.92691 5.32175 10.0469 5.32175C10.1776 5.32175 10.2822 5.357 10.3624 5.42806C10.4425 5.49913 10.4823 5.59231 10.4823 5.70833V8.59105C10.4823 8.73317 10.4431 8.84516 10.3652 8.92587C10.2867 9.00716 10.1799 9.04752 10.0468 9.04752C9.91665 9.04752 9.81718 9.00828 9.74663 8.92869C9.67618 8.84909 9.64149 8.73655 9.64149 8.591V5.70833H9.64154ZM14.0136 15.988C14.0835 16.0806 14.1188 16.2159 14.1188 16.3944V19.1277C14.1188 19.2966 14.0904 19.4176 14.0335 19.4927C13.9767 19.5665 13.8885 19.6035 13.7681 19.6035C13.6845 19.6035 13.6054 19.5847 13.5305 19.5466C13.4554 19.5086 13.3775 19.4465 13.2974 19.3607V16.0625C13.3639 15.9896 13.4315 15.9357 13.5003 15.901C13.5691 15.8664 13.6379 15.8487 13.7083 15.8487C13.8414 15.8487 13.9431 15.8952 14.0136 15.988ZM17.6536 16.0119C17.7218 16.1079 17.7559 16.2671 17.7559 16.4883V17.0237H16.8867V16.4883C16.8867 16.2671 16.9208 16.1079 16.989 16.0119C17.0572 15.9163 17.1698 15.868 17.3261 15.868C17.4762 15.868 17.5853 15.9163 17.6536 16.0119ZM6.28126 6.98797L4.96243 2.65625H6.07895L6.79801 5.5242H6.86734L7.55349 2.65625H8.67905L7.38915 6.85381V9.83089H6.28126V6.98797Z" fill="#090909"/>
</svg>
