<svg width="56" height="56" viewBox="0 0 56 56" fill="none" xmlns="http://www.w3.org/2000/svg">
<g id="Icon / Briefcase" clip-path="url(#clip0_2548_37721)">
<path id="Vector" d="M22.75 3.5C21.3576 3.5 20.0223 4.05312 19.0377 5.03769C18.0531 6.02226 17.5 7.35761 17.5 8.75V10.5H5.25C3.85761 10.5 2.52226 11.0531 1.53769 12.0377C0.553123 13.0223 0 14.3576 0 15.75L0 43.75C0 45.1424 0.553123 46.4777 1.53769 47.4623C2.52226 48.4469 3.85761 49 5.25 49H50.75C52.1424 49 53.4777 48.4469 54.4623 47.4623C55.4469 46.4777 56 45.1424 56 43.75V15.75C56 14.3576 55.4469 13.0223 54.4623 12.0377C53.4777 11.0531 52.1424 10.5 50.75 10.5H38.5V8.75C38.5 7.35761 37.9469 6.02226 36.9623 5.03769C35.9777 4.05312 34.6424 3.5 33.25 3.5H22.75ZM22.75 7H33.25C33.7141 7 34.1592 7.18437 34.4874 7.51256C34.8156 7.84075 35 8.28587 35 8.75V10.5H21V8.75C21 8.28587 21.1844 7.84075 21.5126 7.51256C21.8408 7.18437 22.2859 7 22.75 7ZM29.351 31.199L52.5 25.0285V43.75C52.5 44.2141 52.3156 44.6592 51.9874 44.9874C51.6592 45.3156 51.2141 45.5 50.75 45.5H5.25C4.78587 45.5 4.34075 45.3156 4.01256 44.9874C3.68437 44.6592 3.5 44.2141 3.5 43.75V25.025L26.649 31.199C27.5342 31.4347 28.4658 31.4347 29.351 31.199ZM5.25 14H50.75C51.2141 14 51.6592 14.1844 51.9874 14.5126C52.3156 14.8408 52.5 15.2859 52.5 15.75V21.406L28.4515 27.818C28.1557 27.897 27.8443 27.897 27.5485 27.818L3.5 21.406V15.75C3.5 15.2859 3.68437 14.8408 4.01256 14.5126C4.34075 14.1844 4.78587 14 5.25 14Z" fill="#6F6E6E"/>
</g>
<defs>
<clipPath id="clip0_2548_37721">
<rect width="56" height="56" fill="white"/>
</clipPath>
</defs>
</svg>
