<svg width="60" height="60" viewBox="0 0 60 60" fill="none" xmlns="http://www.w3.org/2000/svg">
<g id="Icon / Checkmark" clip-path="url(#clip0_444_23789)">
<path id="Vector" d="M29.9997 3.33398C24.7255 3.33398 19.5698 4.89796 15.1845 7.82813C10.7992 10.7583 7.38124 14.9231 5.3629 19.7958C3.34456 24.6685 2.81647 30.0302 3.84541 35.2031C4.87435 40.3759 7.41411 45.1274 11.1435 48.8568C14.8729 52.5862 19.6245 55.126 24.7973 56.1549C29.9701 57.1839 35.3319 56.6558 40.2046 54.6374C45.0773 52.6191 49.242 49.2012 52.1722 44.8159C55.1024 40.4305 56.6664 35.2748 56.6664 30.0007C56.6664 22.9282 53.8568 16.1454 48.8559 11.1445C43.8549 6.1435 37.0721 3.33398 29.9997 3.33398ZM29.9997 53.334C25.3848 53.334 20.8735 51.9655 17.0364 49.4016C13.1992 46.8377 10.2085 43.1935 8.4425 38.9299C6.67645 34.6663 6.21438 29.9748 7.1147 25.4485C8.01502 20.9223 10.2373 16.7647 13.5005 13.5015C16.7638 10.2383 20.9214 8.01598 25.4476 7.11566C29.9738 6.21534 34.6654 6.67742 38.929 8.44346C43.1926 10.2095 46.8368 13.2002 49.4007 17.0373C51.9645 20.8745 53.333 25.3858 53.333 30.0007C53.333 36.189 50.8747 42.124 46.4988 46.4998C42.123 50.8757 36.1881 53.334 29.9997 53.334Z" fill="#D06224"/>
<path id="Vector_2" d="M46.6669 20.1663C46.3546 19.8559 45.9322 19.6816 45.4919 19.6816C45.0516 19.6816 44.6292 19.8559 44.3169 20.1663L25.8169 38.583L15.8169 28.583C15.5119 28.2537 15.0886 28.059 14.64 28.0418C14.1915 28.0246 13.7545 28.1863 13.4252 28.4913C13.0959 28.7963 12.9012 29.2196 12.8841 29.6681C12.8669 30.1167 13.0286 30.5537 13.3336 30.883L25.8169 43.333L46.6669 22.533C46.8231 22.378 46.9471 22.1937 47.0317 21.9906C47.1163 21.7875 47.1599 21.5696 47.1599 21.3496C47.1599 21.1296 47.1163 20.9118 47.0317 20.7087C46.9471 20.5056 46.8231 20.3212 46.6669 20.1663Z" fill="#D06224"/>
</g>
<defs>
<clipPath id="clip0_444_23789">
<rect width="60" height="60" fill="white"/>
</clipPath>
</defs>
</svg>
