<svg width="60" height="60" viewBox="0 0 60 60" fill="none" xmlns="http://www.w3.org/2000/svg">
<g id="Icon / Checkmark" clip-path="url(#clip0_444_26798)">
<path id="Vector" d="M30 3.33301C24.7258 3.33301 19.5701 4.89698 15.1848 7.82715C10.7995 10.7573 7.38155 14.9221 5.36321 19.7948C3.34487 24.6675 2.81679 30.0293 3.84573 35.2021C4.87466 40.3749 7.41442 45.1265 11.1438 48.8559C14.8732 52.5853 19.6248 55.125 24.7976 56.154C29.9704 57.1829 35.3322 56.6548 40.2049 54.6365C45.0776 52.6181 49.2424 49.2002 52.1725 44.8149C55.1027 40.4296 56.6667 35.2738 56.6667 29.9997C56.6667 22.9272 53.8572 16.1445 48.8562 11.1435C43.8552 6.14252 37.0724 3.33301 30 3.33301ZM30 53.333C25.3851 53.333 20.8738 51.9645 17.0367 49.4006C13.1995 46.8367 10.2089 43.1926 8.44281 38.929C6.67677 34.6653 6.21469 29.9738 7.11501 25.4476C8.01533 20.9213 10.2376 16.7637 13.5008 13.5005C16.7641 10.2373 20.9217 8.01501 25.4479 7.11469C29.9741 6.21436 34.6657 6.67644 38.9293 8.44249C43.1929 10.2085 46.8371 13.1992 49.401 17.0364C51.9649 20.8735 53.3333 25.3848 53.3333 29.9997C53.3333 36.1881 50.875 42.123 46.4992 46.4988C42.1233 50.8747 36.1884 53.333 30 53.333Z" fill="#747474"/>
<path id="Vector_2" d="M46.6667 20.1663C46.3544 19.8559 45.932 19.6816 45.4917 19.6816C45.0514 19.6816 44.6289 19.8559 44.3167 20.1663L25.8167 38.583L15.8167 28.583C15.5117 28.2537 15.0883 28.059 14.6398 28.0418C14.1913 28.0246 13.7543 28.1863 13.425 28.4913C13.0957 28.7963 12.901 29.2196 12.8838 29.6681C12.8666 30.1167 13.0283 30.5537 13.3333 30.883L25.8167 43.333L46.6667 22.533C46.8229 22.378 46.9469 22.1937 47.0315 21.9906C47.1161 21.7875 47.1597 21.5696 47.1597 21.3496C47.1597 21.1296 47.1161 20.9118 47.0315 20.7087C46.9469 20.5056 46.8229 20.3212 46.6667 20.1663Z" fill="#747474"/>
</g>
<defs>
<clipPath id="clip0_444_26798">
<rect width="60" height="60" fill="white"/>
</clipPath>
</defs>
</svg>
