<svg width="24" height="24" viewBox="0 0 24 24" fill="none" xmlns="http://www.w3.org/2000/svg">
<g id="Icon / Down Arrow">
<path id="Vector" d="M19.4972 7.98878L12.0002 15.2968L4.50324 7.98878C4.36929 7.85795 4.18948 7.7847 4.00224 7.7847C3.815 7.7847 3.63518 7.85795 3.50124 7.98878C3.43638 8.05233 3.38485 8.12818 3.34968 8.21189C3.3145 8.2956 3.29639 8.38548 3.29639 8.47628C3.29639 8.56708 3.3145 8.65697 3.34968 8.74068C3.38485 8.82439 3.43638 8.90024 3.50124 8.96378L11.4767 16.7398C11.6168 16.8763 11.8046 16.9527 12.0002 16.9527C12.1958 16.9527 12.3837 16.8763 12.5237 16.7398L20.4992 8.96528C20.5646 8.90169 20.6165 8.82565 20.6519 8.74167C20.6874 8.65768 20.7056 8.56744 20.7056 8.47628C20.7056 8.38512 20.6874 8.29488 20.6519 8.2109C20.6165 8.12691 20.5646 8.05088 20.4992 7.98728C20.3653 7.85645 20.1855 7.7832 19.9982 7.7832C19.811 7.7832 19.6312 7.85645 19.4972 7.98728V7.98878Z" fill="#6F6E6E"/>
</g>
</svg>
