<svg width="56" height="56" viewBox="0 0 56 56" fill="none" xmlns="http://www.w3.org/2000/svg">
<g id="Icon / Gift Card">
<path id="Vector" d="M5.6001 18.8992C5.6001 16.8571 6.41135 14.8985 7.85538 13.4545C9.29941 12.0105 11.2579 11.1992 13.3001 11.1992H42.7001C44.7423 11.1992 46.7008 12.0105 48.1448 13.4545C49.5888 14.8985 50.4001 16.8571 50.4001 18.8992V37.0992C50.4001 39.1414 49.5888 41.0999 48.1448 42.5439C46.7008 43.988 44.7423 44.7992 42.7001 44.7992H13.3001C11.2579 44.7992 9.29941 43.988 7.85538 42.5439C6.41135 41.0999 5.6001 39.1414 5.6001 37.0992V18.8992ZM8.4001 27.9992V37.0992C8.4001 39.804 10.5953 41.9992 13.3001 41.9992H19.6001V29.9788L14.9913 34.5904C14.7284 34.8533 14.3719 35.001 14.0001 35.001C13.6283 35.001 13.2718 34.8533 13.0089 34.5904C12.746 34.3275 12.5983 33.971 12.5983 33.5992C12.5983 33.2274 12.746 32.8709 13.0089 32.608L17.6205 27.9992H8.4001ZM11.9505 25.1992C11.3342 24.1316 11.0874 22.8905 11.2484 21.6684C11.4093 20.4463 11.969 19.3114 12.8406 18.4398C13.7123 17.5681 14.8472 17.0084 16.0693 16.8475C17.2914 16.6865 18.5325 16.9334 19.6001 17.5496V13.9992H13.3001C12.0005 13.9992 10.7542 14.5155 9.83527 15.4344C8.91635 16.3533 8.4001 17.5997 8.4001 18.8992V25.1992H11.9505ZM16.8001 25.1992H19.6001V22.3992C19.6001 21.8454 19.4359 21.3041 19.1282 20.8436C18.8205 20.3832 18.3832 20.0243 17.8716 19.8124C17.36 19.6004 16.797 19.545 16.2538 19.653C15.7107 19.7611 15.2118 20.0277 14.8202 20.4193C14.4286 20.8109 14.1619 21.3098 14.0539 21.853C13.9459 22.3961 14.0013 22.9591 14.2132 23.4707C14.4252 23.9824 14.784 24.4197 15.2445 24.7273C15.705 25.035 16.2463 25.1992 16.8001 25.1992ZM22.4001 22.3992V25.1992H25.2001C25.7539 25.1992 26.2952 25.035 26.7557 24.7273C27.2162 24.4197 27.575 23.9824 27.787 23.4707C27.9989 22.9591 28.0543 22.3961 27.9463 21.853C27.8383 21.3098 27.5716 20.8109 27.18 20.4193C26.7884 20.0277 26.2895 19.7611 25.7463 19.653C25.2032 19.545 24.6402 19.6004 24.1286 19.8124C23.6169 20.0243 23.1797 20.3832 22.872 20.8436C22.5643 21.3041 22.4001 21.8454 22.4001 22.3992ZM30.0497 25.1992H47.6001V18.8992C47.6001 17.5997 47.0838 16.3533 46.1649 15.4344C45.246 14.5155 43.9997 13.9992 42.7001 13.9992H22.4001V17.5496C23.4677 16.9334 24.7088 16.6865 25.9309 16.8475C27.153 17.0084 28.2879 17.5681 29.1596 18.4398C30.0312 19.3114 30.5909 20.4463 30.7518 21.6684C30.9128 22.8905 30.666 24.1316 30.0497 25.1992ZM24.3797 27.9992L28.9913 32.608C29.2542 32.8709 29.4019 33.2274 29.4019 33.5992C29.4019 33.971 29.2542 34.3275 28.9913 34.5904C28.7284 34.8533 28.3719 35.001 28.0001 35.001C27.6283 35.001 27.2718 34.8533 27.0089 34.5904L22.4001 29.9788V41.9992H42.7001C43.9997 41.9992 45.246 41.483 46.1649 40.564C47.0838 39.6451 47.6001 38.3988 47.6001 37.0992V27.9992H24.3797Z" fill="#6F6E6E"/>
</g>
</svg>
