<svg width="24" height="25" viewBox="0 0 24 25" fill="none" xmlns="http://www.w3.org/2000/svg">
<path d="M17.9189 14.6764C17.6599 14.9274 17.5409 15.2904 17.5999 15.6464L18.4889 20.5664C18.5639 20.9834 18.3879 21.4054 18.0389 21.6464C17.6969 21.8964 17.2419 21.9264 16.8689 21.7264L12.4399 19.4164C12.2859 19.3344 12.1149 19.2904 11.9399 19.2854H11.6689C11.5749 19.2994 11.4829 19.3294 11.3989 19.3754L6.96888 21.6964C6.74988 21.8064 6.50188 21.8454 6.25888 21.8064C5.66688 21.6944 5.27188 21.1304 5.36888 20.5354L6.25888 15.6154C6.31788 15.2564 6.19888 14.8914 5.93988 14.6364L2.32888 11.1364C2.02688 10.8434 1.92188 10.4034 2.05988 10.0064C2.19388 9.61045 2.53588 9.32145 2.94888 9.25645L7.91888 8.53545C8.29688 8.49645 8.62888 8.26645 8.79888 7.92645L10.9889 3.43645C11.0409 3.33645 11.1079 3.24445 11.1889 3.16645L11.2789 3.09645C11.3259 3.04445 11.3799 3.00145 11.4399 2.96645L11.5489 2.92645L11.7189 2.85645H12.1399C12.5159 2.89545 12.8469 3.12045 13.0199 3.45645L15.2389 7.92645C15.3989 8.25345 15.7099 8.48045 16.0689 8.53545L21.0389 9.25645C21.4589 9.31645 21.8099 9.60645 21.9489 10.0064C22.0799 10.4074 21.9669 10.8474 21.6589 11.1364L17.9189 14.6764Z" fill="#130F26"/>
</svg>
