<svg width="48" height="48" viewBox="0 0 48 48" fill="none" xmlns="http://www.w3.org/2000/svg">
<path fill-rule="evenodd" clip-rule="evenodd" d="M20.1601 37.1855H7.55811C6.73011 37.1855 6.05811 36.5135 6.05811 35.6855C6.05811 34.8575 6.73011 34.1855 7.55811 34.1855H20.1601C20.9881 34.1855 21.6601 34.8575 21.6601 35.6855C21.6601 36.5135 20.9881 37.1855 20.1601 37.1855" fill="#D06224"/>
<path fill-rule="evenodd" clip-rule="evenodd" d="M38.3817 17.8008H25.7817C24.9537 17.8008 24.2817 17.1288 24.2817 16.3008C24.2817 15.4728 24.9537 14.8008 25.7817 14.8008H38.3817C39.2097 14.8008 39.8817 15.4728 39.8817 16.3008C39.8817 17.1288 39.2097 17.8008 38.3817 17.8008" fill="#D06224"/>
<mask id="mask0_444_24745" style="mask-type:alpha" maskUnits="userSpaceOnUse" x="6" y="10" width="13" height="13">
<path fill-rule="evenodd" clip-rule="evenodd" d="M6 10H18.4516V22.3832H6V10Z" fill="white"/>
</mask>
<g mask="url(#mask0_444_24745)">
<path fill-rule="evenodd" clip-rule="evenodd" d="M12.2255 13C10.4475 13 8.99951 14.432 8.99951 16.194C8.99951 17.954 10.4475 19.384 12.2255 19.384C14.0055 19.384 15.4515 17.954 15.4515 16.194C15.4515 14.432 14.0055 13 12.2255 13M12.2255 22.384C8.79351 22.384 5.99951 19.608 5.99951 16.194C5.99951 12.78 8.79351 10 12.2255 10C15.6595 10 18.4515 12.78 18.4515 16.194C18.4515 19.608 15.6595 22.384 12.2255 22.384" fill="#D06224"/>
</g>
<path fill-rule="evenodd" clip-rule="evenodd" d="M34.7754 32.416C32.9954 32.416 31.5474 33.848 31.5474 35.608C31.5474 37.37 32.9954 38.8 34.7754 38.8C36.5534 38.8 37.9994 37.37 37.9994 35.608C37.9994 33.848 36.5534 32.416 34.7754 32.416M34.7754 41.8C31.3414 41.8 28.5474 39.022 28.5474 35.608C28.5474 32.194 31.3414 29.416 34.7754 29.416C38.2074 29.416 40.9994 32.194 40.9994 35.608C40.9994 39.022 38.2074 41.8 34.7754 41.8" fill="#D06224"/>
</svg>
