<svg width="24" height="25" viewBox="0 0 24 25" fill="none" xmlns="http://www.w3.org/2000/svg">
<path d="M17.9184 14.7731C17.6594 15.0241 17.5404 15.3871 17.5994 15.7431L18.4884 20.6631C18.5634 21.0801 18.3874 21.5021 18.0384 21.7431C17.6964 21.9931 17.2414 22.0231 16.8684 21.8231L12.4394 19.5131C12.2854 19.4311 12.1144 19.3871 11.9394 19.3821H11.6684C11.5744 19.3961 11.4824 19.4261 11.3984 19.4721L6.96839 21.7931C6.74939 21.9031 6.50139 21.9421 6.25839 21.9031C5.66639 21.7911 5.27139 21.2271 5.36839 20.6321L6.25839 15.7121C6.31739 15.3531 6.19839 14.9881 5.93939 14.7331L2.32839 11.2331C2.02639 10.9401 1.92139 10.5001 2.05939 10.1031C2.19339 9.70713 2.53539 9.41813 2.94839 9.35313L7.91839 8.63212C8.29639 8.59312 8.62839 8.36313 8.79839 8.02313L10.9884 3.53312C11.0404 3.43312 11.1074 3.34113 11.1884 3.26313L11.2784 3.19312C11.3254 3.14112 11.3794 3.09812 11.4394 3.06312L11.5484 3.02313L11.7184 2.95312H12.1394C12.5154 2.99213 12.8464 3.21713 13.0194 3.55313L15.2384 8.02313C15.3984 8.35013 15.7094 8.57712 16.0684 8.63212L21.0384 9.35313C21.4584 9.41313 21.8094 9.70313 21.9484 10.1031C22.0794 10.5041 21.9664 10.9441 21.6584 11.2331L17.9184 14.7731Z" fill="#130F26"/>
</svg>
