<svg width="24" height="25" viewBox="0 0 24 25" fill="none" xmlns="http://www.w3.org/2000/svg">
<path d="M17.9184 14.7262C17.6594 14.9772 17.5404 15.3402 17.5994 15.6962L18.4884 20.6162C18.5634 21.0332 18.3874 21.4553 18.0384 21.6963C17.6964 21.9463 17.2414 21.9763 16.8684 21.7763L12.4394 19.4662C12.2854 19.3842 12.1144 19.3403 11.9394 19.3353H11.6684C11.5744 19.3493 11.4824 19.3792 11.3984 19.4252L6.96839 21.7463C6.74939 21.8563 6.50139 21.8953 6.25839 21.8563C5.66639 21.7443 5.27139 21.1803 5.36839 20.5853L6.25839 15.6652C6.31739 15.3062 6.19839 14.9412 5.93939 14.6862L2.32839 11.1862C2.02639 10.8932 1.92139 10.4533 2.05939 10.0563C2.19339 9.66025 2.53539 9.37125 2.94839 9.30625L7.91839 8.58525C8.29639 8.54625 8.62839 8.31625 8.79839 7.97625L10.9884 3.48625C11.0404 3.38625 11.1074 3.29425 11.1884 3.21625L11.2784 3.14625C11.3254 3.09425 11.3794 3.05125 11.4394 3.01625L11.5484 2.97625L11.7184 2.90625H12.1394C12.5154 2.94525 12.8464 3.17025 13.0194 3.50625L15.2384 7.97625C15.3984 8.30325 15.7094 8.53025 16.0684 8.58525L21.0384 9.30625C21.4584 9.36625 21.8094 9.65625 21.9484 10.0563C22.0794 10.4573 21.9664 10.8972 21.6584 11.1862L17.9184 14.7262Z" fill="#130F26"/>
</svg>
