<svg width="24" height="25" viewBox="0 0 24 25" fill="none" xmlns="http://www.w3.org/2000/svg">
<path d="M17.9184 14.6813C17.6594 14.9323 17.5404 15.2953 17.5994 15.6513L18.4884 20.5713C18.5634 20.9883 18.3874 21.4103 18.0384 21.6513C17.6964 21.9013 17.2414 21.9313 16.8684 21.7313L12.4394 19.4213C12.2854 19.3393 12.1144 19.2953 11.9394 19.2903H11.6684C11.5744 19.3043 11.4824 19.3343 11.3984 19.3803L6.96839 21.7013C6.74939 21.8113 6.50139 21.8503 6.25839 21.8113C5.66639 21.6993 5.27139 21.1353 5.36839 20.5403L6.25839 15.6203C6.31739 15.2613 6.19839 14.8963 5.93939 14.6413L2.32839 11.1413C2.02639 10.8483 1.92139 10.4083 2.05939 10.0113C2.19339 9.61533 2.53539 9.32633 2.94839 9.26133L7.91839 8.54033C8.29639 8.50133 8.62839 8.27133 8.79839 7.93133L10.9884 3.44133C11.0404 3.34133 11.1074 3.24933 11.1884 3.17133L11.2784 3.10133C11.3254 3.04933 11.3794 3.00633 11.4394 2.97133L11.5484 2.93133L11.7184 2.86133H12.1394C12.5154 2.90033 12.8464 3.12533 13.0194 3.46133L15.2384 7.93133C15.3984 8.25833 15.7094 8.48533 16.0684 8.54033L21.0384 9.26133C21.4584 9.32133 21.8094 9.61133 21.9484 10.0113C22.0794 10.4123 21.9664 10.8523 21.6584 11.1413L17.9184 14.6813Z" fill="#130F26"/>
</svg>
