<svg width="24" height="25" viewBox="0 0 24 25" fill="none" xmlns="http://www.w3.org/2000/svg">
<path d="M17.9184 14.6325C17.6594 14.8835 17.5404 15.2465 17.5994 15.6025L18.4884 20.5225C18.5634 20.9395 18.3874 21.3615 18.0384 21.6025C17.6964 21.8525 17.2414 21.8825 16.8684 21.6825L12.4394 19.3725C12.2854 19.2905 12.1144 19.2465 11.9394 19.2415H11.6684C11.5744 19.2555 11.4824 19.2855 11.3984 19.3315L6.96839 21.6525C6.74939 21.7625 6.50139 21.8015 6.25839 21.7625C5.66639 21.6505 5.27139 21.0865 5.36839 20.4915L6.25839 15.5715C6.31739 15.2125 6.19839 14.8475 5.93939 14.5925L2.32839 11.0925C2.02639 10.7995 1.92139 10.3595 2.05939 9.9625C2.19339 9.5665 2.53539 9.2775 2.94839 9.2125L7.91839 8.4915C8.29639 8.4525 8.62839 8.2225 8.79839 7.8825L10.9884 3.3925C11.0404 3.2925 11.1074 3.2005 11.1884 3.1225L11.2784 3.0525C11.3254 3.0005 11.3794 2.9575 11.4394 2.9225L11.5484 2.8825L11.7184 2.8125H12.1394C12.5154 2.8515 12.8464 3.0765 13.0194 3.4125L15.2384 7.8825C15.3984 8.2095 15.7094 8.4365 16.0684 8.4915L21.0384 9.2125C21.4584 9.2725 21.8094 9.5625 21.9484 9.9625C22.0794 10.3635 21.9664 10.8035 21.6584 11.0925L17.9184 14.6325Z" fill="#130F26"/>
</svg>
