<svg width="24" height="25" viewBox="0 0 24 25" fill="none" xmlns="http://www.w3.org/2000/svg">
<path d="M11.9365 7.56836C8.97358 7.56836 6.51855 9.98106 6.51855 12.9863C6.51855 15.9916 8.93125 18.4043 11.9365 18.4043C14.9418 18.4043 17.3545 15.9493 17.3545 12.9863C17.3545 10.0234 14.8995 7.56836 11.9365 7.56836ZM11.9365 16.4572C10.0318 16.4572 8.46564 14.8911 8.46564 12.9863C8.46564 11.0816 10.0318 9.51545 11.9365 9.51545C13.8413 9.51545 15.4074 11.0816 15.4074 12.9863C15.4074 14.8911 13.8413 16.4572 11.9365 16.4572Z" fill="#090909"/>
<path d="M17.5659 8.66792C18.2438 8.66792 18.7934 8.11834 18.7934 7.4404C18.7934 6.76247 18.2438 6.21289 17.5659 6.21289C16.888 6.21289 16.3384 6.76247 16.3384 7.4404C16.3384 8.11834 16.888 8.66792 17.5659 8.66792Z" fill="#090909"/>
<path d="M20.7406 4.2667C19.64 3.12384 18.0739 2.53125 16.2961 2.53125H7.57653C3.89399 2.53125 1.43896 4.98628 1.43896 8.66882V17.3461C1.43896 19.1662 2.03156 20.7323 3.21674 21.8752C4.3596 22.9757 5.88341 23.526 7.61886 23.526H16.2538C18.0739 23.526 19.5977 22.9334 20.6982 21.8752C21.8411 20.7746 22.4337 19.2085 22.4337 17.3884V8.66882C22.4337 6.89104 21.8411 5.36723 20.7406 4.2667ZM20.5712 17.3884C20.5712 18.7006 20.1056 19.7588 19.3437 20.4783C18.5818 21.1979 17.5236 21.5789 16.2538 21.5789H7.61886C6.34902 21.5789 5.29082 21.1979 4.52891 20.4783C3.76701 19.7164 3.38605 18.6582 3.38605 17.3461V8.66882C3.38605 7.39897 3.76701 6.34077 4.52891 5.57887C5.24849 4.85929 6.34902 4.47834 7.61886 4.47834H16.3384C17.6083 4.47834 18.6665 4.85929 19.4284 5.6212C20.148 6.3831 20.5712 7.4413 20.5712 8.66882V17.3884Z" fill="#090909"/>
</svg>
