<svg width="24" height="25" viewBox="0 0 24 25" fill="none" xmlns="http://www.w3.org/2000/svg">
<path d="M11.9365 7.56934C8.97358 7.56934 6.51855 9.98203 6.51855 12.9873C6.51855 15.9926 8.93125 18.4053 11.9365 18.4053C14.9418 18.4053 17.3545 15.9503 17.3545 12.9873C17.3545 10.0244 14.8995 7.56934 11.9365 7.56934ZM11.9365 16.4582C10.0318 16.4582 8.46564 14.8921 8.46564 12.9873C8.46564 11.0826 10.0318 9.51643 11.9365 9.51643C13.8413 9.51643 15.4074 11.0826 15.4074 12.9873C15.4074 14.8921 13.8413 16.4582 11.9365 16.4582Z" fill="#090909"/>
<path d="M17.5664 8.66987C18.2443 8.66987 18.7939 8.12029 18.7939 7.44236C18.7939 6.76442 18.2443 6.21484 17.5664 6.21484C16.8884 6.21484 16.3389 6.76442 16.3389 7.44236C16.3389 8.12029 16.8884 8.66987 17.5664 8.66987Z" fill="#090909"/>
<path d="M20.741 4.26768C19.6405 3.12482 18.0744 2.53223 16.2966 2.53223H7.57702C3.89448 2.53223 1.43945 4.98725 1.43945 8.66979V17.347C1.43945 19.1671 2.03205 20.7333 3.21723 21.8761C4.36009 22.9767 5.8839 23.5269 7.61935 23.5269H16.2543C18.0744 23.5269 19.5982 22.9343 20.6987 21.8761C21.8416 20.7756 22.4342 19.2095 22.4342 17.3894V8.66979C22.4342 6.89201 21.8416 5.36821 20.741 4.26768ZM20.5717 17.3894C20.5717 18.7015 20.1061 19.7597 19.3442 20.4793C18.5823 21.1989 17.5241 21.5798 16.2543 21.5798H7.61935C6.34951 21.5798 5.29131 21.1989 4.5294 20.4793C3.7675 19.7174 3.38654 18.6592 3.38654 17.347V8.66979C3.38654 7.39995 3.7675 6.34175 4.5294 5.57985C5.24898 4.86027 6.34951 4.47932 7.61935 4.47932H16.3389C17.6088 4.47932 18.667 4.86027 19.4289 5.62217C20.1484 6.38408 20.5717 7.44228 20.5717 8.66979V17.3894Z" fill="#090909"/>
</svg>
