<svg width="24" height="25" viewBox="0 0 24 25" fill="none" xmlns="http://www.w3.org/2000/svg">
<path d="M12.0234 22.6074C11.9773 22.6074 11.9316 22.5983 11.8889 22.5807C11.8462 22.563 11.8075 22.5371 11.7748 22.5045C11.7422 22.4718 11.7163 22.4331 11.6986 22.3904C11.681 22.3477 11.6719 22.302 11.6719 22.2559V21.459C11.6719 21.3657 11.7089 21.2763 11.7748 21.2104C11.8408 21.1445 11.9302 21.1074 12.0234 21.1074C12.1167 21.1074 12.2061 21.1445 12.272 21.2104C12.338 21.2763 12.375 21.3657 12.375 21.459V22.2559C12.375 22.302 12.3659 22.3477 12.3482 22.3904C12.3306 22.4331 12.3047 22.4718 12.272 22.5045C12.2394 22.5371 12.2006 22.563 12.158 22.5807C12.1153 22.5983 12.0696 22.6074 12.0234 22.6074V22.6074Z" fill="#058B48"/>
<path d="M12 22.7266C17.6825 22.7266 22.2891 18.12 22.2891 12.4375C22.2891 6.75501 17.6825 2.14844 12 2.14844C6.31751 2.14844 1.71094 6.75501 1.71094 12.4375C1.71094 18.12 6.31751 22.7266 12 22.7266Z" fill="#FDD402"/>
<path d="M4.52344 12.4375C4.52344 7.23212 8.38917 2.93031 13.4062 2.24451C12.9402 2.18065 12.4704 2.14855 12 2.14844C6.3175 2.14844 1.71094 6.755 1.71094 12.4375C1.71094 18.12 6.3175 22.7266 12 22.7266C12.4704 22.7264 12.9402 22.6944 13.4062 22.6305C8.38917 21.9447 4.52344 17.6429 4.52344 12.4375Z" fill="#FBBF13"/>
<path d="M17.318 14.4241C17.3946 14.3916 17.4785 14.38 17.5611 14.3905C17.6437 14.4011 17.722 14.4334 17.788 14.4842C17.854 14.535 17.9053 14.6024 17.9366 14.6796C17.9679 14.7567 17.9782 14.8408 17.9663 14.9232C17.769 16.3212 17.0731 17.6008 16.007 18.5264C14.9408 19.452 13.5761 19.9611 12.1643 19.9601H11.8362C10.424 19.9622 9.05874 19.4534 7.99235 18.5277C6.92596 17.6019 6.23042 16.3217 6.0341 14.9232C6.02222 14.8408 6.03247 14.7567 6.06379 14.6796C6.09512 14.6024 6.14639 14.535 6.21235 14.4842C6.27832 14.4334 6.35661 14.4011 6.43919 14.3905C6.52177 14.3799 6.60568 14.3915 6.68232 14.4241C8.3649 15.1375 10.1736 15.5057 12.0012 15.507H12.0705C13.8741 15.4964 15.6576 15.1284 17.318 14.4241V14.4241Z" fill="#74563A"/>
<path d="M10.8833 19.4663C9.93594 19.0513 9.1157 18.3923 8.50623 17.5567C7.89677 16.7211 7.5199 15.7387 7.41409 14.7099C7.14753 14.6146 6.90266 14.5178 6.6809 14.4238C6.60428 14.3914 6.52043 14.3799 6.43792 14.3906C6.35542 14.4012 6.27723 14.4336 6.21137 14.4845C6.14551 14.5353 6.09434 14.6027 6.06312 14.6798C6.03189 14.7569 6.02173 14.841 6.03367 14.9233C6.23083 16.3214 6.92661 17.6012 7.99282 18.5268C9.05902 19.4524 10.4238 19.9615 11.8358 19.9604H12.1639C12.3457 19.9604 12.5254 19.9516 12.7029 19.9354C12.075 19.8787 11.4604 19.7203 10.8833 19.4663V19.4663Z" fill="#674B34"/>
<path d="M9 16.1646V20.4771C9 21.2728 9.31607 22.0358 9.87868 22.5985C10.4413 23.1611 11.2044 23.4771 12 23.4771C12.7956 23.4771 13.5587 23.1611 14.1213 22.5985C14.6839 22.0358 15 21.2728 15 20.4771V16.1646C13.0148 15.8201 10.9852 15.8201 9 16.1646V16.1646Z" fill="#37B678"/>
<path d="M10.4062 20.4771V16.1646C11.1658 16.0329 11.9331 15.9514 12.7033 15.9205C12.5196 15.9131 12.332 15.9086 12.1406 15.9068C11.0881 15.8984 10.037 15.9847 9 16.1646V20.4771C8.99993 20.9309 9.10282 21.3788 9.30093 21.7871C9.49904 22.1953 9.7872 22.5533 10.1437 22.8341C10.5002 23.1149 10.9158 23.3111 11.3591 23.408C11.8025 23.5048 12.262 23.4999 12.7031 23.3934C12.0486 23.2355 11.4662 22.8621 11.0496 22.3331C10.633 21.8041 10.4064 21.1504 10.4062 20.4771V20.4771Z" fill="#00A653"/>
<path d="M12.3516 21.8105H11.6953C11.366 21.8102 11.0502 21.6792 10.8174 21.4463C10.5845 21.2134 10.4535 20.8977 10.4531 20.5684C10.4531 20.4751 10.4902 20.3857 10.5561 20.3198C10.622 20.2538 10.7114 20.2168 10.8047 20.2168C10.8979 20.2168 10.9873 20.2538 11.0533 20.3198C11.1192 20.3857 11.1562 20.4751 11.1562 20.5684C11.1564 20.7113 11.2133 20.8483 11.3143 20.9494C11.4154 21.0504 11.5524 21.1073 11.6953 21.1074H12.3516C12.4945 21.1073 12.6315 21.0504 12.7326 20.9494C12.8336 20.8483 12.8905 20.7113 12.8906 20.5684V20.3809C12.8905 20.2379 12.8336 20.1009 12.7326 19.9999C12.6315 19.8988 12.4945 19.842 12.3516 19.8418H11.6953C11.366 19.8414 11.0502 19.7104 10.8174 19.4776C10.5845 19.2447 10.4535 18.9289 10.4531 18.5996V18.4121C10.4535 18.0828 10.5845 17.767 10.8174 17.5342C11.0502 17.3013 11.366 17.1703 11.6953 17.1699H12.3516C12.6809 17.1703 12.9966 17.3013 13.2295 17.5342C13.4624 17.767 13.5934 18.0828 13.5938 18.4121C13.5937 18.5053 13.5567 18.5948 13.4908 18.6607C13.4248 18.7266 13.3354 18.7637 13.2422 18.7637C13.1489 18.7637 13.0595 18.7266 12.9936 18.6607C12.9277 18.5948 12.8906 18.5053 12.8906 18.4121C12.8905 18.2692 12.8336 18.1322 12.7326 18.0311C12.6315 17.9301 12.4945 17.8732 12.3516 17.873H11.6953C11.5524 17.8732 11.4154 17.9301 11.3143 18.0311C11.2133 18.1322 11.1564 18.2692 11.1562 18.4121V18.5996C11.1564 18.7425 11.2133 18.8795 11.3143 18.9806C11.4154 19.0817 11.5524 19.1385 11.6953 19.1387H12.3516C12.6809 19.139 12.9966 19.27 13.2295 19.5029C13.4624 19.7358 13.5934 20.0515 13.5938 20.3809V20.5684C13.5934 20.8977 13.4624 21.2134 13.2295 21.4463C12.9966 21.6792 12.6809 21.8102 12.3516 21.8105V21.8105Z" fill="#058B48"/>
<path d="M12.0234 17.873C11.9773 17.8731 11.9316 17.864 11.8889 17.8463C11.8462 17.8286 11.8075 17.8027 11.7748 17.7701C11.7422 17.7374 11.7163 17.6987 11.6986 17.656C11.681 17.6134 11.6719 17.5677 11.6719 17.5215V16.7246C11.6719 16.6314 11.7089 16.5419 11.7748 16.476C11.8408 16.4101 11.9302 16.373 12.0234 16.373C12.1167 16.373 12.2061 16.4101 12.272 16.476C12.338 16.5419 12.375 16.6314 12.375 16.7246V17.5215C12.375 17.5677 12.3659 17.6134 12.3482 17.656C12.3306 17.6987 12.3047 17.7374 12.272 17.7701C12.2394 17.8027 12.2006 17.8286 12.158 17.8463C12.1153 17.864 12.0696 17.8731 12.0234 17.873V17.873Z" fill="#058B48"/>
<path d="M16.5469 11.498H15.8906C15.5613 11.4977 15.2455 11.3667 15.0127 11.1338C14.7798 10.9009 14.6488 10.5852 14.6484 10.2559C14.6484 10.1626 14.6855 10.0732 14.7514 10.0073C14.8173 9.94134 14.9068 9.9043 15 9.9043C15.0932 9.9043 15.1827 9.94134 15.2486 10.0073C15.3145 10.0732 15.3516 10.1626 15.3516 10.2559C15.3517 10.3988 15.4086 10.5358 15.5096 10.6369C15.6107 10.7379 15.7477 10.7948 15.8906 10.7949H16.5469C16.6898 10.7948 16.8268 10.7379 16.9279 10.6369C17.0289 10.5358 17.0858 10.3988 17.0859 10.2559V10.0684C17.0858 9.92544 17.0289 9.78843 16.9279 9.68737C16.8268 9.58631 16.6898 9.52946 16.5469 9.5293H15.8906C15.5613 9.52893 15.2455 9.39794 15.0127 9.16506C14.7798 8.93218 14.6488 8.61644 14.6484 8.28711V8.09961C14.6488 7.77027 14.7798 7.45453 15.0127 7.22166C15.2455 6.98878 15.5613 6.85779 15.8906 6.85742H16.5469C16.8762 6.85779 17.192 6.98878 17.4248 7.22166C17.6577 7.45453 17.7887 7.77027 17.7891 8.09961C17.7891 8.19285 17.752 8.28227 17.6861 8.3482C17.6202 8.41413 17.5307 8.45117 17.4375 8.45117C17.3443 8.45117 17.2548 8.41413 17.1889 8.3482C17.123 8.28227 17.0859 8.19285 17.0859 8.09961C17.0858 7.95669 17.0289 7.81968 16.9279 7.71862C16.8268 7.61756 16.6898 7.56071 16.5469 7.56055H15.8906C15.7477 7.56071 15.6107 7.61756 15.5096 7.71862C15.4086 7.81968 15.3517 7.95669 15.3516 8.09961V8.28711C15.3517 8.43003 15.4086 8.56704 15.5096 8.6681C15.6107 8.76916 15.7477 8.82601 15.8906 8.82617H16.5469C16.8762 8.82654 17.192 8.95753 17.4248 9.19041C17.6577 9.42328 17.7887 9.73902 17.7891 10.0684V10.2559C17.7887 10.5852 17.6577 10.9009 17.4248 11.1338C17.192 11.3667 16.8762 11.4977 16.5469 11.498Z" fill="#74563A"/>
<path d="M16.2188 7.56055C16.1726 7.56055 16.1269 7.55146 16.0842 7.53379C16.0416 7.51613 16.0028 7.49023 15.9701 7.45758C15.9375 7.42494 15.9116 7.38618 15.8939 7.34353C15.8763 7.30087 15.8672 7.25515 15.8672 7.20898V6.41211C15.8672 6.31887 15.9042 6.22945 15.9702 6.16352C16.0361 6.09759 16.1255 6.06055 16.2188 6.06055C16.312 6.06055 16.4014 6.09759 16.4673 6.16352C16.5333 6.22945 16.5703 6.31887 16.5703 6.41211V7.20898C16.5703 7.25515 16.5612 7.30087 16.5436 7.34353C16.5259 7.38618 16.5 7.42494 16.4674 7.45758C16.4347 7.49023 16.3959 7.51613 16.3533 7.53379C16.3106 7.55146 16.2649 7.56055 16.2188 7.56055V7.56055ZM16.2188 12.2949C16.1726 12.2949 16.1269 12.2858 16.0842 12.2682C16.0416 12.2505 16.0028 12.2246 15.9701 12.192C15.9375 12.1593 15.9116 12.1206 15.8939 12.0779C15.8763 12.0352 15.8672 11.9895 15.8672 11.9434V11.1465C15.8672 11.0532 15.9042 10.9638 15.9702 10.8979C16.0361 10.832 16.1255 10.7949 16.2188 10.7949C16.312 10.7949 16.4014 10.832 16.4673 10.8979C16.5333 10.9638 16.5703 11.0532 16.5703 11.1465V11.9434C16.5703 11.9895 16.5612 12.0352 16.5436 12.0779C16.5259 12.1206 16.5 12.1593 16.4674 12.192C16.4347 12.2246 16.3959 12.2505 16.3533 12.2682C16.3106 12.2858 16.2649 12.2949 16.2188 12.2949V12.2949ZM8.10938 11.498H7.45312C7.12379 11.4977 6.80805 11.3667 6.57517 11.1338C6.3423 10.9009 6.21131 10.5852 6.21094 10.2559C6.21094 10.1626 6.24798 10.0732 6.31391 10.0073C6.37984 9.94134 6.46926 9.9043 6.5625 9.9043C6.65574 9.9043 6.74516 9.94134 6.81109 10.0073C6.87702 10.0732 6.91406 10.1626 6.91406 10.2559C6.91423 10.3988 6.97108 10.5358 7.07213 10.6369C7.17319 10.7379 7.31021 10.7948 7.45312 10.7949H8.10938C8.25229 10.7948 8.38931 10.7379 8.49037 10.6369C8.59142 10.5358 8.64827 10.3988 8.64844 10.2559V10.0684C8.64827 9.92544 8.59142 9.78843 8.49037 9.68737C8.38931 9.58631 8.25229 9.52946 8.10938 9.5293H7.45312C7.12379 9.52893 6.80805 9.39794 6.57517 9.16506C6.3423 8.93219 6.21131 8.61644 6.21094 8.28711V8.09961C6.21131 7.77027 6.3423 7.45453 6.57517 7.22166C6.80805 6.98878 7.12379 6.85779 7.45312 6.85742H8.10938C8.43871 6.85779 8.75445 6.98878 8.98733 7.22166C9.2202 7.45453 9.35119 7.77027 9.35156 8.09961C9.35156 8.19285 9.31452 8.28227 9.24859 8.3482C9.18266 8.41413 9.09324 8.45117 9 8.45117C8.90676 8.45117 8.81734 8.41413 8.75141 8.3482C8.68548 8.28227 8.64844 8.19285 8.64844 8.09961C8.64827 7.95669 8.59142 7.81968 8.49037 7.71862C8.38931 7.61756 8.25229 7.56071 8.10938 7.56055H7.45312C7.31021 7.56071 7.17319 7.61756 7.07213 7.71862C6.97108 7.81968 6.91423 7.95669 6.91406 8.09961V8.28711C6.91423 8.43003 6.97108 8.56704 7.07213 8.6681C7.17319 8.76916 7.31021 8.82601 7.45312 8.82617H8.10938C8.43871 8.82654 8.75445 8.95753 8.98733 9.19041C9.2202 9.42328 9.35119 9.73902 9.35156 10.0684V10.2559C9.35119 10.5852 9.2202 10.9009 8.98733 11.1338C8.75445 11.3667 8.43871 11.4977 8.10938 11.498V11.498Z" fill="#74563A"/>
<path d="M7.78125 7.56055C7.73508 7.56055 7.68936 7.55146 7.64671 7.53379C7.60405 7.51613 7.5653 7.49023 7.53265 7.45758C7.5 7.42494 7.47411 7.38618 7.45644 7.34353C7.43878 7.30087 7.42968 7.25515 7.42969 7.20898V6.41211C7.42969 6.31887 7.46673 6.22945 7.53266 6.16352C7.59859 6.09759 7.68801 6.06055 7.78125 6.06055C7.87449 6.06055 7.96391 6.09759 8.02984 6.16352C8.09577 6.22945 8.13281 6.31887 8.13281 6.41211V7.20898C8.13282 7.25515 8.12372 7.30087 8.10606 7.34353C8.08839 7.38618 8.0625 7.42494 8.02985 7.45758C7.9972 7.49023 7.95845 7.51613 7.91579 7.53379C7.87314 7.55146 7.82742 7.56055 7.78125 7.56055ZM7.78125 12.2949C7.73508 12.2949 7.68936 12.2858 7.64671 12.2682C7.60405 12.2505 7.5653 12.2246 7.53265 12.192C7.5 12.1593 7.47411 12.1206 7.45644 12.0779C7.43878 12.0352 7.42968 11.9895 7.42969 11.9434V11.1465C7.42969 11.0532 7.46673 10.9638 7.53266 10.8979C7.59859 10.832 7.68801 10.7949 7.78125 10.7949C7.87449 10.7949 7.96391 10.832 8.02984 10.8979C8.09577 10.9638 8.13281 11.0532 8.13281 11.1465V11.9434C8.13282 11.9895 8.12372 12.0352 8.10606 12.0779C8.08839 12.1206 8.0625 12.1593 8.02985 12.192C7.9972 12.2246 7.95845 12.2505 7.91579 12.2682C7.87314 12.2858 7.82742 12.2949 7.78125 12.2949Z" fill="#74563A"/>
</svg>
