<svg width="24" height="25" viewBox="0 0 24 25" fill="none" xmlns="http://www.w3.org/2000/svg">
<path d="M12.0234 22.748C11.9773 22.7481 11.9316 22.739 11.8889 22.7213C11.8462 22.7036 11.8075 22.6777 11.7748 22.6451C11.7422 22.6124 11.7163 22.5737 11.6986 22.531C11.681 22.4884 11.6719 22.4427 11.6719 22.3965V21.5996C11.6719 21.5064 11.7089 21.4169 11.7748 21.351C11.8408 21.2851 11.9302 21.248 12.0234 21.248C12.1167 21.248 12.2061 21.2851 12.272 21.351C12.338 21.4169 12.375 21.5064 12.375 21.5996V22.3965C12.375 22.4427 12.3659 22.4884 12.3482 22.531C12.3306 22.5737 12.3047 22.6124 12.272 22.6451C12.2394 22.6777 12.2006 22.7036 12.158 22.7213C12.1153 22.739 12.0696 22.7481 12.0234 22.748V22.748Z" fill="#058B48"/>
<path d="M12 22.8672C17.6825 22.8672 22.2891 18.2606 22.2891 12.5781C22.2891 6.89563 17.6825 2.28906 12 2.28906C6.31751 2.28906 1.71094 6.89563 1.71094 12.5781C1.71094 18.2606 6.31751 22.8672 12 22.8672Z" fill="#FDD402"/>
<path d="M4.52344 12.5781C4.52344 7.37275 8.38917 3.07093 13.4062 2.38514C12.9402 2.32127 12.4704 2.28918 12 2.28906C6.3175 2.28906 1.71094 6.89563 1.71094 12.5781C1.71094 18.2606 6.3175 22.8672 12 22.8672C12.4704 22.8671 12.9402 22.835 13.4062 22.7711C8.38917 22.0853 4.52344 17.7835 4.52344 12.5781Z" fill="#FBBF13"/>
<path d="M17.318 14.5647C17.3946 14.5322 17.4785 14.5206 17.5611 14.5312C17.6437 14.5417 17.722 14.574 17.788 14.6248C17.854 14.6756 17.9053 14.7431 17.9366 14.8202C17.9679 14.8974 17.9782 14.9814 17.9663 15.0639C17.769 16.4619 17.0731 17.7415 16.007 18.667C14.9408 19.5926 13.5761 20.1017 12.1643 20.1007H11.8362C10.424 20.1028 9.05874 19.594 7.99235 18.6683C6.92596 17.7425 6.23042 16.4623 6.0341 15.0638C6.02222 14.9814 6.03247 14.8973 6.06379 14.8202C6.09512 14.7431 6.14639 14.6756 6.21235 14.6248C6.27832 14.5741 6.35661 14.5417 6.43919 14.5311C6.52177 14.5206 6.60568 14.5322 6.68232 14.5647C8.3649 15.2781 10.1736 15.6463 12.0012 15.6476H12.0705C13.8741 15.637 15.6576 15.269 17.318 14.5647V14.5647Z" fill="#74563A"/>
<path d="M10.8837 19.6069C9.93643 19.1919 9.11619 18.5329 8.50672 17.6973C7.89726 16.8617 7.52039 15.8793 7.41458 14.8505C7.14802 14.7552 6.90315 14.6584 6.68139 14.5644C6.60477 14.532 6.52092 14.5206 6.43841 14.5312C6.3559 14.5419 6.27772 14.5743 6.21185 14.6251C6.14599 14.6759 6.09483 14.7433 6.0636 14.8204C6.03238 14.8976 6.02222 14.9816 6.03415 15.0639C6.23132 16.462 6.9271 17.7418 7.9933 18.6674C9.05951 19.593 10.4243 20.1022 11.8362 20.101H12.1644C12.3462 20.101 12.5258 20.0922 12.7034 20.0761C12.0754 20.0193 11.4609 19.8609 10.8837 19.6069V19.6069Z" fill="#674B34"/>
<path d="M9 16.3053V20.6178C9 21.4134 9.31607 22.1765 9.87868 22.7391C10.4413 23.3017 11.2044 23.6178 12 23.6178C12.7956 23.6178 13.5587 23.3017 14.1213 22.7391C14.6839 22.1765 15 21.4134 15 20.6178V16.3053C13.0148 15.9607 10.9852 15.9607 9 16.3053V16.3053Z" fill="#37B678"/>
<path d="M10.4062 20.6178V16.3052C11.1658 16.1736 11.9331 16.092 12.7033 16.0611C12.5196 16.0538 12.332 16.0492 12.1406 16.0474C11.0881 16.039 10.037 16.1253 9 16.3052V20.6178C8.99993 21.0715 9.10282 21.5194 9.30093 21.9277C9.49904 22.336 9.7872 22.694 10.1437 22.9747C10.5002 23.2555 10.9158 23.4517 11.3591 23.5486C11.8025 23.6455 12.262 23.6405 12.7031 23.5341C12.0486 23.3761 11.4662 23.0027 11.0496 22.4737C10.633 21.9448 10.4064 21.2911 10.4062 20.6178V20.6178Z" fill="#00A653"/>
<path d="M12.3516 21.9512H11.6953C11.366 21.9508 11.0502 21.8198 10.8174 21.5869C10.5845 21.3541 10.4535 21.0383 10.4531 20.709C10.4531 20.6157 10.4902 20.5263 10.5561 20.4604C10.622 20.3945 10.7114 20.3574 10.8047 20.3574C10.8979 20.3574 10.9873 20.3945 11.0533 20.4604C11.1192 20.5263 11.1562 20.6157 11.1562 20.709C11.1564 20.8519 11.2133 20.9889 11.3143 21.09C11.4154 21.191 11.5524 21.2479 11.6953 21.248H12.3516C12.4945 21.2479 12.6315 21.191 12.7326 21.09C12.8336 20.9889 12.8905 20.8519 12.8906 20.709V20.5215C12.8905 20.3786 12.8336 20.2416 12.7326 20.1405C12.6315 20.0394 12.4945 19.9826 12.3516 19.9824H11.6953C11.366 19.9821 11.0502 19.8511 10.8174 19.6182C10.5845 19.3853 10.4535 19.0696 10.4531 18.7402V18.5527C10.4535 18.2234 10.5845 17.9077 10.8174 17.6748C11.0502 17.4419 11.366 17.3109 11.6953 17.3105H12.3516C12.6809 17.3109 12.9966 17.4419 13.2295 17.6748C13.4624 17.9077 13.5934 18.2234 13.5938 18.5527C13.5937 18.646 13.5567 18.7354 13.4908 18.8013C13.4248 18.8673 13.3354 18.9043 13.2422 18.9043C13.1489 18.9043 13.0595 18.8673 12.9936 18.8013C12.9277 18.7354 12.8906 18.646 12.8906 18.5527C12.8905 18.4098 12.8336 18.2728 12.7326 18.1717C12.6315 18.0707 12.4945 18.0138 12.3516 18.0137H11.6953C11.5524 18.0138 11.4154 18.0707 11.3143 18.1717C11.2133 18.2728 11.1564 18.4098 11.1562 18.5527V18.7402C11.1564 18.8832 11.2133 19.0202 11.3143 19.1212C11.4154 19.2223 11.5524 19.2791 11.6953 19.2793H12.3516C12.6809 19.2797 12.9966 19.4107 13.2295 19.6435C13.4624 19.8764 13.5934 20.1921 13.5938 20.5215V20.709C13.5934 21.0383 13.4624 21.3541 13.2295 21.5869C12.9966 21.8198 12.6809 21.9508 12.3516 21.9512V21.9512Z" fill="#058B48"/>
<path d="M12.0234 18.0137C11.9773 18.0137 11.9316 18.0046 11.8889 17.9869C11.8462 17.9693 11.8075 17.9434 11.7748 17.9107C11.7422 17.8781 11.7163 17.8393 11.6986 17.7967C11.681 17.754 11.6719 17.7083 11.6719 17.6621V16.8652C11.6719 16.772 11.7089 16.6826 11.7748 16.6166C11.8408 16.5507 11.9302 16.5137 12.0234 16.5137C12.1167 16.5137 12.2061 16.5507 12.272 16.6166C12.338 16.6826 12.375 16.772 12.375 16.8652V17.6621C12.375 17.7083 12.3659 17.754 12.3482 17.7967C12.3306 17.8393 12.3047 17.8781 12.272 17.9107C12.2394 17.9434 12.2006 17.9693 12.158 17.9869C12.1153 18.0046 12.0696 18.0137 12.0234 18.0137V18.0137Z" fill="#058B48"/>
<path d="M16.5469 11.6387H15.8906C15.5613 11.6383 15.2455 11.5073 15.0127 11.2744C14.7798 11.0416 14.6488 10.7258 14.6484 10.3965C14.6484 10.3032 14.6855 10.2138 14.7514 10.1479C14.8173 10.082 14.9068 10.0449 15 10.0449C15.0932 10.0449 15.1827 10.082 15.2486 10.1479C15.3145 10.2138 15.3516 10.3032 15.3516 10.3965C15.3517 10.5394 15.4086 10.6764 15.5096 10.7775C15.6107 10.8785 15.7477 10.9354 15.8906 10.9355H16.5469C16.6898 10.9354 16.8268 10.8785 16.9279 10.7775C17.0289 10.6764 17.0858 10.5394 17.0859 10.3965V10.209C17.0858 10.0661 17.0289 9.92905 16.9279 9.82799C16.8268 9.72694 16.6898 9.67009 16.5469 9.66992H15.8906C15.5613 9.66955 15.2455 9.53856 15.0127 9.30569C14.7798 9.07281 14.6488 8.75707 14.6484 8.42773V8.24023C14.6488 7.9109 14.7798 7.59516 15.0127 7.36228C15.2455 7.12941 15.5613 6.99842 15.8906 6.99805H16.5469C16.8762 6.99842 17.192 7.12941 17.4248 7.36228C17.6577 7.59516 17.7887 7.9109 17.7891 8.24023C17.7891 8.33347 17.752 8.4229 17.6861 8.48883C17.6202 8.55476 17.5307 8.5918 17.4375 8.5918C17.3443 8.5918 17.2548 8.55476 17.1889 8.48883C17.123 8.4229 17.0859 8.33347 17.0859 8.24023C17.0858 8.09732 17.0289 7.9603 16.9279 7.85924C16.8268 7.75819 16.6898 7.70134 16.5469 7.70117H15.8906C15.7477 7.70134 15.6107 7.75819 15.5096 7.85924C15.4086 7.9603 15.3517 8.09732 15.3516 8.24023V8.42773C15.3517 8.57065 15.4086 8.70767 15.5096 8.80873C15.6107 8.90978 15.7477 8.96663 15.8906 8.9668H16.5469C16.8762 8.96717 17.192 9.09816 17.4248 9.33103C17.6577 9.56391 17.7887 9.87965 17.7891 10.209V10.3965C17.7887 10.7258 17.6577 11.0416 17.4248 11.2744C17.192 11.5073 16.8762 11.6383 16.5469 11.6387Z" fill="#74563A"/>
<path d="M16.2188 7.70117C16.1726 7.70118 16.1269 7.69208 16.0842 7.67442C16.0416 7.65675 16.0028 7.63086 15.9701 7.59821C15.9375 7.56556 15.9116 7.52681 15.8939 7.48415C15.8763 7.4415 15.8672 7.39578 15.8672 7.34961V6.55273C15.8672 6.45949 15.9042 6.37007 15.9702 6.30414C16.0361 6.23821 16.1255 6.20117 16.2188 6.20117C16.312 6.20117 16.4014 6.23821 16.4673 6.30414C16.5333 6.37007 16.5703 6.45949 16.5703 6.55273V7.34961C16.5703 7.39578 16.5612 7.4415 16.5436 7.48415C16.5259 7.52681 16.5 7.56556 16.4674 7.59821C16.4347 7.63086 16.3959 7.65675 16.3533 7.67442C16.3106 7.69208 16.2649 7.70118 16.2188 7.70117V7.70117ZM16.2188 12.4355C16.1726 12.4356 16.1269 12.4265 16.0842 12.4088C16.0416 12.3911 16.0028 12.3652 15.9701 12.3326C15.9375 12.2999 15.9116 12.2612 15.8939 12.2185C15.8763 12.1759 15.8672 12.1302 15.8672 12.084V11.2871C15.8672 11.1939 15.9042 11.1044 15.9702 11.0385C16.0361 10.9726 16.1255 10.9355 16.2188 10.9355C16.312 10.9355 16.4014 10.9726 16.4673 11.0385C16.5333 11.1044 16.5703 11.1939 16.5703 11.2871V12.084C16.5703 12.1302 16.5612 12.1759 16.5436 12.2185C16.5259 12.2612 16.5 12.2999 16.4674 12.3326C16.4347 12.3652 16.3959 12.3911 16.3533 12.4088C16.3106 12.4265 16.2649 12.4356 16.2188 12.4355V12.4355ZM8.10938 11.6387H7.45312C7.12379 11.6383 6.80805 11.5073 6.57517 11.2744C6.3423 11.0416 6.21131 10.7258 6.21094 10.3965C6.21094 10.3032 6.24798 10.2138 6.31391 10.1479C6.37984 10.082 6.46926 10.0449 6.5625 10.0449C6.65574 10.0449 6.74516 10.082 6.81109 10.1479C6.87702 10.2138 6.91406 10.3032 6.91406 10.3965C6.91423 10.5394 6.97108 10.6764 7.07213 10.7775C7.17319 10.8785 7.31021 10.9354 7.45312 10.9355H8.10938C8.25229 10.9354 8.38931 10.8785 8.49037 10.7775C8.59142 10.6764 8.64827 10.5394 8.64844 10.3965V10.209C8.64827 10.0661 8.59142 9.92905 8.49037 9.82799C8.38931 9.72694 8.25229 9.67009 8.10938 9.66992H7.45312C7.12379 9.66955 6.80805 9.53856 6.57517 9.30569C6.3423 9.07281 6.21131 8.75707 6.21094 8.42773V8.24023C6.21131 7.9109 6.3423 7.59516 6.57517 7.36228C6.80805 7.12941 7.12379 6.99842 7.45312 6.99805H8.10938C8.43871 6.99842 8.75445 7.12941 8.98733 7.36228C9.2202 7.59516 9.35119 7.9109 9.35156 8.24023C9.35156 8.33347 9.31452 8.4229 9.24859 8.48883C9.18266 8.55476 9.09324 8.5918 9 8.5918C8.90676 8.5918 8.81734 8.55476 8.75141 8.48883C8.68548 8.4229 8.64844 8.33347 8.64844 8.24023C8.64827 8.09732 8.59142 7.9603 8.49037 7.85924C8.38931 7.75819 8.25229 7.70134 8.10938 7.70117H7.45312C7.31021 7.70134 7.17319 7.75819 7.07213 7.85924C6.97108 7.9603 6.91423 8.09732 6.91406 8.24023V8.42773C6.91423 8.57065 6.97108 8.70767 7.07213 8.80873C7.17319 8.90978 7.31021 8.96663 7.45312 8.9668H8.10938C8.43871 8.96717 8.75445 9.09816 8.98733 9.33103C9.2202 9.56391 9.35119 9.87965 9.35156 10.209V10.3965C9.35119 10.7258 9.2202 11.0416 8.98733 11.2744C8.75445 11.5073 8.43871 11.6383 8.10938 11.6387V11.6387Z" fill="#74563A"/>
<path d="M7.78125 7.70117C7.73508 7.70118 7.68936 7.69208 7.64671 7.67442C7.60405 7.65675 7.5653 7.63086 7.53265 7.59821C7.5 7.56556 7.47411 7.52681 7.45644 7.48415C7.43878 7.4415 7.42968 7.39578 7.42969 7.34961V6.55273C7.42969 6.45949 7.46673 6.37007 7.53266 6.30414C7.59859 6.23821 7.68801 6.20117 7.78125 6.20117C7.87449 6.20117 7.96391 6.23821 8.02984 6.30414C8.09577 6.37007 8.13281 6.45949 8.13281 6.55273V7.34961C8.13282 7.39578 8.12372 7.4415 8.10606 7.48415C8.08839 7.52681 8.0625 7.56556 8.02985 7.59821C7.9972 7.63086 7.95845 7.65675 7.91579 7.67442C7.87314 7.69208 7.82742 7.70118 7.78125 7.70117ZM7.78125 12.4355C7.73508 12.4356 7.68936 12.4265 7.64671 12.4088C7.60405 12.3911 7.5653 12.3652 7.53265 12.3326C7.5 12.2999 7.47411 12.2612 7.45644 12.2185C7.43878 12.1759 7.42968 12.1302 7.42969 12.084V11.2871C7.42969 11.1939 7.46673 11.1044 7.53266 11.0385C7.59859 10.9726 7.68801 10.9355 7.78125 10.9355C7.87449 10.9355 7.96391 10.9726 8.02984 11.0385C8.09577 11.1044 8.13281 11.1939 8.13281 11.2871V12.084C8.13282 12.1302 8.12372 12.1759 8.10606 12.2185C8.08839 12.2612 8.0625 12.2999 8.02985 12.3326C7.9972 12.3652 7.95845 12.3911 7.91579 12.4088C7.87314 12.4265 7.82742 12.4356 7.78125 12.4355Z" fill="#74563A"/>
</svg>
