<svg width="24" height="25" viewBox="0 0 24 25" fill="none" xmlns="http://www.w3.org/2000/svg">
<path d="M12.0234 22.6514C11.9773 22.6514 11.9316 22.6423 11.8889 22.6246C11.8462 22.6069 11.8075 22.5811 11.7748 22.5484C11.7422 22.5158 11.7163 22.477 11.6986 22.4343C11.681 22.3917 11.6719 22.346 11.6719 22.2998V21.5029C11.6719 21.4097 11.7089 21.3203 11.7748 21.2543C11.8408 21.1884 11.9302 21.1514 12.0234 21.1514C12.1167 21.1514 12.2061 21.1884 12.272 21.2543C12.338 21.3203 12.375 21.4097 12.375 21.5029V22.2998C12.375 22.346 12.3659 22.3917 12.3482 22.4343C12.3306 22.477 12.3047 22.5158 12.272 22.5484C12.2394 22.5811 12.2006 22.6069 12.158 22.6246C12.1153 22.6423 12.0696 22.6514 12.0234 22.6514Z" fill="#058B48"/>
<path d="M12 22.7705C17.6825 22.7705 22.2891 18.1639 22.2891 12.4814C22.2891 6.79895 17.6825 2.19238 12 2.19238C6.31751 2.19238 1.71094 6.79895 1.71094 12.4814C1.71094 18.1639 6.31751 22.7705 12 22.7705Z" fill="#FDD402"/>
<path d="M4.52344 12.4814C4.52344 7.27607 8.38917 2.97425 13.4062 2.28846C12.9402 2.2246 12.4704 2.1925 12 2.19238C6.3175 2.19238 1.71094 6.79895 1.71094 12.4814C1.71094 18.1639 6.3175 22.7705 12 22.7705C12.4704 22.7704 12.9402 22.7383 13.4062 22.6744C8.38917 21.9886 4.52344 17.6868 4.52344 12.4814Z" fill="#FBBF13"/>
<path d="M17.318 14.469C17.3946 14.4365 17.4785 14.4249 17.5611 14.4354C17.6437 14.446 17.722 14.4783 17.788 14.5291C17.854 14.5799 17.9053 14.6474 17.9366 14.7245C17.9679 14.8016 17.9782 14.8857 17.9663 14.9682C17.769 16.3662 17.0731 17.6458 16.007 18.5713C14.9408 19.4969 13.5761 20.006 12.1643 20.005H11.8362C10.424 20.0071 9.05874 19.4983 7.99235 18.5726C6.92596 17.6468 6.23042 16.3666 6.0341 14.9681C6.02222 14.8857 6.03247 14.8016 6.06379 14.7245C6.09512 14.6474 6.14639 14.5799 6.21235 14.5291C6.27832 14.4784 6.35661 14.446 6.43919 14.4354C6.52177 14.4249 6.60568 14.4365 6.68232 14.469C8.3649 15.1824 10.1736 15.5506 12.0012 15.5519H12.0705C13.8741 15.5413 15.6576 15.1733 17.318 14.469Z" fill="#74563A"/>
<path d="M10.8837 19.5112C9.93643 19.0962 9.11619 18.4372 8.50672 17.6016C7.89726 16.766 7.52039 15.7836 7.41458 14.7548C7.14802 14.6595 6.90315 14.5627 6.68139 14.4687C6.60477 14.4363 6.52092 14.4248 6.43841 14.4355C6.3559 14.4462 6.27772 14.4786 6.21185 14.5294C6.14599 14.5802 6.09483 14.6476 6.0636 14.7247C6.03238 14.8019 6.02222 14.8859 6.03415 14.9682C6.23132 16.3663 6.9271 17.6461 7.9933 18.5717C9.05951 19.4973 10.4243 20.0065 11.8362 20.0053H12.1644C12.3462 20.0053 12.5258 19.9965 12.7034 19.9803C12.0754 19.9236 11.4609 19.7652 10.8837 19.5112Z" fill="#674B34"/>
<path d="M9 16.2076V20.5201C9 21.3158 9.31607 22.0788 9.87868 22.6414C10.4413 23.204 11.2044 23.5201 12 23.5201C12.7956 23.5201 13.5587 23.204 14.1213 22.6414C14.6839 22.0788 15 21.3158 15 20.5201V16.2076C13.0148 15.8631 10.9852 15.8631 9 16.2076Z" fill="#37B678"/>
<path d="M10.4062 20.5201V16.2076C11.1658 16.0759 11.9331 15.9944 12.7033 15.9635C12.5196 15.9561 12.332 15.9515 12.1406 15.9498C11.0881 15.9414 10.037 16.0277 9 16.2076V20.5201C8.99993 20.9739 9.10282 21.4218 9.30093 21.8301C9.49904 22.2383 9.7872 22.5963 10.1437 22.8771C10.5002 23.1578 10.9158 23.354 11.3591 23.4509C11.8025 23.5478 12.262 23.5428 12.7031 23.4364C12.0486 23.2785 11.4662 22.905 11.0496 22.3761C10.633 21.8471 10.4064 21.1934 10.4062 20.5201Z" fill="#00A653"/>
<path d="M12.3516 21.8545H11.6953C11.366 21.8541 11.0502 21.7231 10.8174 21.4903C10.5845 21.2574 10.4535 20.9416 10.4531 20.6123C10.4531 20.5191 10.4902 20.4296 10.5561 20.3637C10.622 20.2978 10.7114 20.2607 10.8047 20.2607C10.8979 20.2607 10.9873 20.2978 11.0533 20.3637C11.1192 20.4296 11.1562 20.5191 11.1562 20.6123C11.1564 20.7552 11.2133 20.8922 11.3143 20.9933C11.4154 21.0944 11.5524 21.1512 11.6953 21.1514H12.3516C12.4945 21.1512 12.6315 21.0944 12.7326 20.9933C12.8336 20.8922 12.8905 20.7552 12.8906 20.6123V20.4248C12.8905 20.2819 12.8336 20.1449 12.7326 20.0438C12.6315 19.9428 12.4945 19.8859 12.3516 19.8857H11.6953C11.366 19.8854 11.0502 19.7544 10.8174 19.5215C10.5845 19.2886 10.4535 18.9729 10.4531 18.6436V18.4561C10.4535 18.1267 10.5845 17.811 10.8174 17.5781C11.0502 17.3452 11.366 17.2142 11.6953 17.2139H12.3516C12.6809 17.2142 12.9966 17.3452 13.2295 17.5781C13.4624 17.811 13.5934 18.1267 13.5938 18.4561C13.5938 18.5493 13.5567 18.6387 13.4908 18.7046C13.4248 18.7706 13.3354 18.8076 13.2422 18.8076C13.1489 18.8076 13.0595 18.7706 12.9936 18.7046C12.9277 18.6387 12.8906 18.5493 12.8906 18.4561C12.8905 18.3131 12.8336 18.1761 12.7326 18.0751C12.6315 17.974 12.4945 17.9172 12.3516 17.917H11.6953C11.5524 17.9172 11.4154 17.974 11.3143 18.0751C11.2133 18.1761 11.1564 18.3131 11.1562 18.4561V18.6436C11.1564 18.7865 11.2133 18.9235 11.3143 19.0245C11.4154 19.1256 11.5524 19.1825 11.6953 19.1826H12.3516C12.6809 19.183 12.9966 19.314 13.2295 19.5469C13.4624 19.7797 13.5934 20.0955 13.5938 20.4248V20.6123C13.5934 20.9416 13.4624 21.2574 13.2295 21.4903C12.9966 21.7231 12.6809 21.8541 12.3516 21.8545Z" fill="#058B48"/>
<path d="M12.0234 17.917C11.9773 17.917 11.9316 17.9079 11.8889 17.8902C11.8462 17.8726 11.8075 17.8467 11.7748 17.814C11.7422 17.7814 11.7163 17.7426 11.6986 17.7C11.681 17.6573 11.6719 17.6116 11.6719 17.5654V16.7686C11.6719 16.6753 11.7089 16.5859 11.7748 16.52C11.8408 16.454 11.9302 16.417 12.0234 16.417C12.1167 16.417 12.2061 16.454 12.272 16.52C12.338 16.5859 12.375 16.6753 12.375 16.7686V17.5654C12.375 17.6116 12.3659 17.6573 12.3482 17.7C12.3306 17.7426 12.3047 17.7814 12.272 17.814C12.2394 17.8467 12.2006 17.8726 12.158 17.8902C12.1153 17.9079 12.0696 17.917 12.0234 17.917Z" fill="#058B48"/>
<path d="M16.5469 11.542H15.8906C15.5613 11.5416 15.2455 11.4106 15.0127 11.1778C14.7798 10.9449 14.6488 10.6291 14.6484 10.2998C14.6484 10.2066 14.6855 10.1171 14.7514 10.0512C14.8173 9.98528 14.9068 9.94824 15 9.94824C15.0932 9.94824 15.1827 9.98528 15.2486 10.0512C15.3145 10.1171 15.3516 10.2066 15.3516 10.2998C15.3517 10.4427 15.4086 10.5797 15.5096 10.6808C15.6107 10.7819 15.7477 10.8387 15.8906 10.8389H16.5469C16.6898 10.8387 16.8268 10.7819 16.9279 10.6808C17.0289 10.5797 17.0858 10.4427 17.0859 10.2998V10.1123C17.0858 9.96939 17.0289 9.83237 16.9279 9.73131C16.8268 9.63026 16.6898 9.57341 16.5469 9.57324H15.8906C15.5613 9.57287 15.2455 9.44188 15.0127 9.20901C14.7798 8.97613 14.6488 8.66039 14.6484 8.33105V8.14355C14.6488 7.81422 14.7798 7.49848 15.0127 7.2656C15.2455 7.03273 15.5613 6.90174 15.8906 6.90137H16.5469C16.8762 6.90174 17.192 7.03273 17.4248 7.2656C17.6577 7.49848 17.7887 7.81422 17.7891 8.14355C17.7891 8.23679 17.752 8.32622 17.6861 8.39215C17.6202 8.45808 17.5307 8.49512 17.4375 8.49512C17.3443 8.49512 17.2548 8.45808 17.1889 8.39215C17.123 8.32622 17.0859 8.23679 17.0859 8.14355C17.0858 8.00064 17.0289 7.86362 16.9279 7.76256C16.8268 7.66151 16.6898 7.60466 16.5469 7.60449H15.8906C15.7477 7.60466 15.6107 7.66151 15.5096 7.76256C15.4086 7.86362 15.3517 8.00064 15.3516 8.14355V8.33105C15.3517 8.47397 15.4086 8.61099 15.5096 8.71205C15.6107 8.8131 15.7477 8.86995 15.8906 8.87012H16.5469C16.8762 8.87049 17.192 9.00148 17.4248 9.23435C17.6577 9.46723 17.7887 9.78297 17.7891 10.1123V10.2998C17.7887 10.6291 17.6577 10.9449 17.4248 11.1778C17.192 11.4106 16.8762 11.5416 16.5469 11.542Z" fill="#74563A"/>
<path d="M16.2188 7.60449C16.1726 7.6045 16.1269 7.5954 16.0842 7.57774C16.0416 7.56007 16.0028 7.53418 15.9701 7.50153C15.9375 7.46888 15.9116 7.43013 15.8939 7.38747C15.8763 7.34482 15.8672 7.2991 15.8672 7.25293V6.45605C15.8672 6.36281 15.9042 6.27339 15.9702 6.20746C16.0361 6.14153 16.1255 6.10449 16.2188 6.10449C16.312 6.10449 16.4014 6.14153 16.4673 6.20746C16.5333 6.27339 16.5703 6.36281 16.5703 6.45605V7.25293C16.5703 7.2991 16.5612 7.34482 16.5436 7.38747C16.5259 7.43013 16.5 7.46888 16.4674 7.50153C16.4347 7.53418 16.3959 7.56007 16.3533 7.57774C16.3106 7.5954 16.2649 7.6045 16.2188 7.60449ZM16.2188 12.3389C16.1726 12.3389 16.1269 12.3298 16.0842 12.3121C16.0416 12.2944 16.0028 12.2686 15.9701 12.2359C15.9375 12.2033 15.9116 12.1645 15.8939 12.1218C15.8763 12.0792 15.8672 12.0335 15.8672 11.9873V11.1904C15.8672 11.0972 15.9042 11.0078 15.9702 10.9418C16.0361 10.8759 16.1255 10.8389 16.2188 10.8389C16.312 10.8389 16.4014 10.8759 16.4673 10.9418C16.5333 11.0078 16.5703 11.0972 16.5703 11.1904V11.9873C16.5703 12.0335 16.5612 12.0792 16.5436 12.1218C16.5259 12.1645 16.5 12.2033 16.4674 12.2359C16.4347 12.2686 16.3959 12.2944 16.3533 12.3121C16.3106 12.3298 16.2649 12.3389 16.2188 12.3389ZM8.10938 11.542H7.45312C7.12379 11.5416 6.80805 11.4106 6.57517 11.1778C6.3423 10.9449 6.21131 10.6291 6.21094 10.2998C6.21094 10.2066 6.24798 10.1171 6.31391 10.0512C6.37984 9.98528 6.46926 9.94824 6.5625 9.94824C6.65574 9.94824 6.74516 9.98528 6.81109 10.0512C6.87702 10.1171 6.91406 10.2066 6.91406 10.2998C6.91423 10.4427 6.97108 10.5797 7.07213 10.6808C7.17319 10.7819 7.31021 10.8387 7.45312 10.8389H8.10938C8.25229 10.8387 8.38931 10.7819 8.49037 10.6808C8.59142 10.5797 8.64827 10.4427 8.64844 10.2998V10.1123C8.64827 9.96939 8.59142 9.83237 8.49037 9.73131C8.38931 9.63026 8.25229 9.57341 8.10938 9.57324H7.45312C7.12379 9.57287 6.80805 9.44188 6.57517 9.20901C6.3423 8.97613 6.21131 8.66039 6.21094 8.33106V8.14356C6.21131 7.81422 6.3423 7.49848 6.57517 7.2656C6.80805 7.03273 7.12379 6.90174 7.45312 6.90137H8.10938C8.43871 6.90174 8.75445 7.03273 8.98733 7.2656C9.2202 7.49848 9.35119 7.81422 9.35156 8.14356C9.35156 8.2368 9.31452 8.32622 9.24859 8.39215C9.18266 8.45808 9.09324 8.49512 9 8.49512C8.90676 8.49512 8.81734 8.45808 8.75141 8.39215C8.68548 8.32622 8.64844 8.2368 8.64844 8.14356C8.64827 8.00064 8.59142 7.86362 8.49037 7.76256C8.38931 7.66151 8.25229 7.60466 8.10938 7.60449H7.45312C7.31021 7.60466 7.17319 7.66151 7.07213 7.76256C6.97108 7.86362 6.91423 8.00064 6.91406 8.14356V8.33106C6.91423 8.47397 6.97108 8.61099 7.07213 8.71205C7.17319 8.8131 7.31021 8.86995 7.45312 8.87012H8.10938C8.43871 8.87049 8.75445 9.00148 8.98733 9.23435C9.2202 9.46723 9.35119 9.78297 9.35156 10.1123V10.2998C9.35119 10.6291 9.2202 10.9449 8.98733 11.1778C8.75445 11.4106 8.43871 11.5416 8.10938 11.542Z" fill="#74563A"/>
<path d="M7.78125 7.60449C7.73508 7.6045 7.68936 7.5954 7.64671 7.57774C7.60405 7.56007 7.5653 7.53418 7.53265 7.50153C7.5 7.46888 7.47411 7.43013 7.45644 7.38747C7.43878 7.34482 7.42968 7.2991 7.42969 7.25293V6.45605C7.42969 6.36281 7.46673 6.27339 7.53266 6.20746C7.59859 6.14153 7.68801 6.10449 7.78125 6.10449C7.87449 6.10449 7.96391 6.14153 8.02984 6.20746C8.09577 6.27339 8.13281 6.36281 8.13281 6.45605V7.25293C8.13282 7.2991 8.12372 7.34482 8.10606 7.38747C8.08839 7.43013 8.0625 7.46888 8.02985 7.50153C7.9972 7.53418 7.95845 7.56007 7.91579 7.57774C7.87314 7.5954 7.82742 7.6045 7.78125 7.60449ZM7.78125 12.3389C7.73508 12.3389 7.68936 12.3298 7.64671 12.3121C7.60405 12.2944 7.5653 12.2686 7.53265 12.2359C7.5 12.2033 7.47411 12.1645 7.45644 12.1218C7.43878 12.0792 7.42968 12.0335 7.42969 11.9873V11.1904C7.42969 11.0972 7.46673 11.0078 7.53266 10.9418C7.59859 10.8759 7.68801 10.8389 7.78125 10.8389C7.87449 10.8389 7.96391 10.8759 8.02984 10.9418C8.09577 11.0078 8.13281 11.0972 8.13281 11.1904V11.9873C8.13282 12.0335 8.12372 12.0792 8.10606 12.1218C8.08839 12.1645 8.0625 12.2033 8.02985 12.2359C7.9972 12.2686 7.95845 12.2944 7.91579 12.3121C7.87314 12.3298 7.82742 12.3389 7.78125 12.3389Z" fill="#74563A"/>
</svg>
