<svg width="56" height="56" viewBox="0 0 56 56" fill="none" xmlns="http://www.w3.org/2000/svg">
<g id="Icon / Notification">
<path id="Vector" d="M27.9997 51.334C30.5663 51.334 32.6663 49.234 32.6663 46.6673H23.333C23.333 49.234 25.433 51.334 27.9997 51.334ZM41.9997 37.334V25.6673C41.9997 18.504 38.1963 12.5073 31.4997 10.9207V9.33398C31.4997 7.39732 29.9363 5.83398 27.9997 5.83398C26.063 5.83398 24.4997 7.39732 24.4997 9.33398V10.9207C17.8263 12.5073 13.9997 18.4807 13.9997 25.6673V37.334L9.33301 42.0006V44.334H46.6663V42.0006L41.9997 37.334ZM37.333 39.6673H18.6663V25.6673C18.6663 19.8807 22.1897 15.1673 27.9997 15.1673C33.8097 15.1673 37.333 19.8807 37.333 25.6673V39.6673Z" fill="#6F6E6E"/>
</g>
</svg>
