<svg width="56" height="56" viewBox="0 0 56 56" fill="none" xmlns="http://www.w3.org/2000/svg">
<g id="Icon / Question Mark">
<path id="Vector" d="M28.0001 14C25.5666 14.0031 23.2336 14.9712 21.5128 16.692C19.792 18.4128 18.8239 20.7458 18.8208 23.1793H23.4875C23.4875 20.6897 25.5128 18.6667 28.0001 18.6667C30.4875 18.6667 32.5128 20.6897 32.5128 23.1793C32.5128 24.5747 31.3905 25.5873 29.6755 26.9733C29.1152 27.4122 28.5771 27.8787 28.0631 28.371C25.7345 30.6973 25.6668 33.1683 25.6668 33.4437V35H30.3335L30.3311 33.523C30.3335 33.4857 30.4081 32.6223 31.3601 31.6727C31.7101 31.3227 32.1511 30.9727 32.6085 30.604C34.4261 29.1317 37.1771 26.908 37.1771 23.1793C37.1753 20.7458 36.2079 18.4124 34.4873 16.6914C32.7668 14.9704 30.4337 14.0025 28.0001 14ZM25.6668 37.3333H30.3335V42H25.6668V37.3333Z" fill="#6F6E6E"/>
<path id="Vector_2" d="M27.9998 4.66602C15.1338 4.66602 4.6665 15.1333 4.6665 27.9993C4.6665 40.8653 15.1338 51.3327 27.9998 51.3327C40.8658 51.3327 51.3332 40.8653 51.3332 27.9993C51.3332 15.1333 40.8658 4.66602 27.9998 4.66602ZM27.9998 46.666C17.7075 46.666 9.33317 38.2917 9.33317 27.9993C9.33317 17.707 17.7075 9.33268 27.9998 9.33268C38.2922 9.33268 46.6665 17.707 46.6665 27.9993C46.6665 38.2917 38.2922 46.666 27.9998 46.666Z" fill="#6F6E6E"/>
</g>
</svg>
