<svg width="56" height="56" viewBox="0 0 56 56" fill="none" xmlns="http://www.w3.org/2000/svg">
<g id="Icon/ Security">
<g id="Group">
<path id="Vector" d="M18.683 5.565C15.3496 6.48369 12.0388 7.48265 8.75352 8.561C8.45353 8.65818 8.18687 8.83765 7.9839 9.07898C7.78094 9.32031 7.64983 9.6138 7.60552 9.926C5.66652 24.4755 10.1465 35.091 15.491 42.084C17.7538 45.0744 20.4519 47.7088 23.4955 49.8995C24.7065 50.7535 25.7775 51.3695 26.621 51.765C27.041 51.9645 27.384 52.0975 27.6465 52.178C27.7613 52.2183 27.8797 52.2476 28 52.2655C28.1189 52.2462 28.236 52.2169 28.35 52.178C28.616 52.0975 28.959 51.9645 29.379 51.765C30.219 51.3695 31.2935 50.75 32.5045 49.8995C35.5481 47.7087 38.2462 45.0743 40.509 42.084C45.8535 35.0945 50.3335 24.4755 48.3945 9.926C48.3506 9.61365 48.2196 9.31997 48.0166 9.07858C47.8136 8.83718 47.5467 8.65781 47.2465 8.561C44.968 7.8155 41.1215 6.601 37.317 5.5685C33.432 4.515 29.8585 3.7345 28 3.7345C26.145 3.7345 22.568 4.515 18.683 5.5685V5.565ZM17.752 1.96C21.5495 0.9275 25.585 0 28 0C30.415 0 34.4505 0.9275 38.248 1.96C42.133 3.01 46.0495 4.2525 48.3525 5.005C49.3154 5.32298 50.1691 5.90613 50.8154 6.68745C51.4618 7.46878 51.8746 8.41659 52.0065 9.422C54.0925 25.0915 49.252 36.7045 43.379 44.387C40.8886 47.6734 37.919 50.5675 34.5695 52.9725C33.4113 53.8047 32.1842 54.5366 30.9015 55.16C29.9215 55.622 28.868 56 28 56C27.132 56 26.082 55.622 25.0985 55.16C23.8158 54.5366 22.5887 53.8047 21.4305 52.9725C18.0811 50.5674 15.1116 47.6734 12.621 44.387C6.74802 36.7045 1.90752 25.0915 3.99352 9.422C4.12542 8.41659 4.53827 7.46878 5.18463 6.68745C5.83099 5.90613 6.68464 5.32298 7.64752 5.005C10.9907 3.90883 14.3598 2.89354 17.752 1.96Z" fill="#6F6E6E"/>
<path id="Vector_2" d="M33.25 22.7492C33.2506 23.8353 32.9143 24.8949 32.2874 25.7819C31.6606 26.6689 30.774 27.3397 29.75 27.7017L31.0975 34.6667C31.1465 34.92 31.1389 35.1811 31.0752 35.4311C31.0116 35.6812 30.8934 35.914 30.7291 36.113C30.5649 36.3121 30.3587 36.4723 30.1253 36.5823C29.8919 36.6923 29.637 36.7493 29.379 36.7492H26.621C26.3633 36.7487 26.1088 36.6914 25.8758 36.5812C25.6429 36.4709 25.4371 36.3106 25.2732 36.1117C25.1094 35.9127 24.9915 35.6801 24.928 35.4303C24.8646 35.1805 24.857 34.9197 24.906 34.6667L26.25 27.7017C25.3427 27.3809 24.541 26.8169 23.9325 26.0713C23.324 25.3257 22.9322 24.4271 22.7999 23.4739C22.6675 22.5207 22.7998 21.5494 23.1821 20.6662C23.5644 19.7831 24.1822 19.022 24.9678 18.4661C25.7534 17.9103 26.6767 17.5811 27.6368 17.5145C28.5969 17.448 29.5568 17.6465 30.4116 18.0886C31.2664 18.5307 31.9833 19.1992 32.4839 20.0212C32.9845 20.8431 33.2495 21.7868 33.25 22.7492Z" fill="#6F6E6E"/>
</g>
</g>
</svg>
