<svg width="33" height="32" viewBox="0 0 33 32" fill="none" xmlns="http://www.w3.org/2000/svg">
<g id="Icons/ social">
<path id="Vector" d="M28 3.5H5C4.44687 3.5 4 3.94687 4 4.5V27.5C4 28.0531 4.44687 28.5 5 28.5H28C28.5531 28.5 29 28.0531 29 27.5V4.5C29 3.94687 28.5531 3.5 28 3.5ZM21.7188 21.8C20.45 22.9688 18.7188 23.6562 16.6531 23.6562C13.6625 23.6562 11.075 21.9406 9.81563 19.4406C9.27903 18.3731 8.99971 17.1948 9 16C9 14.7625 9.29688 13.5938 9.81563 12.5594C11.075 10.0562 13.6625 8.34062 16.6531 8.34062C18.7156 8.34062 20.4469 9.1 21.775 10.3344L19.5812 12.5312C18.7875 11.7719 17.7781 11.3875 16.6562 11.3875C14.6625 11.3875 12.975 12.7344 12.3719 14.5437C12.2188 15.0031 12.1313 15.4937 12.1313 16C12.1313 16.5063 12.2188 16.9969 12.3719 17.4562C12.975 19.2656 14.6625 20.6125 16.6531 20.6125C17.6844 20.6125 18.5594 20.3406 19.2437 19.8813C20.0562 19.3375 20.5938 18.5281 20.7719 17.5688H16.6531V14.6062H23.8625C23.9531 15.1094 24 15.6313 24 16.1719C24 18.5063 23.1656 20.4656 21.7188 21.8Z" fill="black"/>
</g>
</svg>
