<svg width="24" height="25" viewBox="0 0 24 25" fill="none" xmlns="http://www.w3.org/2000/svg">
<path d="M22.3673 6.87727C21.6007 7.21805 20.7756 7.44792 19.9099 7.55079C20.7938 7.02162 21.4716 6.18342 21.7912 5.18351C20.9644 5.67416 20.0492 6.03018 19.0742 6.22237C18.294 5.39095 17.1819 4.87109 15.9513 4.87109C13.5887 4.87109 11.6731 6.78667 11.6731 9.14972C11.6731 9.48457 11.7108 9.81096 11.784 10.1247C8.22802 9.94601 5.07504 8.24294 2.96473 5.65426C2.59643 6.28587 2.38561 7.02078 2.38561 7.80564C2.38561 9.28984 3.14083 10.5996 4.28891 11.3667C3.58787 11.3443 2.9279 11.1517 2.35089 10.8312C2.35047 10.849 2.35047 10.8672 2.35047 10.8854C2.35047 12.958 3.82536 14.6869 5.78285 15.0806C5.42387 15.178 5.04583 15.2305 4.65552 15.2305C4.3795 15.2305 4.11153 15.2038 3.85034 15.1534C4.39517 16.8531 5.97505 18.0905 7.84702 18.1248C6.38271 19.2724 4.53825 19.9566 2.53335 19.9566C2.18833 19.9566 1.84755 19.9362 1.5127 19.8964C3.40669 21.111 5.65543 21.8188 8.07139 21.8188C15.9416 21.8188 20.2447 15.2995 20.2447 9.64544C20.2447 9.46002 20.2409 9.27502 20.2329 9.0913C21.0685 8.48932 21.7941 7.73536 22.3673 6.87727Z" fill="#090909"/>
</svg>
