<svg width="24" height="25" viewBox="0 0 24 25" fill="none" xmlns="http://www.w3.org/2000/svg">
<path d="M22.3678 6.87727C21.6012 7.21805 20.7761 7.44792 19.9104 7.55079C20.7943 7.02162 21.472 6.18342 21.7917 5.18351C20.9649 5.67416 20.0496 6.03018 19.0747 6.22237C18.2945 5.39095 17.1824 4.87109 15.9518 4.87109C13.5892 4.87109 11.6736 6.78667 11.6736 9.14972C11.6736 9.48457 11.7113 9.81096 11.7845 10.1247C8.22851 9.94601 5.07553 8.24294 2.96521 5.65426C2.59692 6.28587 2.3861 7.02078 2.3861 7.80564C2.3861 9.28984 3.14132 10.5996 4.2894 11.3667C3.58836 11.3443 2.92838 11.1517 2.35138 10.8312C2.35096 10.849 2.35096 10.8672 2.35096 10.8854C2.35096 12.958 3.82585 14.6869 5.78334 15.0806C5.42435 15.178 5.04632 15.2305 4.65601 15.2305C4.37999 15.2305 4.11202 15.2038 3.85083 15.1534C4.39566 16.8531 5.97553 18.0905 7.84751 18.1248C6.3832 19.2724 4.53874 19.9566 2.53384 19.9566C2.18882 19.9566 1.84804 19.9362 1.51318 19.8964C3.40717 21.111 5.65592 21.8188 8.07188 21.8188C15.9421 21.8188 20.2452 15.2995 20.2452 9.64544C20.2452 9.46002 20.2414 9.27502 20.2334 9.0913C21.069 8.48932 21.7946 7.73536 22.3678 6.87727Z" fill="#090909"/>
</svg>
