<svg width="20" height="20" viewBox="0 0 20 20" fill="none" xmlns="http://www.w3.org/2000/svg">
<path d="M10.1341 9.096C10.0508 9.088 9.95078 9.088 9.85912 9.096C7.87578 9.032 6.30078 7.472 6.30078 5.552C6.30078 3.592 7.95078 2 10.0008 2C12.0425 2 13.7008 3.592 13.7008 5.552C13.6925 7.472 12.1175 9.032 10.1341 9.096Z" stroke="#6F6E6E" stroke-width="1.09" stroke-linecap="round" stroke-linejoin="round"/>
<path d="M5.96758 12.0492C3.95091 13.3452 3.95091 15.4572 5.96758 16.7452C8.25925 18.2172 12.0176 18.2172 14.3093 16.7452C16.3259 15.4492 16.3259 13.3372 14.3093 12.0492C12.0259 10.5852 8.26758 10.5852 5.96758 12.0492Z" stroke="#6F6E6E" stroke-width="1.09" stroke-linecap="round" stroke-linejoin="round"/>
</svg>
