<svg width="21" height="20" viewBox="0 0 21 20" fill="none" xmlns="http://www.w3.org/2000/svg">
<path d="M10.3339 11.7367C8.55889 11.7367 7.10889 10.3527 7.10889 8.64074C7.10889 6.92873 8.55889 5.55273 10.3339 5.55273C12.1089 5.55273 13.5589 6.93673 13.5589 8.64874C13.5589 10.3607 12.1089 11.7367 10.3339 11.7367ZM10.3339 6.75273C9.25055 6.75273 8.35889 7.60074 8.35889 8.64874C8.35889 9.69674 9.24222 10.5447 10.3339 10.5447C11.4256 10.5447 12.3089 9.69674 12.3089 8.64874C12.3089 7.60074 11.4172 6.75273 10.3339 6.75273Z" fill="#6F6E6E"/>
<path d="M10.3339 18.6084C9.10055 18.6084 7.85889 18.1604 6.89222 17.2724C4.43389 15.0004 1.71722 11.3764 2.74222 7.06439C3.66722 3.15239 7.22555 1.40039 10.3339 1.40039C10.3339 1.40039 10.3339 1.40039 10.3422 1.40039C13.4506 1.40039 17.0089 3.15239 17.9339 7.07239C18.9506 11.3844 16.2339 15.0004 13.7756 17.2724C12.8089 18.1604 11.5672 18.6084 10.3339 18.6084ZM10.3339 2.60039C7.90889 2.60039 4.79222 3.84039 3.96722 7.32839C3.06722 11.0964 5.53389 14.3444 7.76722 16.4004C9.20889 17.7364 11.4672 17.7364 12.9089 16.4004C15.1339 14.3444 17.6006 11.0964 16.7172 7.32839C15.8839 3.84039 12.7589 2.60039 10.3339 2.60039Z" fill="#6F6E6E"/>
</svg>
