<svg width="21" height="20" viewBox="0 0 21 20" fill="none" xmlns="http://www.w3.org/2000/svg">
<path d="M10.3344 11.7367C8.55937 11.7367 7.10938 10.3527 7.10938 8.64074C7.10938 6.92873 8.55937 5.55273 10.3344 5.55273C12.1094 5.55273 13.5594 6.93673 13.5594 8.64874C13.5594 10.3607 12.1094 11.7367 10.3344 11.7367ZM10.3344 6.75273C9.25104 6.75273 8.35938 7.60074 8.35938 8.64874C8.35938 9.69674 9.24271 10.5447 10.3344 10.5447C11.426 10.5447 12.3094 9.69674 12.3094 8.64874C12.3094 7.60074 11.4177 6.75273 10.3344 6.75273Z" fill="#6F6E6E"/>
<path d="M10.3344 18.6084C9.10104 18.6084 7.85938 18.1604 6.89271 17.2724C4.43437 15.0004 1.71771 11.3764 2.74271 7.06439C3.66771 3.15239 7.22604 1.40039 10.3344 1.40039C10.3344 1.40039 10.3344 1.40039 10.3427 1.40039C13.451 1.40039 17.0094 3.15239 17.9344 7.07239C18.951 11.3844 16.2344 15.0004 13.776 17.2724C12.8094 18.1604 11.5677 18.6084 10.3344 18.6084ZM10.3344 2.60039C7.90938 2.60039 4.79271 3.84039 3.96771 7.32839C3.06771 11.0964 5.53438 14.3444 7.76771 16.4004C9.20937 17.7364 11.4677 17.7364 12.9094 16.4004C15.1344 14.3444 17.601 11.0964 16.7177 7.32839C15.8844 3.84039 12.7594 2.60039 10.3344 2.60039Z" fill="#6F6E6E"/>
</svg>
