<svg width="24" height="25" viewBox="0 0 24 25" fill="none" xmlns="http://www.w3.org/2000/svg">
<path d="M20.0008 13.846C20.0008 12.5687 18.952 11.5312 17.6587 11.5312C15.8135 11.4539 13.9256 11.4198 11.9996 11.4237C10.0736 11.4198 8.18511 11.4539 6.33988 11.5312C5.04721 11.5312 3.99838 12.5687 3.99838 13.846C3.92047 14.8584 3.88696 15.8715 3.88982 16.8833C3.88696 17.8958 3.92052 18.9083 3.99838 19.9207C3.99838 21.1985 5.04721 22.236 6.33988 22.236C8.18516 22.3129 10.0736 22.3469 11.9996 22.3435C13.9256 22.3469 15.8134 22.3129 17.6587 22.236C18.952 22.236 20.0008 21.1985 20.0008 19.9207C20.0787 18.9083 20.1123 17.8958 20.1088 16.8833C20.1123 15.8715 20.0787 14.8583 20.0008 13.846ZM7.40122 20.3675H6.29329V14.2342H5.14672V13.1928H8.54788V14.2342H7.40127V20.3675H7.40122ZM11.343 20.3675H10.359V19.7837C10.1782 19.9992 9.98952 20.1628 9.79279 20.2753C9.59666 20.388 9.40625 20.4442 9.22147 20.4442C8.99404 20.4442 8.82299 20.3657 8.70758 20.2084C8.59222 20.0503 8.53419 19.8138 8.53419 19.4995V15.075H9.51824V19.1322C9.51824 19.2578 9.53924 19.3488 9.58021 19.4045C9.62169 19.4608 9.68821 19.4893 9.78032 19.4893C9.85311 19.4893 9.94457 19.4517 10.0549 19.3778C10.1652 19.3034 10.2669 19.2084 10.359 19.093V15.075H11.343V20.3675ZM15.1308 19.2715C15.1308 19.6477 15.054 19.9355 14.9005 20.1356C14.7459 20.3351 14.523 20.4352 14.2315 20.4352C14.0393 20.4352 13.8676 20.3966 13.717 20.3186C13.5663 20.2413 13.4259 20.1224 13.2969 19.961V20.3675H12.3032V13.1929H13.2969V15.503C13.4293 15.3411 13.5697 15.2189 13.7192 15.1347C13.8681 15.0507 14.0194 15.0085 14.1718 15.0085C14.4833 15.0085 14.7215 15.1216 14.8846 15.3474C15.0489 15.5735 15.1308 15.9028 15.1308 16.3348V19.2715ZM18.7684 17.8458H16.8862V18.844C16.8862 19.1225 16.9186 19.3153 16.9839 19.4232C17.0482 19.5313 17.1591 19.5846 17.3159 19.5846C17.4785 19.5846 17.5927 19.5392 17.6582 19.4476C17.723 19.3567 17.7554 19.1555 17.7554 18.844V18.476H18.7684V18.874C18.7684 19.4163 18.645 19.8245 18.3983 20.0996C18.1516 20.3736 17.7838 20.5111 17.2932 20.5111C16.8532 20.5111 16.5064 20.3656 16.2529 20.0747C16.0005 19.7836 15.8732 19.3834 15.8732 18.874V16.4983C15.8732 16.0384 16.0124 15.6643 16.2904 15.3751C16.5684 15.0858 16.9277 14.9412 17.3676 14.9412C17.8183 14.9412 18.1635 15.0754 18.4056 15.3426C18.6472 15.611 18.7684 15.9958 18.7684 16.4983V17.8458H18.7684ZM12.4936 9.67114C12.3777 9.51308 12.3208 9.27716 12.3208 8.96225V4.53842H13.3042V8.59559C13.3042 8.72122 13.3247 8.81159 13.3662 8.86789C13.4076 8.92358 13.4742 8.95203 13.5663 8.95203C13.639 8.95203 13.7305 8.91505 13.8408 8.84061C13.9517 8.76617 14.0528 8.6712 14.145 8.5558V4.53842H15.129V9.83084H14.145V9.2465C13.9636 9.46194 13.7749 9.62567 13.5788 9.73878C13.3826 9.85077 13.1922 9.90763 13.008 9.90763C12.7801 9.90762 12.609 9.82864 12.4936 9.67114ZM8.62855 8.49214C8.62855 8.94177 8.75816 9.29989 9.01625 9.56539C9.2743 9.83202 9.61879 9.96444 10.0491 9.96444C10.4965 9.96444 10.8472 9.83595 11.1026 9.57786C11.3578 9.31981 11.4851 8.96506 11.4851 8.51145V5.77822C11.4851 5.37463 11.3549 5.0443 11.0952 4.7885C10.8348 4.5327 10.5017 4.40422 10.0941 4.40422C9.64672 4.40422 9.29085 4.52586 9.02596 4.76919C8.76107 5.01195 8.62855 5.3382 8.62855 5.74808V8.49214ZM9.64105 5.70833C9.64105 5.59236 9.67911 5.49917 9.7536 5.42806C9.82921 5.357 9.92643 5.32175 10.0464 5.32175C10.1772 5.32175 10.2817 5.357 10.3619 5.42806C10.442 5.49913 10.4818 5.59231 10.4818 5.70833V8.59105C10.4818 8.73317 10.4426 8.84516 10.3647 8.92587C10.2862 9.00716 10.1794 9.04752 10.0463 9.04752C9.91616 9.04752 9.81669 9.00828 9.74614 8.92869C9.67569 8.84909 9.641 8.73655 9.641 8.591V5.70833H9.64105ZM14.0131 15.988C14.083 16.0806 14.1183 16.2159 14.1183 16.3944V19.1277C14.1183 19.2966 14.0899 19.4176 14.033 19.4927C13.9762 19.5665 13.888 19.6035 13.7676 19.6035C13.684 19.6035 13.6049 19.5847 13.53 19.5466C13.4549 19.5086 13.377 19.4465 13.2969 19.3607V16.0625C13.3634 15.9896 13.431 15.9357 13.4998 15.901C13.5686 15.8664 13.6374 15.8487 13.7078 15.8487C13.8409 15.8487 13.9426 15.8952 14.0131 15.988ZM17.6531 16.0119C17.7213 16.1079 17.7554 16.2671 17.7554 16.4883V17.0237H16.8862V16.4883C16.8862 16.2671 16.9203 16.1079 16.9885 16.0119C17.0567 15.9163 17.1693 15.868 17.3256 15.868C17.4757 15.868 17.5848 15.9163 17.6531 16.0119ZM6.28077 6.98797L4.96194 2.65625H6.07846L6.79752 5.5242H6.86685L7.553 2.65625H8.67857L7.38866 6.85381V9.83089H6.28077V6.98797Z" fill="#090909"/>
</svg>
