<svg width="129" height="24" viewBox="0 0 129 24" fill="none" xmlns="http://www.w3.org/2000/svg">
<path d="M52.1153 9.20288H48.8789V7.08029C48.8789 6.28316 49.4072 6.09731 49.7793 6.09731C50.1506 6.09731 52.0632 6.09731 52.0632 6.09731V2.59297L48.9178 2.58069C45.4262 2.58069 44.6316 5.19434 44.6316 6.86693V9.20288H42.6123V12.8139H44.6316C44.6316 17.4481 44.6316 23.0319 44.6316 23.0319H48.8789C48.8789 23.0319 48.8789 17.3931 48.8789 12.8139H51.7449L52.1153 9.20288Z" fill="#090909"/>
<path d="M11.9365 7.06873C8.97358 7.06873 6.51855 9.48142 6.51855 12.4867C6.51855 15.492 8.93125 17.9047 11.9365 17.9047C14.9418 17.9047 17.3545 15.4497 17.3545 12.4867C17.3545 9.52375 14.8995 7.06873 11.9365 7.06873ZM11.9365 15.9576C10.0318 15.9576 8.46564 14.3915 8.46564 12.4867C8.46564 10.582 10.0318 9.01581 11.9365 9.01581C13.8413 9.01581 15.4074 10.582 15.4074 12.4867C15.4074 14.3915 13.8413 15.9576 11.9365 15.9576Z" fill="#090909"/>
<path d="M17.5661 8.16926C18.2441 8.16926 18.7937 7.61968 18.7937 6.94175C18.7937 6.26381 18.2441 5.71423 17.5661 5.71423C16.8882 5.71423 16.3386 6.26381 16.3386 6.94175C16.3386 7.61968 16.8882 8.16926 17.5661 8.16926Z" fill="#090909"/>
<path d="M20.7408 3.76719C19.6403 2.62433 18.0741 2.03174 16.2964 2.03174H7.57678C3.89424 2.03174 1.43921 4.48676 1.43921 8.1693V16.8466C1.43921 18.6667 2.0318 20.2328 3.21699 21.3757C4.35984 22.4762 5.88365 23.0264 7.6191 23.0264H16.254C18.0741 23.0264 19.5979 22.4339 20.6985 21.3757C21.8413 20.2751 22.4339 18.709 22.4339 16.8889V8.1693C22.4339 6.39153 21.8413 4.86772 20.7408 3.76719ZM20.5715 16.8889C20.5715 18.2011 20.1059 19.2593 19.344 19.9788C18.5821 20.6984 17.5239 21.0794 16.254 21.0794H7.6191C6.34926 21.0794 5.29106 20.6984 4.52916 19.9788C3.76725 19.2169 3.3863 18.1587 3.3863 16.8466V8.1693C3.3863 6.89946 3.76725 5.84126 4.52916 5.07936C5.24873 4.35978 6.34926 3.97883 7.6191 3.97883H16.3387C17.6085 3.97883 18.6667 4.35978 19.4286 5.12169C20.1482 5.88359 20.5715 6.94179 20.5715 8.1693V16.8889Z" fill="#090909"/>
<path d="M92.3676 6.37751C91.6009 6.71829 90.7758 6.94816 89.9101 7.05103C90.794 6.52187 91.4718 5.68367 91.7914 4.68376C90.9647 5.1744 90.0494 5.53042 89.0745 5.72262C88.2943 4.89119 87.1822 4.37134 85.9515 4.37134C83.5889 4.37134 81.6733 6.28692 81.6733 8.64996C81.6733 8.98482 81.711 9.31121 81.7843 9.6249C78.2283 9.44625 75.0753 7.74318 72.965 5.1545C72.5967 5.78612 72.3859 6.52102 72.3859 7.30588C72.3859 8.79008 73.1411 10.0999 74.2892 10.867C73.5881 10.8445 72.9281 10.6519 72.3511 10.3314C72.3507 10.3492 72.3507 10.3674 72.3507 10.3856C72.3507 12.4583 73.8256 14.1872 75.7831 14.5809C75.4241 14.6782 75.0461 14.7307 74.6558 14.7307C74.3797 14.7307 74.1118 14.704 73.8506 14.6537C74.3954 16.3533 75.9753 17.5907 77.8473 17.625C76.383 18.7727 74.5385 19.4568 72.5336 19.4568C72.1886 19.4568 71.8478 19.4365 71.5129 19.3967C73.4069 20.6112 75.6557 21.319 78.0716 21.319C85.9418 21.319 90.245 14.7997 90.245 9.14568C90.245 8.96026 90.2412 8.77527 90.2331 8.59154C91.0688 7.98956 91.7944 7.23561 92.3676 6.37751Z" fill="#090909"/>
<path d="M125.001 13.3462C125.001 12.0689 123.952 11.0314 122.659 11.0314C120.814 10.9541 118.926 10.92 117 10.924C115.074 10.92 113.186 10.9541 111.34 11.0314C110.048 11.0314 108.999 12.0689 108.999 13.3462C108.921 14.3586 108.887 15.3718 108.89 16.3836C108.887 17.396 108.921 18.4085 108.999 19.421C108.999 20.6988 110.048 21.7363 111.34 21.7363C113.186 21.8131 115.074 21.8471 117 21.8438C118.926 21.8471 120.814 21.8131 122.659 21.7363C123.952 21.7363 125.001 20.6988 125.001 19.421C125.079 18.4085 125.113 17.396 125.109 16.3836C125.113 15.3718 125.079 14.3586 125.001 13.3462ZM112.402 19.8677H111.294V13.7344H110.147V12.6931H113.548V13.7344H112.402V19.8677H112.402ZM116.344 19.8677H115.359V19.284C115.179 19.4994 114.99 19.6631 114.793 19.7755C114.597 19.8882 114.407 19.9444 114.222 19.9444C113.995 19.9444 113.823 19.866 113.708 19.7086C113.593 19.5506 113.535 19.3141 113.535 18.9997V14.5752H114.519V18.6324C114.519 18.758 114.54 18.849 114.581 18.9047C114.622 18.9611 114.689 18.9896 114.781 18.9896C114.854 18.9896 114.945 18.9519 115.055 18.8781C115.166 18.8036 115.267 18.7087 115.359 18.5932V14.5753H116.344V19.8677ZM120.131 18.7717C120.131 19.148 120.054 19.4357 119.901 19.6358C119.746 19.8353 119.524 19.9354 119.232 19.9354C119.04 19.9354 118.868 19.8968 118.718 19.8188C118.567 19.7416 118.426 19.6227 118.297 19.4612V19.8678H117.304V12.6931H118.297V15.0033C118.43 14.8414 118.57 14.7191 118.72 14.635C118.869 14.5509 119.02 14.5088 119.172 14.5088C119.484 14.5088 119.722 14.6219 119.885 14.8476C120.049 15.0738 120.131 15.4031 120.131 15.8351V18.7717ZM123.769 17.346H121.887V18.3443C121.887 18.6228 121.919 18.8155 121.984 18.9234C122.049 19.0315 122.16 19.0849 122.316 19.0849C122.479 19.0849 122.593 19.0395 122.659 18.9479C122.723 18.8569 122.756 18.6558 122.756 18.3442V17.9763H123.769V18.3743C123.769 18.9166 123.645 19.3247 123.399 19.5999C123.152 19.8738 122.784 20.0114 122.294 20.0114C121.854 20.0114 121.507 19.8659 121.253 19.5749C121.001 19.2838 120.874 18.8836 120.874 18.3742V15.9986C120.874 15.5386 121.013 15.1646 121.291 14.8753C121.569 14.586 121.928 14.4415 122.368 14.4415C122.819 14.4415 123.164 14.5757 123.406 14.8428C123.648 15.1112 123.769 15.496 123.769 15.9985V17.346H123.769ZM117.494 9.17138C117.378 9.01332 117.321 8.7774 117.321 8.46249V4.03867H118.305V8.09584C118.305 8.22146 118.325 8.31184 118.367 8.36813C118.408 8.42382 118.475 8.45228 118.567 8.45228C118.64 8.45228 118.731 8.41529 118.841 8.34085C118.952 8.26642 119.053 8.17145 119.145 8.05604V4.03867H120.129V9.33109H119.145V8.74674C118.964 8.96218 118.775 9.12592 118.579 9.23903C118.383 9.35101 118.193 9.40787 118.008 9.40787C117.781 9.40787 117.61 9.32888 117.494 9.17138ZM113.629 7.99238C113.629 8.44201 113.759 8.80014 114.017 9.06563C114.275 9.33226 114.619 9.46468 115.05 9.46468C115.497 9.46468 115.848 9.3362 116.103 9.0781C116.358 8.82006 116.486 8.46531 116.486 8.0117V5.27846C116.486 4.87487 116.355 4.54454 116.096 4.28874C115.835 4.03295 115.502 3.90446 115.095 3.90446C114.647 3.90446 114.291 4.0261 114.026 4.26943C113.762 4.5122 113.629 4.83845 113.629 5.24832V7.99238ZM114.642 5.20857C114.642 5.0926 114.68 4.99942 114.754 4.92831C114.83 4.85724 114.927 4.82199 115.047 4.82199C115.178 4.82199 115.282 4.85724 115.362 4.92831C115.442 4.99937 115.482 5.09256 115.482 5.20857V8.09129C115.482 8.23342 115.443 8.3454 115.365 8.42612C115.287 8.5074 115.18 8.54776 115.047 8.54776C114.917 8.54776 114.817 8.50853 114.747 8.42893C114.676 8.34934 114.641 8.23679 114.641 8.09124V5.20857H114.642ZM119.014 15.4883C119.084 15.5808 119.119 15.7162 119.119 15.8946V18.6279C119.119 18.7968 119.09 18.9179 119.033 18.9929C118.977 19.0667 118.889 19.1038 118.768 19.1038C118.684 19.1038 118.605 19.0849 118.53 19.0469C118.455 19.0088 118.377 18.9467 118.297 18.8609V15.5627C118.364 15.4899 118.431 15.4359 118.5 15.4013C118.569 15.3666 118.638 15.3489 118.708 15.3489C118.841 15.3489 118.943 15.3955 119.014 15.4883ZM122.654 15.5121C122.722 15.6081 122.756 15.7674 122.756 15.9886V16.524H121.887V15.9886C121.887 15.7674 121.921 15.6081 121.989 15.5121C122.057 15.4166 122.17 15.3683 122.326 15.3683C122.476 15.3682 122.585 15.4166 122.654 15.5121ZM111.281 6.48821L109.962 2.15649H111.079L111.798 5.02445H111.867L112.553 2.15649H113.679L112.389 6.35406V9.33113H111.281V6.48821Z" fill="#090909"/>
</svg>
