<svg width="24" height="24" viewBox="0 0 24 24" fill="none" xmlns="http://www.w3.org/2000/svg">
<path d="M11.9365 7.06836C8.97358 7.06836 6.51855 9.48106 6.51855 12.4863C6.51855 15.4916 8.93125 17.9043 11.9365 17.9043C14.9418 17.9043 17.3545 15.4493 17.3545 12.4863C17.3545 9.52339 14.8995 7.06836 11.9365 7.06836ZM11.9365 15.9572C10.0318 15.9572 8.46564 14.3911 8.46564 12.4863C8.46564 10.5816 10.0318 9.01545 11.9365 9.01545C13.8413 9.01545 15.4074 10.5816 15.4074 12.4863C15.4074 14.3911 13.8413 15.9572 11.9365 15.9572Z" fill="#090909"/>
<path d="M17.5664 8.16792C18.2443 8.16792 18.7939 7.61834 18.7939 6.9404C18.7939 6.26247 18.2443 5.71289 17.5664 5.71289C16.8884 5.71289 16.3389 6.26247 16.3389 6.9404C16.3389 7.61834 16.8884 8.16792 17.5664 8.16792Z" fill="#090909"/>
<path d="M20.741 3.7667C19.6405 2.62384 18.0744 2.03125 16.2966 2.03125H7.57702C3.89448 2.03125 1.43945 4.48628 1.43945 8.16882V16.8461C1.43945 18.6662 2.03205 20.2323 3.21723 21.3752C4.36009 22.4757 5.8839 23.026 7.61935 23.026H16.2543C18.0744 23.026 19.5982 22.4334 20.6987 21.3752C21.8416 20.2746 22.4342 18.7085 22.4342 16.8884V8.16882C22.4342 6.39104 21.8416 4.86723 20.741 3.7667ZM20.5717 16.8884C20.5717 18.2006 20.1061 19.2588 19.3442 19.9783C18.5823 20.6979 17.5241 21.0789 16.2543 21.0789H7.61935C6.34951 21.0789 5.29131 20.6979 4.5294 19.9783C3.7675 19.2164 3.38654 18.1582 3.38654 16.8461V8.16882C3.38654 6.89897 3.7675 5.84077 4.5294 5.07887C5.24898 4.35929 6.34951 3.97834 7.61935 3.97834H16.3389C17.6088 3.97834 18.667 4.35929 19.4289 5.1212C20.1484 5.8831 20.5717 6.9413 20.5717 8.16882V16.8884Z" fill="#090909"/>
</svg>
