<svg width="24" height="24" viewBox="0 0 24 24" fill="none" xmlns="http://www.w3.org/2000/svg">
<path d="M22.3673 6.37727C21.6007 6.71805 20.7756 6.94792 19.9099 7.05079C20.7938 6.52162 21.4716 5.68342 21.7912 4.68351C20.9644 5.17416 20.0492 5.53018 19.0742 5.72237C18.294 4.89095 17.1819 4.37109 15.9513 4.37109C13.5887 4.37109 11.6731 6.28667 11.6731 8.64972C11.6731 8.98457 11.7108 9.31096 11.784 9.62465C8.22802 9.44601 5.07504 7.74294 2.96473 5.15426C2.59643 5.78587 2.38561 6.52078 2.38561 7.30564C2.38561 8.78984 3.14083 10.0996 4.28891 10.8667C3.58787 10.8443 2.9279 10.6517 2.35089 10.3312C2.35047 10.349 2.35047 10.3672 2.35047 10.3854C2.35047 12.458 3.82536 14.1869 5.78285 14.5806C5.42387 14.678 5.04583 14.7305 4.65552 14.7305C4.3795 14.7305 4.11153 14.7038 3.85034 14.6534C4.39517 16.3531 5.97505 17.5905 7.84702 17.6248C6.38271 18.7724 4.53825 19.4566 2.53335 19.4566C2.18833 19.4566 1.84755 19.4362 1.5127 19.3964C3.40669 20.611 5.65543 21.3188 8.07139 21.3188C15.9416 21.3188 20.2447 14.7995 20.2447 9.14544C20.2447 8.96002 20.2409 8.77502 20.2329 8.5913C21.0685 7.98932 21.7941 7.23536 22.3673 6.37727Z" fill="#090909"/>
</svg>
