<svg width="24" height="24" viewBox="0 0 24 24" fill="none" xmlns="http://www.w3.org/2000/svg">
<path d="M20.0008 13.346C20.0008 12.0687 18.952 11.0312 17.6587 11.0312C15.8135 10.9539 13.9256 10.9198 11.9996 10.9237C10.0736 10.9198 8.18511 10.9539 6.33988 11.0312C5.04721 11.0312 3.99838 12.0687 3.99838 13.346C3.92047 14.3584 3.88696 15.3715 3.88982 16.3833C3.88696 17.3958 3.92052 18.4083 3.99838 19.4207C3.99838 20.6985 5.04721 21.736 6.33988 21.736C8.18516 21.8129 10.0736 21.8469 11.9996 21.8435C13.9256 21.8469 15.8134 21.8129 17.6587 21.736C18.952 21.736 20.0008 20.6985 20.0008 19.4207C20.0787 18.4083 20.1123 17.3958 20.1088 16.3833C20.1123 15.3715 20.0787 14.3583 20.0008 13.346ZM7.40122 19.8675H6.29329V13.7342H5.14672V12.6928H8.54788V13.7342H7.40127V19.8675H7.40122ZM11.343 19.8675H10.359V19.2837C10.1782 19.4992 9.98952 19.6628 9.79279 19.7753C9.59666 19.888 9.40625 19.9442 9.22147 19.9442C8.99404 19.9442 8.82299 19.8657 8.70758 19.7084C8.59222 19.5503 8.53419 19.3138 8.53419 18.9995V14.575H9.51824V18.6322C9.51824 18.7578 9.53924 18.8488 9.58021 18.9045C9.62169 18.9608 9.68821 18.9893 9.78032 18.9893C9.85311 18.9893 9.94457 18.9517 10.0549 18.8778C10.1652 18.8034 10.2669 18.7084 10.359 18.593V14.575H11.343V19.8675ZM15.1308 18.7715C15.1308 19.1477 15.054 19.4355 14.9005 19.6356C14.7459 19.8351 14.523 19.9352 14.2315 19.9352C14.0393 19.9352 13.8676 19.8966 13.717 19.8186C13.5663 19.7413 13.4259 19.6224 13.2969 19.461V19.8675H12.3032V12.6929H13.2969V15.003C13.4293 14.8411 13.5697 14.7189 13.7192 14.6347C13.8681 14.5507 14.0194 14.5085 14.1718 14.5085C14.4833 14.5085 14.7215 14.6216 14.8846 14.8474C15.0489 15.0735 15.1308 15.4028 15.1308 15.8348V18.7715ZM18.7684 17.3458H16.8862V18.344C16.8862 18.6225 16.9186 18.8153 16.9839 18.9232C17.0482 19.0313 17.1591 19.0846 17.3159 19.0846C17.4785 19.0846 17.5927 19.0392 17.6582 18.9476C17.723 18.8567 17.7554 18.6555 17.7554 18.344V17.976H18.7684V18.374C18.7684 18.9163 18.645 19.3245 18.3983 19.5996C18.1516 19.8736 17.7838 20.0111 17.2932 20.0111C16.8532 20.0111 16.5064 19.8656 16.2529 19.5747C16.0005 19.2836 15.8732 18.8834 15.8732 18.374V15.9983C15.8732 15.5384 16.0124 15.1643 16.2904 14.8751C16.5684 14.5858 16.9277 14.4412 17.3676 14.4412C17.8183 14.4412 18.1635 14.5754 18.4056 14.8426C18.6472 15.111 18.7684 15.4958 18.7684 15.9983V17.3458H18.7684ZM12.4936 9.17114C12.3777 9.01308 12.3208 8.77716 12.3208 8.46225V4.03842H13.3042V8.09559C13.3042 8.22122 13.3247 8.31159 13.3662 8.36789C13.4076 8.42358 13.4742 8.45203 13.5663 8.45203C13.639 8.45203 13.7305 8.41505 13.8408 8.34061C13.9517 8.26617 14.0528 8.1712 14.145 8.0558V4.03842H15.129V9.33084H14.145V8.7465C13.9636 8.96194 13.7749 9.12567 13.5788 9.23878C13.3826 9.35077 13.1922 9.40763 13.008 9.40763C12.7801 9.40762 12.609 9.32864 12.4936 9.17114ZM8.62855 7.99214C8.62855 8.44177 8.75816 8.79989 9.01625 9.06539C9.2743 9.33202 9.61879 9.46444 10.0491 9.46444C10.4965 9.46444 10.8472 9.33595 11.1026 9.07786C11.3578 8.81981 11.4851 8.46506 11.4851 8.01145V5.27822C11.4851 4.87463 11.3549 4.5443 11.0952 4.2885C10.8348 4.0327 10.5017 3.90422 10.0941 3.90422C9.64672 3.90422 9.29085 4.02586 9.02596 4.26919C8.76107 4.51195 8.62855 4.8382 8.62855 5.24808V7.99214ZM9.64105 5.20833C9.64105 5.09236 9.67911 4.99917 9.7536 4.92806C9.82921 4.857 9.92643 4.82175 10.0464 4.82175C10.1772 4.82175 10.2817 4.857 10.3619 4.92806C10.442 4.99913 10.4818 5.09231 10.4818 5.20833V8.09105C10.4818 8.23317 10.4426 8.34516 10.3647 8.42587C10.2862 8.50716 10.1794 8.54752 10.0463 8.54752C9.91616 8.54752 9.81669 8.50828 9.74614 8.42869C9.67569 8.34909 9.641 8.23655 9.641 8.091V5.20833H9.64105ZM14.0131 15.488C14.083 15.5806 14.1183 15.7159 14.1183 15.8944V18.6277C14.1183 18.7966 14.0899 18.9176 14.033 18.9927C13.9762 19.0665 13.888 19.1035 13.7676 19.1035C13.684 19.1035 13.6049 19.0847 13.53 19.0466C13.4549 19.0086 13.377 18.9465 13.2969 18.8607V15.5625C13.3634 15.4896 13.431 15.4357 13.4998 15.401C13.5686 15.3664 13.6374 15.3487 13.7078 15.3487C13.8409 15.3487 13.9426 15.3952 14.0131 15.488ZM17.6531 15.5119C17.7213 15.6079 17.7554 15.7671 17.7554 15.9883V16.5237H16.8862V15.9883C16.8862 15.7671 16.9203 15.6079 16.9885 15.5119C17.0567 15.4163 17.1693 15.368 17.3256 15.368C17.4757 15.368 17.5848 15.4163 17.6531 15.5119ZM6.28077 6.48797L4.96194 2.15625H6.07846L6.79752 5.0242H6.86685L7.553 2.15625H8.67857L7.38866 6.35381V9.33089H6.28077V6.48797Z" fill="#090909"/>
</svg>
